<svg width="364" height="256" viewBox="0 0 364 256" fill="none" xmlns="http://www.w3.org/2000/svg">
<path opacity="0.1" d="M113.011 0.461303C168.301 -3.29327 226.271 16.266 217.749 44.6197C209.228 72.9734 263.306 34.5474 284.885 44.7665C300.25 52.0438 294.108 74.1986 301.541 83.1265C318.583 103.6 336.018 77.824 357.703 93.2942C379.388 108.764 334.99 253.096 312.327 253.903L53.8816 252.065L35.3347 250.115C35.3347 250.115 -15.9646 217.282 20.7316 186.991C45.545 166.511 27.6906 151.639 24.9865 142.264C21.8892 131.497 14.6633 112.697 46.1656 98.8989C77.6679 85.1014 69.5337 55.0809 68.7605 48.8673C67.9873 42.6537 57.7228 4.21881 113.013 0.464238L113.011 0.461303Z" fill="#9BC1F9"/>
<path d="M56.5842 187.295C49.5299 176.78 47.8221 163.836 47.6343 154.829C47.4274 145.051 48.9137 137.671 48.9284 137.598L48.4398 137.441C48.4251 137.514 46.9256 144.949 47.1325 154.791C47.3232 163.887 49.0501 176.962 56.1925 187.609L56.5842 187.295Z" fill="#3C8F7C"/>
<path d="M50.4997 135.752C50.4146 137.969 49.5328 139.86 48.2065 141.046C46.9843 139.548 46.2551 137.463 46.3402 135.245C46.4253 133.026 47.3071 131.136 48.6334 129.952C49.86 131.449 50.5892 133.535 50.4997 135.752Z" fill="#3C8F7C"/>
<path d="M46.1773 141.018C47.3774 142.892 47.8059 145.057 47.511 146.962C45.7635 146.598 44.041 145.406 42.8408 143.534C41.6407 141.662 41.2137 139.495 41.5086 137.591C43.2561 137.954 44.9786 139.146 46.1773 141.018Z" fill="#3C8F7C"/>
<path d="M43.8386 147.117C45.5872 148.216 46.8635 149.927 47.4186 151.916C45.7665 152.468 43.7975 152.244 41.9973 151.126C40.2476 150.028 38.9705 148.316 38.4158 146.326C40.0694 145.776 42.0384 146.001 43.8386 147.117Z" fill="#3C8F7C"/>
<path d="M44.9243 155.454C46.349 156.334 47.2719 157.914 47.5653 159.678C46.8624 160.032 46.08 160.197 45.2941 160.159C44.5082 160.121 43.7455 159.881 43.0801 159.461C41.6554 158.58 40.7325 157 40.4391 155.237C41.1419 154.883 41.9244 154.717 42.7103 154.755C43.4962 154.793 44.2589 155.034 44.9243 155.454Z" fill="#3C8F7C"/>
<path d="M50.3192 145.336C51.0325 144.901 51.8354 144.633 52.6673 144.553C53.4992 144.473 54.3383 144.583 55.1214 144.875C54.9589 145.726 54.6204 146.534 54.1278 147.247C53.6351 147.959 52.9991 148.561 52.2604 149.014C51.547 149.45 50.7442 149.717 49.9123 149.797C49.0804 149.877 48.2413 149.767 47.4582 149.475C47.6207 148.624 47.9591 147.816 48.4518 147.103C48.9445 146.391 49.5805 145.789 50.3192 145.336Z" fill="#3C8F7C"/>
<path d="M50.3529 151.12C51.0662 150.684 51.8691 150.416 52.701 150.337C53.5329 150.257 54.372 150.367 55.1551 150.659C54.9919 151.51 54.6524 152.318 54.1584 153.031C53.6644 153.744 53.0269 154.345 52.2867 154.796C51.5734 155.233 50.7703 155.501 49.9381 155.581C49.1059 155.661 48.2664 155.551 47.4831 155.259C47.6471 154.407 47.987 153.599 48.4812 152.886C48.9754 152.174 49.6129 151.572 50.3529 151.12Z" fill="#3C8F7C"/>
<path d="M49.3156 238.942C34.5277 233.557 24.1839 220.715 18.1112 210.889C11.5175 200.224 8.39093 190.717 8.36158 190.614L7.70868 190.874C7.73949 190.969 10.8866 200.557 17.5213 211.294C23.6528 221.217 34.1007 234.182 49.075 239.64L49.3156 238.942Z" fill="#96D9C9"/>
<path d="M8.93965 187.159C10.2373 189.59 10.5454 192.428 9.79943 195.081C7.4519 194.508 5.27017 192.845 3.93061 190.309C2.63278 187.877 2.32472 185.039 3.07083 182.386C5.41396 182.958 7.59276 184.622 8.93965 187.159Z" fill="#96D9C9"/>
<path d="M7.49154 196.858C8.71341 197.337 9.822 198.065 10.7464 198.996C11.6708 199.927 12.3907 201.041 12.86 202.266C11.7101 202.86 10.4458 203.199 9.15312 203.261C7.8604 203.322 6.5696 203.105 5.3685 202.623C4.14654 202.145 3.03787 201.417 2.11343 200.485C1.189 199.554 0.469164 198.44 0 197.215C1.14991 196.621 2.41421 196.282 3.70693 196.22C4.99964 196.159 6.29044 196.376 7.49154 196.858Z" fill="#96D9C9"/>
<path d="M8.8223 205.711C11.5762 205.348 14.1482 206.203 15.9793 207.846C15.2021 208.92 14.2141 209.825 13.0756 210.504C11.9372 211.184 10.6722 211.624 9.35783 211.799C6.60388 212.163 4.03188 211.307 2.20081 209.664C2.97803 208.59 3.96603 207.685 5.10448 207.006C6.24293 206.326 7.50795 205.886 8.8223 205.711Z" fill="#96D9C9"/>
<path d="M14.0353 214.192C16.7893 213.828 19.3613 214.682 21.1923 216.325C20.4155 217.4 19.4276 218.304 18.2891 218.984C17.1505 219.664 15.8853 220.104 14.5708 220.278C11.8169 220.642 9.24636 219.788 7.41382 218.144C8.19055 217.07 9.17842 216.165 10.317 215.485C11.4555 214.806 12.7208 214.366 14.0353 214.192Z" fill="#96D9C9"/>
<path d="M13.6186 200.987C13.7653 198.309 14.8863 195.891 16.5295 194.238C17.9967 195.831 18.8389 198.214 18.6893 200.893C18.5396 203.572 17.4231 205.989 15.7798 207.642C14.3185 206.044 13.4689 203.662 13.6186 200.987Z" fill="#96D9C9"/>
<path d="M19.0634 209.762C19.1734 207.083 20.2548 204.645 21.8745 202.965C23.3608 204.53 24.2441 206.895 24.134 209.576C24.024 212.257 22.9412 214.694 21.3229 216.372C19.8351 214.807 18.9548 212.441 19.0634 209.762Z" fill="#96D9C9"/>
<path d="M22.9266 222.966C23.4111 222.703 23.9488 222.553 24.4994 222.528C25.0501 222.502 25.5993 222.602 26.106 222.819C25.9577 223.375 25.6972 223.895 25.3403 224.346C24.9835 224.798 24.5381 225.171 24.0314 225.444C23.5467 225.706 23.009 225.856 22.4584 225.881C21.9079 225.907 21.3587 225.807 20.8519 225.591C20.9999 225.034 21.2603 224.515 21.6172 224.063C21.974 223.612 22.4196 223.238 22.9266 222.966Z" fill="#96D9C9"/>
<path d="M82.7782 225.821C82.7782 225.821 96.3572 202.159 92.5145 196.494C87.2033 188.668 78.516 210.967 78.1946 208.856C75.1517 188.919 75.7884 163.776 61.5624 159.965C53.4752 157.8 62.0965 178.746 61.0929 184.141C60.0893 189.535 46.6351 170.27 38.3513 160.078C30.0674 149.887 24.9997 155.51 29.7945 167.875C34.4397 179.833 51.2641 193.845 47.4978 195.043C43.7315 196.242 22.6052 179.583 19.4229 185.728C15.5201 193.256 48.0524 206.542 44.7879 208.041C41.5233 209.541 26.0267 202.494 26.0267 208.481C26.0267 214.469 47.4479 215.976 46.8845 218.568C45.9836 222.768 32.5308 212.019 31.4789 217.844C30.4049 223.802 49.7397 224.254 49.0648 228.914C48.676 231.591 43.8063 228.788 42.926 232.469C40.9174 240.864 71.3897 252.627 71.3897 252.627L82.7782 225.821Z" fill="#3C8F7C"/>
<path d="M105.56 230.291C110.186 232.459 108.934 237.84 108.934 237.84C108.934 237.84 121.476 228.047 126.165 233.763C130.854 239.479 128.391 250.683 122.89 252.505C117.39 254.327 69.5602 253.049 69.5602 253.049C69.5602 253.049 101.399 228.342 105.56 230.291Z" fill="#50BFA5"/>
<path d="M72.7865 244.098L73.2267 243.719C63.1778 231.478 58.8862 216.136 57.0566 205.415C55.07 193.786 55.472 184.942 55.4764 184.854L54.8661 184.744C54.8661 184.833 54.4567 193.736 56.4536 205.431C58.3008 216.246 62.6305 231.725 72.7865 244.098Z" fill="#50BFA5"/>
<path d="M56.8233 182.91C57.1168 185.551 56.4375 187.835 55.117 189.301C53.3372 187.433 52.2147 185.037 51.9199 182.474C51.6265 179.833 52.3058 177.548 53.6263 176.081C55.4064 177.949 56.5288 180.346 56.8233 182.91Z" fill="#50BFA5"/>
<path d="M52.903 189.063C54.6255 191.243 55.5087 193.804 55.5073 196.082C53.4194 195.718 51.2157 194.371 49.4917 192.19C47.7678 190.008 46.886 187.449 46.8875 185.171C48.9753 185.534 51.1805 186.883 52.903 189.063Z" fill="#50BFA5"/>
<path d="M51.2847 196.414C53.5214 197.669 55.2799 199.63 56.2864 201.989C54.4729 202.711 52.1547 202.523 49.8747 201.266C47.6388 200.012 45.8803 198.055 44.873 195.698C46.685 194.971 49.0046 195.156 51.2847 196.414Z" fill="#50BFA5"/>
<path d="M55.3635 208.515C56.3339 208.976 57.1236 209.746 57.6083 210.704C56.8747 211.07 55.9108 211.067 54.9248 210.61C53.9544 210.15 53.1647 209.38 52.68 208.421C53.4107 208.056 54.379 208.059 55.3635 208.515Z" fill="#50BFA5"/>
<path d="M56.6003 213.028C57.5715 213.489 58.3618 214.26 58.8466 215.219C58.113 215.583 57.1476 215.58 56.1631 215.123C55.1922 214.663 54.4019 213.893 53.9168 212.934C54.6475 212.568 55.6158 212.578 56.6003 213.028Z" fill="#50BFA5"/>
<path d="M58.4651 194.035C60.0791 192.879 62.0789 192.678 63.9393 193.302C63.8513 195.309 62.9709 197.172 61.357 198.333C59.7431 199.493 57.7448 199.691 55.8829 199.066C55.9753 197.059 56.8556 195.19 58.4651 194.035Z" fill="#50BFA5"/>
<path d="M59.5377 200.917C61.1516 199.76 63.1499 199.559 65.0103 200.183C64.9223 202.197 64.0405 204.067 62.431 205.221C60.8215 206.376 58.8187 206.579 56.9568 205.955C57.0463 203.939 57.9267 202.071 59.5377 200.917Z" fill="#50BFA5"/>
<path d="M60.242 210.852C61.2895 210.101 62.5895 209.972 63.8043 210.37C63.7471 211.681 63.172 212.898 62.1244 213.65C61.0768 214.403 59.7769 214.531 58.562 214.133C58.6192 212.82 59.1929 211.605 60.242 210.852Z" fill="#50BFA5"/>
<path d="M80.3646 253.284C80.3646 253.284 65.6735 234.423 59.5303 231.533C52.9866 228.452 58.6603 239.124 58.6603 239.124C58.6603 239.124 44.669 225.379 41.3825 228.811C38.096 232.243 41.6055 235.455 41.6055 235.455C41.6055 235.455 29.8884 233.279 28.1806 237.667C25.5558 244.416 44.826 247.766 44.826 247.766C44.826 247.766 35.5973 245.737 37.4416 249.915C40.2293 256.213 80.3646 253.284 80.3646 253.284Z" fill="#50BFA5"/>
<path d="M28.1835 237.667C29.8914 233.279 41.6084 235.455 41.6084 235.455C41.6084 235.455 38.0989 232.243 41.3854 228.811C44.672 225.379 55.6173 233.484 55.6173 233.484C55.6173 233.484 53.9198 226.035 62.1464 231.895C68.024 236.08 79.3655 251.692 79.3655 251.692L28.1835 237.667Z" fill="#96D9C9"/>
<path d="M69.5631 253.001C69.5631 253.001 92.9708 254.656 97.5309 250.464C102.091 246.272 97.5661 238.679 97.5661 238.679C97.5661 238.679 105.599 232.329 105.474 228.183C105.35 224.037 100.115 226.141 100.115 226.141C100.115 226.141 108.985 214.72 106.881 212.547C102.963 208.502 92.7068 220.373 92.7068 220.373C92.7068 220.373 95.7512 214.726 92.5395 213.829C87.6977 212.477 84.1368 226.405 84.1368 226.405C84.1368 226.405 85.0391 220.904 81.7027 221.635C75.7136 222.945 69.5631 253.001 69.5631 253.001Z" fill="#50BFA5"/>
<path d="M276.628 188.464L278.518 183.882C279.985 180.508 283.735 178.903 286.899 180.288C294.867 183.777 298.331 193.493 294.635 201.985L291.934 208.195C290.75 210.916 291.162 213.907 292.759 216.018C294.208 217.935 294.444 220.599 293.439 222.914L292.016 226.189C291.27 227.911 290.159 229.451 288.761 230.703C287.362 231.954 285.709 232.888 283.916 233.44C282.828 233.782 281.828 234.355 280.983 235.12C280.139 235.886 279.47 236.825 279.024 237.874L277.008 242.51C274.779 247.634 269.073 250.081 264.267 247.976L261.523 246.774C256.715 244.669 254.627 238.807 256.855 233.682C260.459 227.555 260.172 222.982 258.895 219.88C257.955 217.577 257.486 215.11 257.516 212.623C257.546 210.136 258.075 207.68 259.07 205.4L259.363 204.746C260.402 202.348 261.939 200.199 263.874 198.443C265.808 196.686 268.095 195.362 270.582 194.559C272.752 193.856 275.021 192.157 276.628 188.464Z" fill="#50BFA5"/>
<path d="M242.284 252.837C246.151 247.805 267.637 221.088 281.458 216.597C296.717 211.639 282.338 231.329 282.338 231.329C282.338 231.329 309.413 201.624 319.347 204.301C328.454 206.756 319.347 225.169 319.347 225.169C319.347 225.169 329.604 214.972 342.043 214.972C354.149 214.972 333.638 252.044 332.529 253.981L242.284 252.837Z" fill="#96D9C9"/>
<path d="M230.951 226.477C230.951 226.477 219.456 201.094 223.298 195.431C228.609 187.605 235.215 211.623 235.536 209.516C238.578 189.579 237.942 164.436 252.168 160.626C260.256 158.46 251.633 179.406 252.638 184.801C253.643 190.196 267.096 170.93 275.38 160.739C283.663 150.547 288.731 156.17 283.936 168.535C279.291 180.493 262.467 194.505 266.233 195.704C269.999 196.902 288.094 181.662 291.285 187.801C295.187 195.328 268.115 206.017 271.38 207.516C274.644 209.016 289.983 198.967 289.983 207.385C289.983 213.382 267.008 216.362 267.565 218.954C268.468 223.154 281.193 212.682 282.237 218.507C283.311 224.465 265.319 225.348 265.994 230.008C266.383 232.686 270.89 229.385 272.059 232.985C274.7 241.118 248.877 253.086 248.877 253.086L230.951 226.477Z" fill="#3C8F7C"/>
<path d="M323.853 195.658C312.792 212.993 304.732 233.108 300.117 253.566L299.022 253.552C303.619 233.524 311.96 213.251 323.003 195.935C325.57 191.911 328.341 187.132 333.146 185.567C333.239 185.537 333.274 185.678 333.186 185.713C328.797 187.371 326.255 191.89 323.853 195.658Z" fill="#3C8F7C"/>
<path d="M302.631 253.602C315.455 236.096 330.745 220.537 348.027 207.412C348.206 207.277 348.446 207.589 348.266 207.727C331.301 220.801 316.312 236.255 303.763 253.611L302.631 253.602Z" fill="#3C8F7C"/>
<path d="M324.867 184.908C325.151 185.329 326.242 186.425 326.561 187.864C326.993 189.23 326.652 190.945 326.616 190.879C326.534 190.915 327.877 189.775 328.297 187.961C328.84 186.222 328.46 183.812 327.784 183.012C326.61 181.206 324.578 181.023 324.182 181.899C323.759 182.769 324.292 183.953 324.867 184.908Z" fill="#3C8F7C"/>
<path d="M327.508 200.381C327.094 200.088 326.024 198.973 324.595 198.62C323.243 198.163 321.533 198.474 321.592 198.507C321.555 198.59 322.719 197.263 324.526 196.879C326.269 196.368 328.665 196.797 329.449 197.491C331.226 198.697 331.368 200.746 330.486 201.126C329.621 201.533 328.451 200.975 327.508 200.381Z" fill="#3C8F7C"/>
<path d="M323.517 207.162C323.103 206.869 322.034 205.754 320.605 205.402C319.252 204.943 317.543 205.255 317.601 205.287C317.566 205.37 318.728 204.045 320.536 203.659C322.279 203.148 324.675 203.577 325.458 204.271C327.235 205.477 327.377 207.526 326.495 207.906C325.627 208.314 324.457 207.757 323.517 207.162Z" fill="#3C8F7C"/>
<path d="M337.762 222.892C337.348 222.599 336.279 221.484 334.85 221.132C333.497 220.672 331.786 220.985 331.846 221.017C331.81 221.099 332.972 219.775 334.781 219.389C336.524 218.878 338.92 219.306 339.703 220C341.48 221.207 341.621 223.256 340.741 223.636C339.872 224.044 338.703 223.487 337.762 222.892Z" fill="#3C8F7C"/>
<path d="M345.039 216.459C344.626 216.165 343.556 215.05 342.127 214.698C340.774 214.239 339.065 214.551 339.124 214.584C339.088 214.666 340.25 213.341 342.058 212.955C343.801 212.444 346.197 212.874 346.98 213.567C348.757 214.774 348.9 216.824 348.019 217.204C347.149 217.61 345.98 217.053 345.039 216.459Z" fill="#3C8F7C"/>
<path d="M319.277 192.581C319.623 192.951 320.872 193.861 321.414 195.233C322.054 196.514 321.987 198.255 321.941 198.202C321.866 198.249 323.014 196.911 323.143 195.055C323.407 193.252 322.651 190.929 321.859 190.249C320.423 188.649 318.38 188.792 318.126 189.719C317.848 190.643 318.558 191.729 319.277 192.581Z" fill="#3C8F7C"/>
<path d="M313.404 200.272C313.898 200.535 315.625 201.006 316.493 202.309C317.476 203.462 317.601 205.436 317.535 205.39C317.443 205.475 318.766 203.483 318.709 201.358C318.831 199.232 317.573 196.967 316.464 196.549C314.41 195.375 311.784 196.423 311.568 197.567C311.32 198.726 312.374 199.628 313.404 200.272Z" fill="#3C8F7C"/>
<path d="M307.222 211.921C307.755 212.097 309.536 212.276 310.61 213.407C311.772 214.378 312.224 216.303 312.155 216.274C312.077 216.374 313.048 214.19 312.635 212.103C312.4 209.985 310.78 207.965 309.617 207.739C307.397 206.937 304.982 208.405 304.961 209.569C304.913 210.748 306.1 211.46 307.222 211.921Z" fill="#3C8F7C"/>
<path d="M325.512 220.036C325.9 220.278 327.273 220.769 327.91 221.868C328.643 222.863 328.633 224.475 328.582 224.439C328.503 224.502 329.691 222.961 329.766 221.227C329.986 219.505 329.091 217.59 328.212 217.185C326.608 216.12 324.413 216.815 324.173 217.734C323.906 218.658 324.711 219.453 325.512 220.036Z" fill="#3C8F7C"/>
<path d="M335.035 187.635C334.803 187.443 334.219 186.737 333.388 186.462C332.608 186.13 331.584 186.237 331.616 186.262C331.592 186.309 332.336 185.575 333.428 185.427C334.481 185.203 335.88 185.561 336.312 186.005C337.31 186.798 337.306 188.017 336.767 188.206C336.229 188.395 335.566 188.027 335.035 187.635Z" fill="#3C8F7C"/>
<path d="M332.816 182.685C332.826 182.987 333.027 183.882 332.734 184.707C332.518 185.529 331.808 186.278 331.81 186.236C331.757 186.227 332.791 186.089 333.57 185.307C334.392 184.607 334.963 183.276 334.876 182.666C334.86 181.39 333.895 180.649 333.419 180.963C332.944 181.277 332.831 182.023 332.816 182.685Z" fill="#3C8F7C"/>
<path d="M350.28 209.906C350.048 209.714 349.464 209.008 348.634 208.732C347.855 208.402 346.829 208.508 346.862 208.533C346.838 208.58 347.584 207.848 348.674 207.699C349.727 207.474 351.125 207.831 351.558 208.278C352.556 209.068 352.551 210.288 352.013 210.478C351.475 210.669 350.811 210.298 350.28 209.906Z" fill="#3C8F7C"/>
<path d="M347.608 204.913C347.642 205.207 347.917 206.087 347.691 206.935C347.544 207.771 346.897 208.577 346.894 208.536C346.841 208.536 347.859 208.301 348.577 207.465C349.338 206.699 349.798 205.327 349.661 204.72C349.541 203.449 348.518 202.79 348.071 203.142C347.623 203.494 347.566 204.253 347.608 204.913Z" fill="#3C8F7C"/>
<path d="M335.563 233.663C335.636 234.128 336.119 235.478 335.821 236.812C335.645 238.132 334.688 239.425 334.681 239.36C334.599 239.36 336.173 238.933 337.237 237.581C338.377 236.338 339.006 234.166 338.754 233.229C338.485 231.252 336.847 230.294 336.172 230.87C335.497 231.445 335.459 232.635 335.563 233.663Z" fill="#3C8F7C"/>
<path d="M325.612 237.237C325.686 237.702 326.168 239.052 325.87 240.386C325.694 241.706 324.738 243 324.73 242.936C324.648 242.936 326.223 242.507 327.286 241.155C328.426 239.912 329.056 237.74 328.803 236.803C328.535 234.828 326.896 233.869 326.221 234.444C325.546 235.019 325.508 236.21 325.612 237.237Z" fill="#3C8F7C"/>
<path d="M315.502 241.759C315.575 242.224 316.058 243.574 315.76 244.908C315.584 246.228 314.627 247.522 314.62 247.458C314.538 247.458 316.112 247.031 317.176 245.677C318.316 244.434 318.944 242.262 318.693 241.325C318.424 239.35 316.785 238.39 316.111 238.966C315.436 239.541 315.398 240.732 315.502 241.759Z" fill="#3C8F7C"/>
<path d="M338.534 242.992C338.328 242.607 337.934 241.342 336.973 240.527C336.111 239.657 334.684 239.236 334.715 239.287C334.656 239.335 336.051 238.766 337.589 239.167C339.119 239.445 340.79 240.692 341.126 241.524C342.027 243.138 341.355 244.752 340.54 244.71C339.724 244.667 339.028 243.807 338.534 242.992Z" fill="#3C8F7C"/>
<path d="M328.183 246.667C327.979 246.284 327.584 245.018 326.623 244.202C325.76 243.332 324.333 242.911 324.364 242.962C324.306 243.012 325.702 242.441 327.238 242.843C328.768 243.121 330.441 244.369 330.777 245.201C331.678 246.806 331.006 248.429 330.19 248.385C329.361 248.36 328.682 247.483 328.183 246.667Z" fill="#3C8F7C"/>
<path d="M346.416 239.208C346.237 238.993 345.829 238.251 345.111 237.867C344.455 237.434 343.505 237.359 343.53 237.387C343.5 237.425 344.301 236.884 345.32 236.931C346.317 236.903 347.531 237.465 347.851 237.943C348.628 238.832 348.421 239.941 347.9 240.021C347.38 240.1 346.834 239.654 346.416 239.208Z" fill="#3C8F7C"/>
<path d="M345.221 234.325C345.18 234.601 345.214 235.452 344.809 236.153C344.476 236.865 343.704 237.429 343.712 237.391C343.666 237.374 344.632 237.416 345.472 236.84C346.338 236.341 347.086 235.226 347.102 234.649C347.302 233.475 346.546 232.646 346.061 232.853C345.575 233.06 345.345 233.725 345.221 234.325Z" fill="#3C8F7C"/>
<path d="M345.736 237.08C342.55 237.379 339.393 237.943 336.301 238.767C330.655 240.252 325.222 242.444 319.877 244.774C317.249 245.92 314.605 247.05 312.027 248.306C310.823 248.893 309.609 249.48 308.506 250.234C307.009 251.248 304.674 253.28 304.391 253.608L305.619 253.645C306.456 252.961 309.536 250.361 313.809 248.303C323.932 243.424 334.455 238.421 345.751 237.18C345.764 237.178 345.776 237.171 345.784 237.16C345.792 237.149 345.795 237.136 345.794 237.123C345.792 237.11 345.785 237.098 345.774 237.09C345.763 237.082 345.75 237.078 345.736 237.08Z" fill="#3C8F7C"/>
<path d="M250.422 39.8953H113.481C109.141 39.8953 105.623 43.4136 105.623 47.7537V246.325C105.623 250.665 109.141 254.183 113.481 254.183H250.422C254.762 254.183 258.281 250.665 258.281 246.325V47.7537C258.281 43.4136 254.762 39.8953 250.422 39.8953Z" fill="#F7CC7F"/>
<path d="M245.975 57.5209H119.369V90.2102H245.975V57.5209Z" fill="#3CB4C5"/>
<g style="mix-blend-mode:multiply" opacity="0.5">
<path d="M122.727 62.2262H245.975V57.5209H119.369V90.2102H122.727V62.2262Z" fill="#3CB4C5"/>
</g>
<path d="M155.092 99.5357H119.973C119.639 99.5357 119.369 99.8064 119.369 100.14V110.708C119.369 111.042 119.639 111.313 119.973 111.313H155.092C155.426 111.313 155.697 111.042 155.697 110.708V100.14C155.697 99.8064 155.426 99.5357 155.092 99.5357Z" fill="#F47458"/>
<path d="M200.232 99.5357H165.113C164.779 99.5357 164.509 99.8064 164.509 100.14V110.708C164.509 111.042 164.779 111.313 165.113 111.313H200.232C200.566 111.313 200.837 111.042 200.837 110.708V100.14C200.837 99.8064 200.566 99.5357 200.232 99.5357Z" fill="#F47458"/>
<path d="M245.371 99.5357H210.252C209.918 99.5357 209.647 99.8064 209.647 100.14V110.708C209.647 111.042 209.918 111.313 210.252 111.313H245.371C245.705 111.313 245.975 111.042 245.975 110.708V100.14C245.975 99.8064 245.705 99.5357 245.371 99.5357Z" fill="#F47458"/>
<path d="M146.128 120.639H120.723C119.975 120.639 119.369 121.245 119.369 121.993V145.687C119.369 146.435 119.975 147.041 120.723 147.041H146.128C146.876 147.041 147.482 146.435 147.482 145.687V121.993C147.482 121.245 146.876 120.639 146.128 120.639Z" fill="#F47458"/>
<path d="M178.959 120.639H153.555C152.807 120.639 152.2 121.245 152.2 121.993V145.687C152.2 146.435 152.807 147.041 153.555 147.041H178.959C179.707 147.041 180.313 146.435 180.313 145.687V121.993C180.313 121.245 179.707 120.639 178.959 120.639Z" fill="#FAE0B2"/>
<path d="M211.789 120.639H186.385C185.637 120.639 185.031 121.245 185.031 121.993V145.687C185.031 146.435 185.637 147.041 186.385 147.041H211.789C212.537 147.041 213.144 146.435 213.144 145.687V121.993C213.144 121.245 212.537 120.639 211.789 120.639Z" fill="#FAE0B2"/>
<path d="M146.128 153.185H120.723C119.975 153.185 119.369 153.792 119.369 154.54V178.234C119.369 178.982 119.975 179.588 120.723 179.588H146.128C146.876 179.588 147.482 178.982 147.482 178.234V154.54C147.482 153.792 146.876 153.185 146.128 153.185Z" fill="#F47458"/>
<path d="M178.959 153.185H153.555C152.807 153.185 152.2 153.792 152.2 154.54V178.234C152.2 178.982 152.807 179.588 153.555 179.588H178.959C179.707 179.588 180.313 178.982 180.313 178.234V154.54C180.313 153.792 179.707 153.185 178.959 153.185Z" fill="#FAE0B2"/>
<path d="M211.789 153.185H186.385C185.637 153.185 185.031 153.792 185.031 154.54V178.234C185.031 178.982 185.637 179.588 186.385 179.588H211.789C212.537 179.588 213.144 178.982 213.144 178.234V154.54C213.144 153.792 212.537 153.185 211.789 153.185Z" fill="#FAE0B2"/>
<path d="M240.247 120.639H223.589C222.068 120.642 220.611 121.25 219.539 122.327C218.466 123.404 217.864 124.864 217.867 126.384V173.844C217.864 175.364 218.466 176.824 219.538 177.901C220.611 178.979 222.068 179.586 223.589 179.591H240.247C241.768 179.586 243.225 178.979 244.298 177.901C245.37 176.824 245.972 175.364 245.969 173.844V126.384C245.972 124.864 245.37 123.404 244.297 122.327C243.225 121.25 241.768 120.642 240.247 120.639Z" fill="#FAE0B2"/>
<path d="M146.128 185.734H120.723C119.975 185.734 119.369 186.34 119.369 187.088V210.782C119.369 211.53 119.975 212.136 120.723 212.136H146.128C146.876 212.136 147.482 211.53 147.482 210.782V187.088C147.482 186.34 146.876 185.734 146.128 185.734Z" fill="#F47458"/>
<path d="M178.959 185.734H153.555C152.807 185.734 152.2 186.34 152.2 187.088V210.782C152.2 211.53 152.807 212.136 153.555 212.136H178.959C179.707 212.136 180.313 211.53 180.313 210.782V187.088C180.313 186.34 179.707 185.734 178.959 185.734Z" fill="#FAE0B2"/>
<path d="M211.789 185.734H186.385C185.637 185.734 185.031 186.34 185.031 187.088V210.782C185.031 211.53 185.637 212.136 186.385 212.136H211.789C212.537 212.136 213.144 211.53 213.144 210.782V187.088C213.144 186.34 212.537 185.734 211.789 185.734Z" fill="#FAE0B2"/>
<path d="M244.62 185.734H219.215C218.467 185.734 217.861 186.34 217.861 187.088V210.782C217.861 211.53 218.467 212.136 219.215 212.136H244.62C245.368 212.136 245.974 211.53 245.974 210.782V187.088C245.974 186.34 245.368 185.734 244.62 185.734Z" fill="#FAE0B2"/>
<path d="M146.128 218.282H120.723C119.975 218.282 119.369 218.889 119.369 219.637V243.329C119.369 244.077 119.975 244.683 120.723 244.683H146.128C146.876 244.683 147.482 244.077 147.482 243.329V219.637C147.482 218.889 146.876 218.282 146.128 218.282Z" fill="#F47458"/>
<path d="M178.959 218.282H153.555C152.807 218.282 152.2 218.889 152.2 219.637V243.329C152.2 244.077 152.807 244.683 153.555 244.683H178.959C179.707 244.683 180.313 244.077 180.313 243.329V219.637C180.313 218.889 179.707 218.282 178.959 218.282Z" fill="#FAE0B2"/>
<path d="M211.789 218.282H186.385C185.637 218.282 185.031 218.889 185.031 219.637V243.329C185.031 244.077 185.637 244.683 186.385 244.683H211.789C212.537 244.683 213.144 244.077 213.144 243.329V219.637C213.144 218.889 212.537 218.282 211.789 218.282Z" fill="#FAE0B2"/>
<path d="M244.62 218.282H219.215C218.467 218.282 217.861 218.889 217.861 219.637V243.329C217.861 244.077 218.467 244.683 219.215 244.683H244.62C245.368 244.683 245.974 244.077 245.974 243.329V219.637C245.974 218.889 245.368 218.282 244.62 218.282Z" fill="#E87B50"/>
<path d="M138.238 191.997V193.333L131.748 206.956H129.661L136.129 193.724V193.677H128.835V191.997H138.238Z" fill="white"/>
<path d="M161.335 203.158C161.335 201.272 162.459 199.931 164.293 199.154L164.27 199.085C162.619 198.303 161.907 197.015 161.907 195.726C161.907 193.356 163.903 191.745 166.517 191.745C169.408 191.745 170.853 193.563 170.853 195.426C170.853 196.692 170.234 198.05 168.398 198.926V198.993C170.256 199.727 171.403 201.047 171.403 202.859C171.403 205.46 169.179 207.209 166.334 207.209C163.215 207.209 161.335 205.345 161.335 203.158ZM169.362 203.066C169.362 201.25 168.1 200.374 166.082 199.799C164.339 200.306 163.398 201.456 163.398 202.88C163.331 204.398 164.476 205.733 166.381 205.733C168.191 205.736 169.362 204.608 169.362 203.066ZM163.812 195.583C163.812 197.08 164.936 197.885 166.655 198.345C167.939 197.904 168.925 196.987 168.925 195.63C168.925 194.433 168.215 193.19 166.403 193.19C164.729 193.195 163.812 194.299 163.812 195.588V195.583Z" fill="white"/>
<path d="M171.425 231.464C171.425 236.549 169.546 239.357 166.243 239.357C163.331 239.357 161.357 236.618 161.312 231.671C161.312 226.654 163.467 223.894 166.495 223.894C169.637 223.893 171.425 226.7 171.425 231.464ZM163.331 231.694C163.331 235.584 164.522 237.792 166.357 237.792C168.422 237.792 169.408 235.377 169.408 231.556C169.408 227.873 168.467 225.458 166.381 225.458C164.614 225.458 163.328 227.621 163.328 231.694H163.331Z" fill="white"/>
<path d="M195.991 205.535C196.431 205.581 196.931 205.535 197.618 205.466C198.784 205.322 199.875 204.815 200.737 204.017C201.723 203.119 202.435 201.807 202.71 200.035H202.649C201.823 201.047 200.63 201.649 199.139 201.649C196.456 201.649 194.738 199.624 194.738 197.07C194.738 194.239 196.778 191.754 199.829 191.754C202.879 191.754 204.76 194.239 204.76 198.063C204.76 201.354 203.658 203.656 202.191 205.082C201.044 206.21 199.462 206.9 197.857 207.085C197.243 207.184 196.621 207.223 195.999 207.199L195.991 205.535ZM196.724 196.929C196.724 198.792 197.848 200.104 199.591 200.104C200.944 200.104 201.999 199.438 202.525 198.54C202.657 198.318 202.721 198.063 202.71 197.806C202.71 195.252 201.77 193.296 199.66 193.296C197.939 193.287 196.724 194.806 196.724 196.923V196.929Z" fill="white"/>
<path d="M134.798 173.77V169.697H127.873V168.362L134.524 158.812H136.702V168.11H138.789V169.697H136.702V173.77H134.798ZM134.798 168.11V163.121C134.798 162.339 134.821 161.556 134.867 160.774H134.798C134.34 161.654 133.973 162.292 133.56 162.975L129.914 168.06V168.107L134.798 168.11Z" fill="white"/>
<path d="M170.417 160.516H164.729L164.155 164.358C164.558 164.297 164.964 164.267 165.371 164.267C166.517 164.267 167.665 164.52 168.582 165.073C169.756 165.739 170.715 167.029 170.715 168.915C170.715 171.838 168.398 174.024 165.165 174.024C163.536 174.024 162.16 173.563 161.45 173.103L161.954 171.561C162.93 172.1 164.026 172.385 165.141 172.39C167.049 172.39 168.674 171.147 168.674 169.146C168.651 167.212 167.367 165.831 164.386 165.831C163.695 165.839 163.005 165.893 162.321 165.993L163.284 158.812H170.417V160.516Z" fill="white"/>
<path d="M203.33 160.24C202.823 160.217 202.315 160.248 201.815 160.332C198.651 160.86 196.974 163.184 196.632 165.648H196.701C197.124 165.099 197.67 164.656 198.296 164.356C198.921 164.056 199.608 163.907 200.301 163.921C202.942 163.921 204.797 165.828 204.797 168.754C204.797 171.492 202.939 174.024 199.843 174.024C196.655 174.024 194.561 171.539 194.561 167.649C194.561 164.703 195.618 162.379 197.085 160.9C198.323 159.679 199.974 158.921 201.855 158.69C202.34 158.615 202.831 158.577 203.322 158.576L203.33 160.24ZM202.756 168.868C202.756 166.729 201.54 165.44 199.675 165.44C198.46 165.44 197.336 166.2 196.786 167.281C196.629 167.554 196.549 167.864 196.555 168.179C196.602 170.641 197.729 172.459 199.836 172.459C201.586 172.459 202.756 171.009 202.756 168.868Z" fill="white"/>
<path d="M132.94 128.897H132.895L130.304 130.302L129.914 128.759L133.169 127.011H134.89V141.976H132.94V128.897Z" fill="white"/>
<path d="M161.519 141.969V140.726L163.1 139.184C166.915 135.548 168.627 133.609 168.651 131.359C168.651 129.841 167.917 128.437 165.693 128.437C164.339 128.437 163.215 129.128 162.528 129.703L161.885 128.275C163.069 127.287 164.563 126.749 166.105 126.757C169.315 126.757 170.668 128.966 170.668 131.107C170.668 133.868 168.674 136.095 165.533 139.137L164.34 140.242V140.289H171.036V141.969H161.519Z" fill="white"/>
<path d="M195.302 139.643C196.302 140.239 197.44 140.564 198.604 140.587C201.196 140.587 201.999 138.93 201.978 137.687C201.956 135.594 200.071 134.696 198.125 134.696H197.001V133.177H198.125C199.593 133.177 201.451 132.419 201.451 130.646C201.451 129.449 200.694 128.391 198.837 128.391C197.644 128.391 196.489 128.921 195.856 129.38L195.327 127.913C196.108 127.338 197.621 126.761 199.227 126.761C202.162 126.761 203.492 128.51 203.492 130.328C203.492 131.87 202.575 133.182 200.74 133.849V133.895C202.575 134.263 204.066 135.644 204.066 137.739C204.066 140.132 202.209 142.225 198.63 142.225C196.956 142.225 195.489 141.696 194.755 141.213L195.302 139.643Z" fill="white"/>
<path d="M133.426 238.936C134.419 238.936 135.223 238.128 135.223 237.132C135.223 236.135 134.419 235.327 133.426 235.327C132.433 235.327 131.629 236.135 131.629 237.132C131.629 238.128 132.433 238.936 133.426 238.936Z" fill="white"/>
<path d="M242.598 151.065H233.134V141.57H230.702V151.065H221.238V153.507H230.702V163.001H233.134V153.507H242.598V151.065Z" fill="white"/>
<path d="M205.385 237.104L200.376 232.076L205.385 227.049L204.097 225.756L199.088 230.783L194.077 225.756L192.789 227.049L197.8 232.076L192.789 237.104L194.077 238.396L199.088 233.368L204.097 238.396L205.385 237.104Z" fill="white"/>
<path d="M239.257 198.416H223.41V200.852H239.257V198.416Z" fill="white"/>
<path d="M239.842 226.56H223.995V228.996H239.842V226.56Z" fill="white"/>
<path d="M239.842 232.69H223.995V235.126H239.842V232.69Z" fill="white"/>
<path d="M105.188 167.689C99.9855 163.476 86.3552 169.303 84.3246 172.019C82.3277 174.692 78.2724 202.902 81.2567 204.853C84.241 206.804 93.4741 210.756 97.3152 207.27C101.156 203.783 105.188 167.689 105.188 167.689Z" fill="#20407A"/>
<path d="M108.104 166.901C108.104 166.901 116.945 162.382 118.142 160.139C119.339 157.895 124.315 150.616 124.315 150.616C124.315 150.616 126.897 150.663 127.572 151.809C126.741 154.923 124.197 163.547 120.905 166.091C117.613 168.635 108.949 173.876 108.949 173.876L108.104 166.901Z" fill="#BD6B4F"/>
<path d="M126.655 154.623C125.402 154.277 123.823 153.605 122.663 153.073C123.164 152.405 123.509 151.89 123.584 151.651C123.938 150.528 121.71 146.141 122.076 145.782C122.748 145.552 123.941 147.818 124.165 147.597C124.39 147.375 124.57 142.249 125.312 142.262C126.055 142.275 125.488 146.086 125.955 146.13C126.464 146.181 126.962 146.312 127.431 146.517C127.923 146.724 128.536 146.987 128.8 147.416C129.033 147.794 129.387 148.443 128.602 149.939C127.49 152.048 127.704 151.589 127.045 153.58C126.989 153.743 126.868 154.117 126.655 154.623Z" fill="#BD6B4F"/>
<path d="M110.068 221.079C110.068 221.079 110.338 226.597 110.338 229.961C110.338 233.326 105.156 246.513 105.628 248.397C106.101 250.281 100.746 250.024 100.746 250.024C100.746 250.024 100.38 239.784 101.759 234.94C103.139 230.095 101.759 220.137 101.759 220.137L110.068 221.079Z" fill="#BD6B4F"/>
<path d="M97.0658 218.419C97.0658 218.419 95.3272 227.539 93.9143 229.624C92.5014 231.709 84.8983 245.91 84.8983 247.723C84.8983 249.537 80.1211 248.061 80.1211 248.061C80.1211 248.061 84.1574 232.517 85.7728 227.813C86.7397 225.006 87.482 222.126 87.9926 219.201L97.0658 218.419Z" fill="#BD6B4F"/>
<path d="M111.682 206.383C112.232 209.718 117.077 226.968 117.077 226.968C109.616 229.011 88.2069 230.311 80.1959 225.149C80.1959 225.149 86.5181 201.363 90.192 196.949L97.0658 195.815L109.257 194.495C109.257 194.495 111.295 204.023 111.682 206.383Z" fill="#07085B"/>
<path d="M113.764 254.183H99.0641C99.0641 254.183 98.7619 248.868 99.7713 247.858C100.781 246.849 100.505 247.986 102.194 248.629C103.882 249.271 104.97 247.722 105.738 246.953C106.507 246.184 105.96 249.405 109.188 249.405C112.416 249.405 114.504 252.703 113.764 254.183Z" fill="#FAFCFF"/>
<path d="M85.0523 247.138C85.8123 247.312 88.2054 249.265 88.9991 251.377C89.7929 253.488 89.5669 254.242 89.5669 254.242C89.5669 254.242 87.1343 255.323 82.4657 254.976C77.797 254.628 78.5042 254.122 78.5042 254.122C78.5042 254.122 78.8373 249.318 79.6295 247.858C80.4218 246.398 83.7201 246.831 85.0523 247.138Z" fill="#FAFCFF"/>
<path d="M86.4037 187.016C86.4037 187.016 83.616 193.619 84.4582 195.922C85.3003 198.226 87.4835 206.675 87.4835 206.675C87.4835 206.675 85.6055 208.289 84.351 208.043C82.655 205.443 78.1154 198.066 78.4133 194.066C78.7111 190.067 80.4982 183.561 80.4982 183.561L86.4037 187.016Z" fill="#BD6B4F"/>
<path d="M82.9249 205.572C83.9798 204.899 85.4793 204.2 86.6076 203.712C86.7631 204.501 86.9098 205.079 87.0331 205.289C87.6097 206.263 92.1874 207.49 92.2108 207.987C92.2343 208.484 89.7166 207.987 89.7342 208.28C89.7518 208.574 93.1352 212.042 92.6451 212.566C92.1551 213.09 89.5948 209.821 89.2867 210.151C88.9786 210.481 92.0744 214.325 91.2322 214.515C90.39 214.704 88.713 210.923 88.2479 211.14C87.7828 211.357 89.5273 214.761 89.1825 215.129C88.8377 215.498 88.5032 214.689 88.044 213.784C87.5847 212.879 87.0316 211.564 86.8321 211.778C86.6325 211.992 87.3573 214.557 86.8937 214.814C86.43 215.071 84.2527 207.732 83.4208 206.515C83.2366 206.211 83.071 205.896 82.9249 205.572Z" fill="#BD6B4F"/>
<path d="M78.3986 186.359C78.3986 186.359 80.8547 189.97 86.1322 191.603C86.6736 188.753 87.2561 187.415 87.3676 187.431C87.661 187.473 88.7879 192.005 90.0541 197.158C94.2664 199.598 109.524 198.394 109.537 195.815C109.547 193.846 106.958 178.479 109.709 176.329C110.709 175.547 118.21 169.898 118.21 169.898C118.21 169.898 116.018 164.382 113.834 162.218L105.15 165.71C99.808 167.858 95.4666 168.874 92.4808 170.23C82.3204 174.849 80.4982 177.969 78.3986 186.359Z" fill="#9BC1F9"/>
<path d="M92.1419 170.383C94.9193 178.678 93.4345 193.456 89.5009 197.857C88.3682 195.118 90.5822 186.805 87.3617 172.71C87.2751 171.994 91.8602 169.617 92.1419 170.383Z" fill="#466EB6"/>
<path d="M99.6261 167.576C103.64 171.936 108.858 189.654 108.984 190.464C108.808 176.304 104.207 168.083 103.307 166.439C102.715 166.035 99.5557 167.147 99.6261 167.576Z" fill="#466EB6"/>
<path d="M99.6247 164.254C99.4545 166.813 100.178 168.923 100.593 169.755C100.593 169.755 97.9799 172.318 93.615 170.83C93.838 168.551 93.6047 165.979 92.9489 163.133L99.6247 164.254Z" fill="#BD6B4F"/>
<path d="M99.8125 167.278C99.6225 166.282 99.5594 165.266 99.6247 164.254L92.9489 163.133C93.1132 163.847 93.2511 164.544 93.3626 165.224C95.4607 166.761 97.8083 167.571 99.8125 167.278Z" fill="#A1543A"/>
<path d="M99.9885 150.993C102.398 153.216 105.806 160.689 102.954 164.153C99.337 168.543 92.9048 165.714 89.0006 160.026C85.0964 154.337 96.2765 147.566 99.9885 150.993Z" fill="#BD6B4F"/>
<path d="M92.6496 153.915C92.6496 153.915 89.8487 154 90.952 156.63C92.0553 159.261 94.0507 160.152 92.9899 161.214C92.2563 161.948 92.8784 163.506 93.21 164.367C93.3802 164.807 92.6129 163.87 91.5565 163.78C88.9874 163.559 87.1021 162.785 86.3186 159.769C86.3186 159.769 84.0239 156.61 84.6034 152.93C85.0304 150.225 87.2224 149.818 87.2224 149.818C87.2224 149.818 87.8313 148.584 90.6996 147.207C94.7506 145.26 100.823 143.929 100.823 147.67C100.825 149.999 101.821 153.416 92.6496 153.915Z" fill="#0E2E35"/>
<path d="M89.4172 151.542C85.4455 145.503 77.5886 148.301 76.7993 152.622C76.1229 156.302 73.0843 157.982 68.0313 158.189C61.1853 158.47 63.4375 168.223 67.4268 168.785C62.9973 176.268 78.1124 180.889 77.6635 173.527C83.2007 172.526 85.8241 169.477 84.7061 165.484C83.588 161.49 83.01 151.231 86.8188 153.078C90.7641 154.312 89.4172 151.542 89.4172 151.542Z" fill="#0E2E35"/>
<path d="M93.4389 159.163C93.2408 159.062 90.5412 157.876 89.7122 159.31C89.0343 160.483 90.3343 162.978 92.3532 162.978C94.372 162.978 95.983 160.469 93.4389 159.163Z" fill="#BD6B4F"/>
<path d="M99.0641 254.183C99.0641 254.183 99.0011 253.079 99.0289 251.782C100.753 252.527 110.212 252.408 113.65 252.338C113.943 253.027 114.008 253.702 113.767 254.183H99.0641Z" fill="#466EB6"/>
<path d="M82.4657 254.98C77.7955 254.638 78.5042 254.126 78.5042 254.126C78.5042 254.126 78.5805 253.02 78.7478 251.707C81.9976 254.607 87.0741 253.127 89.2955 252.263C89.7224 253.701 89.5611 254.238 89.5611 254.238C89.5611 254.238 87.1343 255.323 82.4657 254.98Z" fill="#466EB6"/>
<path d="M287.576 236.903C287.576 236.903 288.399 242.641 289.814 244.493C290.289 245.113 291.156 245.9 291.721 247.023C292.602 248.771 292.117 251.374 291.463 252.807C291.127 253.541 291.486 253.541 290.729 253.778C288.466 254.481 286.058 253.299 285.095 251.118C284.426 249.571 284.051 247.913 283.989 246.228C283.747 241.02 282.136 238.37 282.136 238.37L287.576 236.903Z" fill="#BD6B4F"/>
<path d="M262.82 239.528C262.82 239.528 262.313 245.998 262.725 248.1C262.945 249.226 264.174 251.544 263.605 252.603C263.036 253.663 262.396 253.924 262.396 253.924L247.783 254.16C246.986 254.173 247.513 253.658 248.154 253.183C249.205 252.407 250.053 251.893 253.408 250.26C253.628 250.153 254.425 249.644 254.711 249.468C255.445 249.028 256.178 248.316 256.802 247.61C257.851 246.437 257.943 240.738 257.943 240.738L262.82 239.528Z" fill="#BD6B4F"/>
<path d="M251.398 153.524C251.398 153.524 249.558 164.03 250.766 170.917C251.973 177.804 257.775 241.636 257.775 241.636L264.218 242.001C264.218 242.001 265.57 215.335 265.328 211.63C265.086 207.925 263.174 201.716 263.174 201.716L263.815 180.186L255.682 151.902L251.398 153.524Z" fill="#13375B"/>
<path d="M270.34 151.315C270.34 151.315 275.415 158.997 276.622 165.354C277.83 171.712 275.742 191.248 278.06 199.578C279.317 204.089 284.087 211.052 284.809 216.88C285.531 222.707 288.377 237.972 288.377 237.972L281.936 239.256L266.971 201.134L255.233 166.678L252.226 148.925L270.34 151.315Z" fill="#355389"/>
<path d="M284.654 249.971C288.165 250.615 290.501 248.549 291.717 247.003C292.609 248.755 293.045 251.369 292.387 252.807C291.809 254.075 290.121 254.038 288.79 254.088C287.384 254.141 286.296 253.354 285.597 252.123C285.212 251.439 284.896 250.718 284.654 249.971Z" fill="#355389"/>
<path d="M254.72 249.471C258.584 250.468 261.441 249.791 263.04 249.142C263.451 250.316 263.998 251.783 263.708 252.64C263.353 253.68 262.848 253.916 262.402 253.928C258.872 254.021 249.472 254.148 246.779 254.183C246.693 254.186 246.608 254.164 246.535 254.118C246.461 254.073 246.403 254.007 246.366 253.929C246.33 253.851 246.317 253.764 246.33 253.679C246.343 253.594 246.38 253.514 246.437 253.45C247.105 252.655 254.432 249.648 254.72 249.471Z" fill="#355389"/>
<path d="M250.108 97.197C249.922 92.6824 250.587 88.225 252.603 84.023C254.341 80.4078 258.64 78.3566 262.561 78.3508C275.01 78.3346 276.593 94.7834 284.517 101.128C286.938 103.067 289.645 104.649 291.935 106.737C300.397 114.457 296.585 128.745 288.816 135.514C283.426 140.21 274.953 142.88 268.309 139.209C264.841 137.291 262.207 134.106 260.332 130.615C257.669 125.662 255.954 119.946 254.06 114.666C252.047 109.046 250.358 103.196 250.108 97.197Z" fill="#0E2E35"/>
<path d="M256.137 111.395C256.137 111.395 258.044 114.086 257.249 118.109C256.454 122.132 244.404 134.564 242.894 135.363C241.249 136.233 240.241 135.893 239.503 135.473C233.152 131.857 224.178 112.604 223.137 111.232L222.223 110.029L223.103 106.791L240.658 126.092C240.658 126.092 255.009 110.056 256.137 111.395Z" fill="#BD6B4F"/>
<path d="M258.256 108.075C258.256 108.075 256.893 108.624 256.479 108.883C253.682 110.634 244.515 120.621 244.515 120.621C244.515 120.621 249.34 125.805 251.476 128.02L263.674 118.844L258.256 108.075Z" fill="#6E9DE0"/>
<path d="M266.912 106.352C266.912 106.352 274.077 105.897 276.911 108.98C279.746 112.063 270.623 136.452 270.108 140.378C269.593 144.304 272.736 154.735 272.736 154.735C272.736 154.735 255.905 158.109 251.096 154.939C251.096 154.939 250.579 126.722 251.096 123.919C251.612 121.117 255.898 109.727 256.935 108.599C257.973 107.47 266.912 106.352 266.912 106.352Z" fill="#9BC1F9"/>
<path d="M264.519 96.8023L264.623 97.3716C264.943 99.0897 266.173 104.793 267.005 106.36C268.008 108.254 263.566 114.297 259.29 113.559C258.018 113.339 260.366 108.007 260.253 107.442C260.037 106.361 259.744 104.887 259.444 103.374C259.275 102.521 259.104 101.656 258.944 100.843C258.486 98.5322 258.113 96.6424 258.113 96.6424L264.519 96.8023Z" fill="#BD6B4F"/>
<path d="M264.623 97.3716L264.519 96.8023L258.109 96.6424C258.109 96.6424 258.482 98.5322 258.939 100.843C259.099 101.651 259.27 102.511 259.437 103.359C260.426 103.213 261.46 102.734 262.496 101.829C263.555 100.905 264.354 99.7188 264.813 98.3898C264.739 97.9893 264.673 97.6372 264.623 97.3716Z" fill="#A1543A"/>
<path d="M260.207 82.2682C260.207 82.2682 263.227 81.9205 265.121 84.3634C267.015 86.8062 269.053 94.3624 264.352 98.4705C259.651 102.579 255.003 97.9276 254.313 92.9978C253.624 88.068 253.357 82.0906 260.207 82.2682Z" fill="#BD6B4F"/>
<path d="M252.922 92.9259C253.484 94.0146 254.426 94.6176 255.028 94.2714C255.629 93.9251 255.66 92.7645 255.098 91.6759C254.536 90.5872 253.596 89.9842 252.994 90.329C252.393 90.6738 252.362 91.8358 252.922 92.9259Z" fill="#BD6B4F"/>
<path d="M259.87 81.4597C259.87 81.4597 263.905 88.649 266.79 88.9777C269.676 89.3063 270.055 93.1269 270.055 93.1269C270.055 93.1269 269.028 84.3237 266.167 82.6335C263.306 80.9433 259.87 81.4597 259.87 81.4597Z" fill="#0E2E35"/>
<path d="M266.032 90.7824C265.797 92.0588 266.262 93.2854 267.08 93.4527C267.897 93.6199 268.757 92.6663 268.987 91.3898C269.217 90.1133 268.749 88.944 267.932 88.7752C267.115 88.6065 266.268 89.5074 266.032 90.7824Z" fill="#BD6B4F"/>
<path d="M246.358 151.56L265.317 152.04L266.295 125.739L246.222 125.803L246.358 151.56Z" fill="#F47458"/>
<path d="M246.305 136.989C246.352 136.886 247.796 137.599 248.93 137.348C249.158 137.299 248.32 136.615 248.208 136.405C248.194 136.379 246.512 135.316 246.653 134.59C246.794 133.864 248.238 134.332 248.238 134.332C248.238 134.332 252.324 136.217 252.902 136.798C253.229 137.12 253.517 137.479 253.759 137.869C253.964 137.937 254.175 137.989 254.388 138.025C258.147 138.508 264.286 137.651 273.639 136.181L273.651 131.273C275.632 131.39 279.09 131.045 280.685 130.866C280.601 134.609 280.648 141.1 279.847 142.338C279.287 143.207 274.35 143.791 268.855 144.211C261.855 144.748 260.019 144.347 253.941 143.917C252.099 143.781 249.57 144.343 248.609 144.349C247.181 144.357 246.68 144.517 245.958 143.762C245.349 143.129 245.421 141.571 245.518 140.607C245.713 138.792 245.773 138.092 246.305 136.989Z" fill="#BD6B4F"/>
<path d="M273.406 107.03C273.406 107.03 277.45 107.773 279.413 111.372C280.708 113.746 282.089 124.738 281.664 132.909C278.926 132.322 274.328 132.222 271.518 132.212C271.625 124.889 272.03 106.793 273.406 107.03Z" fill="#6E9DE0"/>
<path d="M236.568 122.323C236.568 122.323 226.924 110.386 225.031 108.511C223.138 106.636 215.422 101.16 215.201 101.738C214.979 102.316 219.39 106.625 219.328 106.785C219.266 106.945 218.555 108.18 218.301 108.839C218.047 109.498 217.98 111.077 218.197 111.567C218.414 112.057 219.979 112.887 220.861 113.231C221.743 113.574 223.011 113.389 224.066 114.332C225.12 115.276 233.528 127.737 233.528 127.737L236.568 122.323Z" fill="#BD6B4F"/>
</svg>
