<svg width="355" height="218" viewBox="0 0 355 218" fill="none" xmlns="http://www.w3.org/2000/svg">
<path d="M19.8152 217.313L132.839 216.726L162.966 216.718H172.947L203.132 216.709L341.034 216.671C341.034 216.671 372.576 176.224 338.883 137.808C303.95 97.9745 286.97 130.417 276.226 74.3467C249.197 -66.7738 -18.0323 15.3609 52.0596 135.452C77.298 178.692 2.37566 155.71 19.8152 217.313Z" fill="#EBF3FA"/>
<path d="M123.791 187.861L123.181 187.525C122.867 187.353 122.634 187.064 122.534 186.721C122.433 186.378 122.473 186.009 122.644 185.695L125.453 180.568C125.625 180.254 125.914 180.022 126.257 179.922C126.6 179.821 126.969 179.861 127.283 180.033L128.159 180.512C128.216 180.547 128.259 180.603 128.276 180.668C128.294 180.733 128.286 180.803 128.254 180.863C128.222 180.922 128.168 180.967 128.104 180.988C128.04 181.009 127.97 181.005 127.908 180.976L127.033 180.496C126.842 180.391 126.617 180.367 126.408 180.428C126.199 180.489 126.023 180.631 125.918 180.822L123.111 185.949C123.006 186.14 122.982 186.364 123.043 186.573C123.104 186.782 123.245 186.958 123.436 187.063L124.047 187.398C124.238 187.502 124.463 187.526 124.672 187.465C124.881 187.404 125.057 187.262 125.161 187.071L127.026 183.668C127.04 183.634 127.062 183.605 127.089 183.58C127.115 183.555 127.147 183.536 127.182 183.524C127.216 183.513 127.253 183.508 127.289 183.511C127.325 183.514 127.361 183.525 127.393 183.542C127.425 183.559 127.453 183.583 127.475 183.612C127.498 183.641 127.514 183.674 127.523 183.709C127.532 183.744 127.533 183.781 127.528 183.817C127.522 183.853 127.508 183.887 127.488 183.918L125.625 187.322C125.54 187.478 125.425 187.615 125.287 187.727C125.149 187.838 124.99 187.921 124.82 187.972C124.649 188.022 124.471 188.038 124.294 188.019C124.118 187.999 123.947 187.946 123.791 187.861Z" fill="#AFCDFB"/>
<path d="M121.189 193.245L120.093 192.646C119.076 192.088 118.734 190.749 119.331 189.659L123.552 181.95C123.567 181.916 123.588 181.886 123.615 181.862C123.642 181.837 123.673 181.818 123.708 181.806C123.742 181.795 123.779 181.79 123.815 181.793C123.852 181.796 123.887 181.807 123.919 181.824C123.951 181.841 123.979 181.865 124.002 181.894C124.024 181.922 124.04 181.956 124.049 181.991C124.058 182.026 124.06 182.063 124.054 182.099C124.048 182.135 124.035 182.169 124.015 182.2L119.79 189.912C119.333 190.746 119.581 191.766 120.342 192.182L121.439 192.782C122.2 193.2 123.189 192.86 123.648 192.032L128.457 183.25C128.914 182.416 128.666 181.397 127.905 180.981C127.847 180.946 127.805 180.89 127.787 180.824C127.769 180.759 127.777 180.689 127.809 180.63C127.841 180.57 127.895 180.525 127.959 180.504C128.024 180.483 128.094 180.488 128.155 180.517C129.173 181.075 129.514 182.414 128.918 183.504L124.11 192.285C123.518 193.369 122.205 193.802 121.189 193.245Z" fill="#AFCDFB"/>
<path opacity="0.6" d="M226.73 34.4973H92.2479C88.9421 34.4973 86.2622 37.1772 86.2622 40.483V153.355C86.2622 156.661 88.9421 159.341 92.2479 159.341H226.73C230.036 159.341 232.716 156.661 232.716 153.355V40.483C232.716 37.1772 230.036 34.4973 226.73 34.4973Z" fill="white"/>
<path d="M90.7312 34.4973H228.247C229.432 34.4973 230.569 34.9681 231.407 35.8062C232.245 36.6443 232.716 37.781 232.716 38.9662V48.3443H86.2622V38.9662C86.2622 37.781 86.733 36.6443 87.5711 35.8062C88.4092 34.9681 89.5459 34.4973 90.7312 34.4973Z" fill="#699DEE"/>
<path d="M92.1854 41.3395C92.1854 41.0118 92.2826 40.6914 92.4647 40.4189C92.6468 40.1464 92.9056 39.9341 93.2084 39.8087C93.5112 39.6834 93.8444 39.6506 94.1658 39.7147C94.4873 39.7787 94.7825 39.9366 95.0141 40.1684C95.2458 40.4003 95.4035 40.6956 95.4673 41.0171C95.5311 41.3385 95.4981 41.6717 95.3725 41.9744C95.2469 42.2771 95.0343 42.5358 94.7617 42.7177C94.4891 42.8996 94.1686 42.9966 93.8409 42.9963C93.6234 42.9963 93.408 42.9535 93.2071 42.8702C93.0061 42.7869 92.8236 42.6648 92.6698 42.511C92.5161 42.3571 92.3941 42.1745 92.311 41.9735C92.2279 41.7725 92.1852 41.557 92.1854 41.3395Z" fill="#DDE7FE"/>
<path d="M99.1365 41.3395C99.1365 41.0118 99.2336 40.6915 99.4157 40.4191C99.5977 40.1466 99.8565 39.9342 100.159 39.8088C100.462 39.6834 100.795 39.6506 101.116 39.7146C101.438 39.7785 101.733 39.9363 101.965 40.168C102.197 40.3997 102.354 40.6949 102.418 41.0163C102.482 41.3377 102.449 41.6708 102.324 41.9736C102.199 42.2763 101.986 42.535 101.714 42.7171C101.441 42.8991 101.121 42.9963 100.793 42.9963C100.354 42.9963 99.9324 42.8218 99.6217 42.5111C99.311 42.2003 99.1365 41.7789 99.1365 41.3395Z" fill="#DDE7FE"/>
<path d="M106.087 41.3395C106.087 41.0118 106.185 40.6915 106.367 40.4191C106.549 40.1466 106.808 39.9342 107.11 39.8088C107.413 39.6834 107.746 39.6506 108.068 39.7146C108.389 39.7785 108.684 39.9363 108.916 40.168C109.148 40.3997 109.305 40.6949 109.369 41.0163C109.433 41.3377 109.4 41.6708 109.275 41.9736C109.15 42.2763 108.937 42.535 108.665 42.7171C108.392 42.8991 108.072 42.9963 107.744 42.9963C107.305 42.9963 106.883 42.8218 106.573 42.5111C106.262 42.2003 106.087 41.7789 106.087 41.3395Z" fill="#DDE7FE"/>
<path opacity="0.5" d="M139.383 59.3417H97.8685V100.857H139.383V59.3417Z" fill="#CDE0FB"/>
<path opacity="0.5" d="M183.693 62.4365H150.675C150.259 62.4365 149.859 62.2712 149.565 61.9769C149.271 61.6826 149.105 61.2834 149.105 60.8672C149.105 60.6612 149.146 60.4572 149.225 60.2669C149.304 60.0766 149.419 59.9037 149.565 59.758C149.711 59.6124 149.884 59.4969 150.074 59.4182C150.265 59.3395 150.469 59.299 150.675 59.2992H183.696C183.902 59.299 184.106 59.3395 184.296 59.4182C184.486 59.4969 184.66 59.6124 184.805 59.758C184.951 59.9037 185.067 60.0766 185.145 60.2669C185.224 60.4572 185.265 60.6612 185.265 60.8672C185.265 61.0735 185.224 61.2778 185.145 61.4683C185.066 61.6589 184.95 61.832 184.804 61.9778C184.658 62.1235 184.485 62.239 184.294 62.3178C184.104 62.3965 183.899 62.4368 183.693 62.4365Z" fill="#7C9AF2"/>
<path opacity="0.5" d="M223.181 60.3321H190.159C189.744 60.3317 189.346 60.1669 189.052 59.8738C188.758 59.5806 188.592 59.1829 188.591 58.7678C188.591 58.352 188.757 57.9534 189.051 57.6594C189.345 57.3654 189.743 57.2001 190.159 57.1998H223.181C223.597 57.1998 223.996 57.3649 224.29 57.659C224.585 57.953 224.75 58.3518 224.751 58.7678C224.749 59.1831 224.583 59.581 224.289 59.8742C223.995 60.1674 223.597 60.3321 223.181 60.3321Z" fill="#7C9AF2"/>
<g opacity="0.3">
<path d="M190.23 74.5143H150.12C149.986 74.5143 149.854 74.488 149.731 74.4369C149.607 74.3858 149.495 74.3109 149.401 74.2165C149.306 74.1221 149.231 74.01 149.18 73.8867C149.129 73.7634 149.103 73.6312 149.103 73.4977C149.103 73.3642 149.129 73.232 149.18 73.1086C149.231 72.9853 149.306 72.8732 149.401 72.7788C149.495 72.6844 149.607 72.6096 149.731 72.5585C149.854 72.5074 149.986 72.4811 150.12 72.4811H190.23C190.5 72.4811 190.759 72.5882 190.949 72.7788C191.14 72.9695 191.247 73.2281 191.247 73.4977C191.247 73.7673 191.14 74.0259 190.949 74.2165C190.759 74.4071 190.5 74.5143 190.23 74.5143Z" fill="#BDD1F9"/>
<path d="M205.478 74.5143H194.889C194.62 74.5143 194.361 74.4071 194.171 74.2165C193.98 74.0259 193.873 73.7673 193.873 73.4977C193.873 73.228 193.98 72.9695 194.171 72.7788C194.361 72.5882 194.62 72.4811 194.889 72.4811H205.478C205.748 72.4811 206.006 72.5882 206.197 72.7788C206.387 72.9695 206.494 73.228 206.494 73.4977C206.494 73.7673 206.387 74.0259 206.197 74.2165C206.006 74.4071 205.748 74.5143 205.478 74.5143Z" fill="#BDD1F9"/>
<path d="M165.253 80.8213H150.123C149.99 80.8213 149.858 80.7951 149.734 80.744C149.611 80.6929 149.499 80.618 149.404 80.5236C149.31 80.4292 149.235 80.3171 149.184 80.1938C149.133 80.0704 149.107 79.9383 149.107 79.8048C149.107 79.6713 149.133 79.5391 149.184 79.4157C149.235 79.2924 149.31 79.1803 149.404 79.0859C149.499 78.9915 149.611 78.9166 149.734 78.8656C149.858 78.8145 149.99 78.7882 150.123 78.7882H165.253C165.523 78.7882 165.782 78.8952 165.973 79.0858C166.163 79.2765 166.271 79.535 166.271 79.8048C166.271 80.0745 166.163 80.3331 165.973 80.5237C165.782 80.7143 165.523 80.8213 165.253 80.8213Z" fill="#BDD1F9"/>
<path d="M189.766 80.8213H169.028C168.759 80.8213 168.5 80.7142 168.309 80.5236C168.119 80.3329 168.012 80.0744 168.012 79.8048C168.012 79.5351 168.119 79.2766 168.309 79.0859C168.5 78.8953 168.759 78.7882 169.028 78.7882H189.766C190.036 78.7882 190.295 78.8953 190.485 79.0859C190.676 79.2766 190.783 79.5351 190.783 79.8048C190.783 80.0744 190.676 80.3329 190.485 80.5236C190.295 80.7142 190.036 80.8213 189.766 80.8213Z" fill="#BDD1F9"/>
<path d="M205.478 80.8213H194.889C194.62 80.8213 194.361 80.7142 194.171 80.5236C193.98 80.3329 193.873 80.0744 193.873 79.8048C193.873 79.5351 193.98 79.2766 194.171 79.0859C194.361 78.8953 194.62 78.7882 194.889 78.7882H205.478C205.748 78.7882 206.006 78.8953 206.197 79.0859C206.387 79.2766 206.494 79.5351 206.494 79.8048C206.494 80.0744 206.387 80.3329 206.197 80.5236C206.006 80.7142 205.748 80.8213 205.478 80.8213Z" fill="#BDD1F9"/>
<path d="M170.655 86.2769H150.12C149.986 86.2769 149.854 86.2506 149.731 86.1995C149.607 86.1484 149.495 86.0735 149.401 85.9791C149.306 85.8847 149.231 85.7727 149.18 85.6493C149.129 85.526 149.103 85.3938 149.103 85.2603C149.103 85.1268 149.129 84.9946 149.18 84.8713C149.231 84.7479 149.306 84.6359 149.401 84.5415C149.495 84.4471 149.607 84.3722 149.731 84.3211C149.854 84.27 149.986 84.2437 150.12 84.2437H170.655C170.925 84.2437 171.183 84.3508 171.374 84.5415C171.565 84.7321 171.672 84.9907 171.672 85.2603C171.672 85.5299 171.565 85.7885 171.374 85.9791C171.183 86.1698 170.925 86.2769 170.655 86.2769Z" fill="#BDD1F9"/>
<path d="M209.869 86.2769H176.283C176.014 86.2769 175.755 86.1698 175.564 85.9791C175.374 85.7885 175.267 85.5299 175.267 85.2603C175.267 84.9907 175.374 84.7321 175.564 84.5415C175.755 84.3508 176.014 84.2437 176.283 84.2437H209.869C210.139 84.2437 210.398 84.3508 210.588 84.5415C210.779 84.7321 210.886 84.9907 210.886 85.2603C210.886 85.5299 210.779 85.7885 210.588 85.9791C210.398 86.1698 210.139 86.2769 209.869 86.2769Z" fill="#BDD1F9"/>
</g>
<g opacity="0.3">
<path d="M190.23 94.5496H150.12C149.986 94.5496 149.854 94.5233 149.731 94.4723C149.607 94.4212 149.495 94.3463 149.401 94.2519C149.306 94.1575 149.231 94.0454 149.18 93.9221C149.129 93.7988 149.103 93.6666 149.103 93.5331C149.103 93.3996 149.129 93.2674 149.18 93.144C149.231 93.0207 149.306 92.9086 149.401 92.8142C149.495 92.7198 149.607 92.6449 149.731 92.5939C149.854 92.5428 149.986 92.5165 150.12 92.5165H190.23C190.5 92.5165 190.759 92.6236 190.949 92.8142C191.14 93.0049 191.247 93.2634 191.247 93.5331C191.247 93.8027 191.14 94.0612 190.949 94.2519C190.759 94.4425 190.5 94.5496 190.23 94.5496Z" fill="#BDD1F9"/>
<path d="M205.478 94.5496H194.889C194.62 94.5496 194.361 94.4425 194.171 94.2519C193.98 94.0612 193.873 93.8027 193.873 93.5331C193.873 93.2634 193.98 93.0049 194.171 92.8142C194.361 92.6236 194.62 92.5165 194.889 92.5165H205.478C205.748 92.5165 206.006 92.6236 206.197 92.8142C206.387 93.0049 206.494 93.2634 206.494 93.5331C206.494 93.8027 206.387 94.0612 206.197 94.2519C206.006 94.4425 205.748 94.5496 205.478 94.5496Z" fill="#BDD1F9"/>
<path d="M165.253 100.857H150.123C149.99 100.857 149.858 100.83 149.734 100.779C149.611 100.728 149.499 100.653 149.404 100.559C149.31 100.465 149.235 100.353 149.184 100.229C149.133 100.106 149.107 99.9736 149.107 99.8401C149.107 99.7066 149.133 99.5745 149.184 99.4511C149.235 99.3278 149.31 99.2157 149.404 99.1213C149.499 99.0269 149.611 98.952 149.734 98.9009C149.858 98.8499 149.99 98.8236 150.123 98.8236H165.253C165.523 98.8236 165.782 98.9306 165.973 99.1212C166.163 99.3118 166.271 99.5704 166.271 99.8401C166.271 100.11 166.163 100.368 165.973 100.559C165.782 100.75 165.523 100.857 165.253 100.857Z" fill="#BDD1F9"/>
<path d="M189.766 100.857H169.028C168.759 100.857 168.5 100.75 168.309 100.559C168.119 100.368 168.012 100.11 168.012 99.8401C168.012 99.5705 168.119 99.312 168.309 99.1213C168.5 98.9307 168.759 98.8236 169.028 98.8236H189.766C190.036 98.8236 190.295 98.9307 190.485 99.1213C190.676 99.312 190.783 99.5705 190.783 99.8401C190.783 100.11 190.676 100.368 190.485 100.559C190.295 100.75 190.036 100.857 189.766 100.857Z" fill="#BDD1F9"/>
</g>
<path d="M116.482 65.53H120.77L132.354 92.0388H127.465L124.791 85.6892H112.346L109.637 92.0451H104.9L116.482 65.53ZM123.102 81.5891L118.552 71.0594L114.038 81.5891H123.102Z" fill="#BDD1F9"/>
<path d="M121.059 109.219H97.8685V113.696H121.059V109.219Z" fill="#F99746"/>
<path d="M121.059 113.696H97.8685V118.172H121.059V113.696Z" fill="#ED7D2B"/>
<path d="M121.059 118.174H97.8685V122.65H121.059V118.174Z" fill="#474FEA"/>
<path d="M138.147 111.754H125.393C125.265 111.755 125.138 111.731 125.019 111.683C124.9 111.635 124.793 111.564 124.702 111.474C124.611 111.383 124.539 111.276 124.49 111.158C124.441 111.04 124.416 110.913 124.416 110.785C124.416 110.529 124.518 110.283 124.699 110.102C124.88 109.92 125.126 109.818 125.383 109.818H138.137C138.393 109.818 138.639 109.92 138.82 110.102C139.002 110.283 139.103 110.529 139.103 110.785C139.104 111.04 139.004 111.285 138.825 111.467C138.646 111.648 138.402 111.751 138.147 111.754Z" fill="#BDD1F9"/>
<path d="M133.848 115.161H125.386C125.13 115.161 124.884 115.06 124.703 114.878C124.522 114.697 124.42 114.451 124.42 114.195C124.42 113.939 124.522 113.693 124.703 113.511C124.884 113.33 125.13 113.228 125.386 113.228H133.848C134.104 113.228 134.35 113.33 134.531 113.511C134.713 113.693 134.814 113.939 134.814 114.195C134.814 114.451 134.713 114.697 134.531 114.878C134.35 115.06 134.104 115.161 133.848 115.161Z" fill="#BDD1F9"/>
<path d="M121.059 132.367H97.8685V141.515H121.059V132.367Z" fill="#F99746"/>
<path d="M121.059 139.256H97.8685V145.798H121.059V139.256Z" fill="#B5453C"/>
<path d="M97.8685 132.367L106.189 139.356L97.8685 145.799V132.367Z" fill="#474FEA"/>
<path d="M138.147 134.902H125.393C125.136 134.902 124.89 134.8 124.709 134.619C124.528 134.437 124.426 134.192 124.426 133.935C124.426 133.808 124.451 133.683 124.5 133.565C124.548 133.448 124.619 133.341 124.709 133.252C124.799 133.162 124.905 133.091 125.023 133.042C125.14 132.994 125.266 132.969 125.393 132.969H138.147C138.274 132.969 138.399 132.994 138.517 133.042C138.634 133.091 138.741 133.162 138.83 133.252C138.92 133.341 138.991 133.448 139.04 133.565C139.088 133.683 139.113 133.808 139.113 133.935C139.113 134.192 139.012 134.437 138.83 134.619C138.649 134.8 138.403 134.902 138.147 134.902Z" fill="#BDD1F9"/>
<path d="M133.848 138.31H125.386C125.13 138.31 124.884 138.209 124.703 138.027C124.522 137.846 124.42 137.6 124.42 137.344C124.42 137.087 124.522 136.841 124.703 136.66C124.884 136.478 125.13 136.376 125.386 136.376H133.848C134.104 136.376 134.35 136.478 134.531 136.66C134.713 136.841 134.814 137.087 134.814 137.344C134.814 137.6 134.713 137.846 134.531 138.027C134.35 138.209 134.104 138.31 133.848 138.31Z" fill="#BDD1F9"/>
<path d="M234.195 45.8023C234.195 45.8023 234.799 53.0009 233.158 52.8921C231.518 52.7833 228.282 49.6148 221.746 50.1299C215.21 50.6451 207.216 52.0743 202.383 43.5227C197.55 34.9712 208.569 32.5091 208.569 32.5091L234.202 45.8023H234.195Z" fill="#233862"/>
<path d="M220.304 45.2758L253.23 47.983L253.915 46.5187L222.347 23.2173L190.46 19.491L189.848 20.8027L220.304 45.2758Z" fill="#2B478B"/>
<path d="M242.711 70.0728C242.642 69.8299 242.502 69.6132 242.31 69.4498C242.117 69.2865 241.88 69.184 241.629 69.1553C241.378 69.1266 241.124 69.1729 240.9 69.2885C240.675 69.404 240.49 69.5836 240.368 69.8044C240.245 70.0253 240.191 70.2775 240.212 70.5292C240.233 70.7809 240.328 71.0208 240.485 71.2184C240.642 71.4161 240.854 71.5627 241.095 71.6396C241.335 71.7166 241.593 71.7205 241.836 71.6508C242.161 71.5575 242.436 71.3388 242.6 71.0429C242.765 70.747 242.804 70.3981 242.711 70.0728Z" fill="#F99746"/>
<path d="M241.614 70.4266C242.935 70.3241 243.239 82.3406 243.239 82.3406C243.239 82.3406 242.379 82.7457 241.955 82.6507C241.531 82.5557 241.316 80.9326 241.316 80.9326L241.275 82.6344C241.275 82.6344 239.827 82.6845 239.324 82.3318C239.324 82.3318 239.52 70.5905 241.61 70.4266H241.614Z" fill="#F99746"/>
<path d="M242.045 70.698L241.806 44.4443L241.636 44.3168L224.437 31.595L223.819 32.4303L240.847 45.0257L241.231 70.6517L242.045 70.698Z" fill="#F99746"/>
<path d="M191.9 167.075H264.475C267.292 167.075 269.993 168.194 271.985 170.186C273.977 172.178 275.096 174.879 275.096 177.696V183.698C275.096 186.579 273.952 189.342 271.914 191.379C269.877 193.416 267.114 194.56 264.234 194.56H191.9V167.075Z" fill="#FCECDB"/>
<path d="M337.148 178.382V182.516C337.155 184.631 336.63 186.714 335.622 188.573C333.673 192.152 330.048 194.556 325.897 194.556H189.671C188.77 194.556 188.046 193.775 188.046 192.806V192.181C188.046 191.218 188.776 190.43 189.671 190.43H272.715C273.163 189.844 273.554 189.216 273.881 188.555C274.686 186.921 275.102 185.124 275.097 183.303V178.051C275.098 177.109 274.985 176.17 274.761 175.255C274.402 173.781 273.749 172.395 272.84 171.18H189.671C188.77 171.18 188.046 170.399 188.046 169.429V168.812C188.046 167.848 188.776 167.061 189.671 167.061H326.583C331.408 167.061 335.477 170.524 336.74 175.254C337.013 176.274 337.15 177.326 337.148 178.382Z" fill="#699DEE"/>
<path d="M336.736 175.266H274.76C274.402 173.789 273.749 172.398 272.84 171.18H189.671C188.77 171.18 188.046 170.399 188.046 169.429V168.812C188.046 167.848 188.776 167.061 189.671 167.061H326.583C331.408 167.074 335.477 170.536 336.736 175.266Z" fill="#548EE2"/>
<path d="M191.9 180.816L201.987 181.278L191.9 181.556V180.816Z" fill="#F4D2B8"/>
<path d="M191.9 185.128L215.896 185.59L191.9 185.869V185.128Z" fill="#F4D2B8"/>
<path d="M252.338 215.877H181.33C178.611 215.877 176.003 214.797 174.08 212.874C172.157 210.951 171.076 208.343 171.076 205.624V204.138C171.076 201.585 172.091 199.136 173.897 197.33C175.702 195.525 178.151 194.51 180.705 194.51H252.338V215.892V215.877Z" fill="#F99746"/>
<path d="M329.845 215.877H248.917C247.602 215.877 246.3 215.618 245.084 215.115C243.869 214.612 242.765 213.874 241.835 212.944C240.905 212.014 240.167 210.91 239.664 209.694C239.161 208.479 238.902 207.177 238.902 205.861V204.295C238.902 201.697 239.933 199.206 241.77 197.369C243.607 195.532 246.098 194.5 248.696 194.5H329.848V215.882L329.845 215.877Z" fill="#FCECDB"/>
<path d="M233.553 215.877H332.575C333.397 215.877 334.063 215.211 334.063 214.389V214.168C334.063 213.346 333.397 212.68 332.575 212.68H233.553C232.732 212.68 232.065 213.346 232.065 214.168V214.389C232.065 215.211 232.732 215.877 233.553 215.877Z" fill="#F99746"/>
<path d="M233.553 197.698H332.575C333.397 197.698 334.063 197.031 334.063 196.21V195.988C334.063 195.166 333.397 194.5 332.575 194.5H233.553C232.732 194.5 232.065 195.166 232.065 195.988V196.21C232.065 197.031 232.732 197.698 233.553 197.698Z" fill="#F99746"/>
<path d="M329.845 205.188L318.819 205.548L329.845 205.764V205.188Z" fill="#F4D2B8"/>
<path d="M329.845 200.268L303.614 200.627L329.845 200.844V200.268Z" fill="#F4D2B8"/>
<path d="M303.884 200.556C304.611 201.201 305.133 202.045 305.385 202.984C305.454 203.261 305.493 203.544 305.501 203.83C305.563 205.83 305.501 210.374 305.501 210.374L308.821 208.105L312.131 210.374V204.222C312.131 203.058 311.847 201.926 311.319 201.185C311.069 200.826 310.754 200.56 310.403 200.56L303.884 200.556Z" fill="#699DEE"/>
<path d="M303.884 200.556C304.611 201.201 305.133 202.045 305.385 202.984L312.036 203.074C312.036 203.074 311.774 200.912 310.403 200.556H303.884Z" fill="#568CDB"/>
<path d="M173.647 135.725H243.796C246.774 135.725 249.63 136.908 251.736 139.014C253.842 141.12 255.026 143.976 255.026 146.954V155.649C255.026 158.694 253.816 161.615 251.662 163.769C249.508 165.923 246.587 167.132 243.542 167.132H173.647V135.725Z" fill="#FCECDB"/>
<path d="M255.061 147.911V154.675C255.043 157.562 253.705 160.066 251.738 161.406C250.776 162.072 249.634 162.432 248.463 162.438H171.507C170.605 162.438 169.874 163.314 169.874 164.389V165.178C169.874 166.256 170.605 167.129 171.507 167.129H304.451C308.266 167.129 311.636 164.864 313.672 161.398C315.025 159.052 315.728 156.389 315.709 153.682V148.349C315.716 146.468 315.36 144.603 314.66 142.857C312.95 138.634 309.33 135.722 305.138 135.722H171.507C170.605 135.722 169.874 136.597 169.874 137.67V138.468C169.874 139.546 170.605 140.419 171.507 140.419H248.698C250.543 140.419 252.213 141.356 253.38 142.857C254.479 144.312 255.069 146.088 255.061 147.911Z" fill="#AFCDFB"/>
<path d="M169.874 164.385V165.178C169.874 166.256 170.605 167.129 171.507 167.129H304.451C308.266 167.129 311.635 164.864 313.672 161.398H251.738C250.776 162.065 249.634 162.425 248.463 162.431H171.507C170.605 162.435 169.874 163.302 169.874 164.385Z" fill="#A4C4F4"/>
<path d="M173.647 151.428L183.513 151.956L173.647 152.275V151.428Z" fill="#F4D2B8"/>
<path d="M173.647 144.201L197.119 144.729L173.647 145.046V144.201Z" fill="#F4D2B8"/>
<path d="M196.876 144.624C196.876 144.624 195.328 145.624 194.814 147.257C194.72 147.554 194.666 147.861 194.654 148.172C194.569 150.347 194.654 155.27 194.654 155.27L190.082 152.809L185.52 155.27V148.599C185.52 147.337 185.911 146.109 186.638 145.306C186.99 144.916 187.418 144.624 187.901 144.624H196.876Z" fill="#F99746"/>
<path d="M196.876 144.624C196.876 144.624 195.328 145.624 194.814 147.257L185.65 147.355C185.65 147.355 186.01 145.01 187.901 144.624H196.876Z" fill="#ED7D2B"/>
<path d="M80.0563 164.354C80.0563 164.354 94.3811 170.596 96.9819 170.481C99.5828 170.366 115.606 165.604 115.606 165.604L115.198 168.355C115.198 168.355 102.833 175.468 98.5087 175.872C94.2573 176.268 79.6987 172.052 78.2933 171.16C76.8878 170.268 75.9725 165.256 80.0563 164.354Z" fill="#ED985F"/>
<path d="M77.9007 141.394C77.9007 141.394 72.6164 140.394 69.9843 142.312C65.219 145.797 64.9626 157.801 63.1758 159.586C61.389 161.372 57.0813 160.612 56.6974 169.863C56.3135 179.115 58.413 179.89 55.9134 184.021C53.4138 188.151 56.97 192.285 56.97 192.285C56.97 192.285 55.5183 190.005 56.1435 188.359C56.1435 188.359 56.7499 191.986 59.0569 192.842C61.3639 193.699 61.7053 194.318 62.0742 195.567C62.0742 195.567 81.7595 185.48 81.7807 178.325C81.802 171.17 85.657 164.084 83.7626 160.984C83.7626 160.984 84.6054 162.31 84.7079 163.785C84.7079 163.785 85.8433 161.611 83.8764 159.586C81.9095 157.562 86.1834 153.372 85.5507 148.519C85.1106 145.188 82.7773 141.545 77.9007 141.394Z" fill="#233862"/>
<path d="M81.7969 171.171C80.539 172.047 78.961 172.763 76.9803 173.221C69.5566 174.935 66.7119 168.662 65.6428 164.354C66.4189 163.925 67.2756 163.662 68.1587 163.581C68.6951 163.519 69.259 163.476 69.7267 163.456C70.5607 162.818 71.8024 160.205 72.0775 156.148L72.4263 156.241L78.2758 157.839C78.2758 157.839 78.0082 159.699 77.8769 161.457C77.7743 162.832 77.7593 164.146 78.0194 164.469C78.4758 164.568 78.7497 164.633 78.7497 164.633C79.9724 166.71 80.9928 168.899 81.7969 171.171Z" fill="#FFB27D"/>
<path d="M78.2758 157.841C78.2758 157.841 78.0069 159.699 77.8769 161.458C74.562 161.125 73.024 157.971 72.4251 156.239L78.2758 157.841Z" fill="#ED985F"/>
<path d="M79.2673 159.586C79.2673 159.586 71.3997 159.152 71.7449 154.257C72.09 149.362 71.3085 146.004 76.3464 146.078C81.3843 146.152 82.2233 148.079 82.5097 149.748C82.796 151.417 81.323 159.572 79.2673 159.586Z" fill="#FFB27D"/>
<path d="M82.4709 147.008C81.3618 145.449 80.4202 145.707 79.875 146.112C75.7487 143.443 72.7302 146.737 72.7302 146.737C71.9524 150.212 69.2753 152.041 69.2753 152.041C69.2753 152.041 70.6507 153.029 74.0068 152.416C75.0347 152.229 75.9862 151.576 76.814 150.762C75.8407 152.121 74.6863 153.341 73.3829 154.388C77.458 152.848 79.4349 147.476 79.6349 146.907C80.0838 147.372 80.9616 148.376 81.1842 149.314C81.4868 150.588 82.791 152.581 83.545 152.548C83.545 152.549 84.1339 149.348 82.4709 147.008Z" fill="#233862"/>
<path d="M63.402 187.167C62.6918 183.54 60.3748 169.023 62.6918 164.354C63.5233 162.676 66.7882 162.525 70.3706 162.672C71.4847 163.392 75.7324 166.111 77.4767 165.772L77.5742 165.748C78.3958 165.543 78.7059 164.967 78.0206 164.469C79.3517 164.382 80.6885 164.466 81.9982 164.719C83.2486 164.953 86.5985 166.69 86.5985 166.69C86.5985 166.69 84.9079 169.743 82.4158 170.797C82.8397 174.589 82.2095 176.26 78.277 185.017C74.9534 192.418 78.7259 199.082 78.7259 199.082C78.7259 199.082 59.1619 214.812 59.0531 206.803C58.9706 200.767 64.3098 191.812 63.402 187.167Z" fill="#F9DDBF"/>
<path d="M79.6949 216.179C80.2207 216.12 80.7272 215.947 81.1792 215.672C81.6312 215.397 82.0178 215.027 82.3121 214.587L82.6147 214.13C84.8404 210.754 85.7069 200.436 90.7161 189.437C91.9365 186.76 96.3155 186.279 97.5096 183.251C97.5096 183.251 100.449 173.441 91.8827 173.151C83.3162 172.861 68.9451 200.45 68.7176 203.342C68.4987 206.145 63.0569 218.057 79.6949 216.179Z" fill="#DD6D22"/>
<path d="M113.738 215.954H101.547C101.547 215.954 101.091 214.009 101.891 212.686C102.6 211.516 102.329 210.848 101.804 209.88C102.451 210.16 103.152 210.292 103.857 210.267C104.464 210.232 105.107 209.957 105.67 209.629C106.194 210.227 108.441 212.774 109.143 213.278C109.94 213.85 113.492 213.647 113.738 215.954Z" fill="#233862"/>
<path d="M97.7884 175.987C98.5224 181.488 101.39 198.86 106.446 207.334C108.072 210.067 102.339 211.598 102.307 211.586C101.538 211.385 100.257 210.158 99.6653 209.625C95.5602 205.925 87.2262 195.449 87.2262 187.05C87.2262 182.954 87.1549 175.133 90.1322 173.144C91.9665 171.93 97.4971 173.806 97.7884 175.987Z" fill="#ED7D2B"/>
<path d="M72.4263 215.954C72.4263 215.954 72.8777 215.328 73.6655 214.13C74.6033 212.711 75.6399 209.917 76.899 206.334C78.2207 202.574 79.79 197.948 81.7506 193.133C82.3546 191.648 83.0011 190.144 83.6813 188.642C84.9004 185.965 88.2578 186.335 89.4519 183.308C89.4519 183.308 94.111 172.814 85.5457 172.525C76.9803 172.237 60.7049 200.596 59.7696 203.342C58.7468 206.349 53.7514 218.835 72.4263 215.954Z" fill="#F99746"/>
<path d="M104.785 215.954H92.598C92.598 215.954 92.1416 214.009 92.9419 212.686C93.6508 211.516 93.3795 210.848 92.8543 209.88C93.5014 210.16 94.2029 210.292 94.9075 210.267C95.5152 210.232 96.1579 209.957 96.7206 209.629C97.2458 210.227 99.4915 212.774 100.194 213.278C100.991 213.85 104.543 213.647 104.785 215.954Z" fill="#2B478B"/>
<path d="M76.9003 206.334C78.222 202.574 79.7913 197.948 81.7519 193.134C81.2392 189.487 80.1351 186.296 78.2783 185.006C78.2758 185.011 73.7743 198.967 76.9003 206.334Z" fill="#ED7D2B"/>
<path d="M90.6723 175.596C91.4063 181.098 92.4404 198.854 97.4971 207.334C99.1226 210.067 93.3895 211.598 93.3595 211.586C92.5892 211.385 91.3075 210.158 90.7161 209.625C86.611 205.929 78.2757 195.453 78.2757 187.06C78.2757 182.964 83.0823 175.471 86.0608 173.483C87.8952 172.253 90.381 173.411 90.6723 175.596Z" fill="#F99746"/>
<path d="M80.7403 156.77C80.7403 156.77 79.9901 156.476 77.9031 156.645C77.9031 156.645 78.0144 157.462 79.5574 157.542C80.4327 157.589 80.7403 156.77 80.7403 156.77Z" fill="white"/>
<path d="M117.135 159.835L114.608 155.275L109.14 170.532L112.366 173.995L117.135 159.835Z" fill="#163560"/>
<path d="M103.938 162.506L98.8564 177.024L112.366 173.995L117.135 159.835L103.938 162.506Z" fill="#1C468A"/>
<path d="M99.1251 176.293L98.8888 175.879L103.698 162.138L103.938 162.506L99.1251 176.293Z" fill="#EFDECE"/>
<path d="M103.698 162.138L116.506 159.646L117.135 159.835L103.938 162.506L103.698 162.138Z" fill="#FCECDB"/>
<path d="M117.135 159.835L114.401 155.497L112.66 160.394L116.506 159.646L117.135 159.835Z" fill="#EFDECE"/>
<path d="M107.839 164.608C107.399 164.524 106.464 164.169 105.502 163.906C105.787 163.685 106.105 163.414 106.192 163.134C106.364 162.596 106.476 162.423 105.91 162.593C105.343 162.763 103.357 163.675 103.357 163.675C102.231 164.004 101.188 165.599 101.188 165.599C101.188 165.599 87.2212 170.509 85.5406 170.594C82.941 170.719 65.6378 164.351 65.6378 164.351C61.5552 165.253 62.4705 170.27 63.876 171.16C65.2814 172.05 77.7318 176.581 85.1105 176.662C88.848 176.704 102.442 167.968 102.442 167.968C102.442 167.968 104.032 167.241 105.28 167.468C106.528 167.694 109.422 167.468 110.047 166.446C110.673 165.424 108.577 164.75 107.839 164.608Z" fill="#FFB27D"/>
<path d="M74.5582 167.496C74.5582 167.496 73.0102 172.395 67.696 173.511C67.696 173.511 58.9193 170.806 63.2883 164.827C63.2883 164.827 67.6097 161.617 74.5582 167.496Z" fill="#F9DDBF"/>
<path d="M116.914 164.977C116.918 164.843 116.903 164.709 116.867 164.579C116.867 164.579 115.617 162.598 115.206 162.517C113.955 162.267 113.955 163.915 114.221 164.975C114.41 165.662 114.765 166.291 115.256 166.807L115.206 168.357C117.307 167.199 116.914 164.977 116.914 164.977Z" fill="#FFB27D"/>
<path d="M43.5793 139.118C44.0795 126.77 33.7285 121.285 23.145 121.285C12.5615 121.285 1.04647 124.026 0.0486412 140.446C-0.592821 151.008 5.03779 157.508 21.2519 157.508C26.7212 157.508 30.9714 156.646 34.2262 155.108L42.3314 162.31L38.3488 152.355C41.8775 149.074 43.363 144.447 43.5793 139.118Z" fill="#EBF3FA"/>
<path d="M15.1049 134.989V137.874H16.9918V134.989H17.7558V141.718H16.9868V138.573H15.1049V141.718H14.3359V134.989H15.1049Z" fill="#91B5F8"/>
<path d="M19.3975 139.372C19.3975 140.859 19.9865 141.169 20.5354 141.169C20.8124 141.174 21.0865 141.112 21.3344 140.989L21.4595 141.548C21.1252 141.703 20.7603 141.782 20.3916 141.778C19.2337 141.778 18.6348 140.829 18.6348 139.352C18.6348 137.794 19.3038 136.816 20.2716 136.816C21.2394 136.816 21.647 137.854 21.647 138.932C21.647 139.122 21.637 139.252 21.627 139.372H19.3975ZM20.9143 138.803C20.9243 137.844 20.5654 137.415 20.1966 137.415C19.6864 137.415 19.4376 138.144 19.4076 138.803H20.9143Z" fill="#91B5F8"/>
<path d="M22.4823 134.81H23.2501V141.718H22.4823V134.81Z" fill="#91B5F8"/>
<path d="M24.3829 134.81H25.1519V141.718H24.3829V134.81Z" fill="#91B5F8"/>
<path d="M29.2596 139.302C29.2596 141.169 28.4018 141.803 27.6528 141.803C26.7775 141.803 26.086 141.014 26.086 139.317C26.086 137.56 26.8738 136.816 27.7028 136.816C28.5706 136.816 29.2596 137.625 29.2596 139.302ZM26.8538 139.302C26.8538 140.1 26.9938 141.189 27.6928 141.189C28.3518 141.189 28.4906 140.063 28.4906 139.302C28.4906 138.563 28.3518 137.426 27.6728 137.426C26.9938 137.426 26.8538 138.563 26.8538 139.302Z" fill="#91B5F8"/>
<path d="M255.554 102.06C256.01 90.7709 246.551 85.7555 236.873 85.7555C227.195 85.7555 216.67 88.2563 215.758 103.273C215.171 112.929 220.319 118.873 235.139 118.873C240.141 118.873 244.024 118.084 247 116.677L254.41 123.262L250.773 114.161C253.998 111.16 255.357 106.931 255.554 102.06Z" fill="#91B5F8"/>
<path d="M225.67 100.101C225.979 100.026 226.296 99.9892 226.615 99.9914C227.13 99.9914 227.569 100.101 227.873 100.388C228 100.515 228.098 100.667 228.163 100.834C228.228 101.001 228.257 101.18 228.248 101.359C228.253 101.635 228.172 101.905 228.015 102.13C227.857 102.356 227.633 102.527 227.373 102.617V102.642C228.032 102.82 228.428 103.351 228.428 104.095C228.441 104.508 228.296 104.911 228.023 105.221C227.703 105.585 227.17 105.736 226.522 105.736C226.24 105.742 225.957 105.723 225.678 105.677L225.67 100.101ZM226.311 102.431H226.606C226.737 102.433 226.868 102.408 226.989 102.358C227.11 102.308 227.22 102.234 227.313 102.141C227.405 102.047 227.477 101.936 227.526 101.814C227.574 101.692 227.597 101.562 227.594 101.431C227.594 100.907 227.344 100.502 226.657 100.502C226.54 100.498 226.424 100.513 226.311 100.544V102.431ZM226.311 105.192C226.419 105.215 226.529 105.227 226.64 105.226C227.308 105.226 227.746 104.829 227.746 104.1C227.746 103.315 227.206 102.944 226.599 102.935H226.311V105.192Z" fill="white"/>
<path d="M231.702 103.664C231.702 105.243 230.976 105.775 230.342 105.775C229.608 105.775 229.017 105.108 229.017 103.673C229.017 102.187 229.683 101.562 230.385 101.562C231.115 101.562 231.702 102.246 231.702 103.664ZM229.667 103.664C229.667 104.34 229.785 105.259 230.376 105.259C230.934 105.259 231.051 104.305 231.051 103.664C231.051 103.022 230.934 102.077 230.36 102.077C229.786 102.077 229.663 103.04 229.663 103.664H229.667Z" fill="white"/>
<path d="M232.424 102.676C232.424 102.195 232.399 101.95 232.391 101.621H232.952L232.986 102.121H233.002C233.091 101.95 233.226 101.807 233.392 101.709C233.557 101.61 233.747 101.56 233.94 101.563C234.505 101.563 234.928 101.977 234.928 102.965V105.708H234.277V103.082C234.277 102.594 234.184 102.112 233.711 102.112C233.441 102.112 233.18 102.34 233.103 102.771C233.077 102.894 233.066 103.02 233.07 103.146V105.712H232.419L232.424 102.676Z" fill="white"/>
<path d="M235.153 106.881C235.369 106.846 235.564 106.731 235.7 106.56C235.844 106.341 235.895 106.037 235.895 105.259V101.621H236.546V105.446C236.546 106.307 236.421 106.704 236.132 107.008C235.888 107.238 235.571 107.376 235.236 107.396L235.153 106.881ZM236.604 100.565C236.61 100.619 236.604 100.673 236.587 100.724C236.57 100.776 236.542 100.823 236.506 100.863C236.47 100.903 236.426 100.935 236.377 100.957C236.327 100.978 236.274 100.99 236.22 100.99C236.166 100.99 236.113 100.978 236.063 100.957C236.014 100.935 235.97 100.903 235.934 100.863C235.897 100.823 235.87 100.776 235.853 100.724C235.836 100.673 235.83 100.619 235.835 100.565C235.831 100.512 235.838 100.458 235.856 100.407C235.874 100.356 235.902 100.309 235.938 100.27C235.974 100.23 236.019 100.198 236.068 100.176C236.117 100.155 236.17 100.143 236.224 100.143C236.453 100.143 236.604 100.312 236.604 100.565Z" fill="white"/>
<path d="M239.939 103.664C239.939 105.243 239.213 105.775 238.58 105.775C237.846 105.775 237.255 105.108 237.255 103.673C237.255 102.187 237.921 101.562 238.623 101.562C239.357 101.562 239.939 102.246 239.939 103.664ZM237.905 103.664C237.905 104.34 238.022 105.259 238.614 105.259C239.172 105.259 239.289 104.305 239.289 103.664C239.289 103.022 239.172 102.077 238.598 102.077C238.024 102.077 237.905 103.04 237.905 103.664Z" fill="white"/>
<path d="M243.114 104.593C243.114 105.041 243.14 105.403 243.148 105.707H242.58L242.529 105.277H242.513C242.421 105.427 242.292 105.552 242.139 105.639C241.986 105.727 241.814 105.774 241.637 105.777C240.928 105.777 240.637 105.221 240.637 104.207V101.621H241.287V104.112C241.287 104.753 241.389 105.226 241.835 105.226C242.21 105.226 242.384 104.872 242.418 104.685C242.443 104.562 242.455 104.436 242.451 104.31V101.621H243.102L243.114 104.593Z" fill="white"/>
<path d="M244.018 102.676C244.018 102.33 243.993 101.926 243.984 101.621H244.567L244.601 102.271H244.617C244.753 101.882 245.099 101.562 245.479 101.562C245.524 101.56 245.569 101.563 245.614 101.571V102.228H245.479C245.065 102.228 244.761 102.604 244.693 103.074C244.676 103.198 244.667 103.323 244.668 103.449V105.711H244.018V102.676Z" fill="white"/>
<path d="M252.543 161.622C254.839 165.683 257.751 167.266 257.751 167.266L269.913 167.351C269.913 167.351 250.792 158.523 252.543 161.622Z" fill="#233862"/>
<path d="M261.663 192.987C261.978 193.352 262.015 193.759 261.855 194.191C261.56 194.99 260.595 195.878 259.479 196.765C259.337 196.879 259.209 196.982 259.098 197.079C259.069 197.104 259.039 197.129 259.013 197.154L258.947 197.212C257.901 198.161 258.29 198.384 256.412 200.312C254.27 202.51 252.806 202.539 252.391 202.335C252.04 202.16 252.766 200.992 253.566 199.679C253.605 199.616 253.644 199.554 253.684 199.488L254.003 198.96C254.943 197.38 254.71 196.633 254.503 194.269C254.337 192.348 251.592 183.524 251.592 183.524L255.672 182.85C255.672 182.85 256.85 189.87 258.194 190.959C258.913 191.541 259.722 191.553 260.414 191.984C260.462 192.014 260.511 192.046 260.557 192.077C260.965 192.329 261.337 192.636 261.663 192.987Z" fill="#FFB27D"/>
<path d="M261.663 192.987C261.978 193.352 262.015 193.759 261.855 194.191C261.495 194.989 260.554 195.873 259.472 196.757C259.331 196.872 259.206 196.979 259.097 197.079C259.068 197.104 259.038 197.129 259.012 197.154L258.946 197.212C257.9 198.161 258.289 198.384 256.411 200.312C254.269 202.51 252.805 202.539 252.39 202.335C252.038 202.16 252.765 200.992 253.565 199.679C255.057 199.109 256.371 198.154 257.375 196.912C258.667 195.287 259.536 193.195 260.416 191.984C260.465 192.014 260.514 192.046 260.56 192.077C260.967 192.33 261.338 192.636 261.663 192.987Z" fill="#233862"/>
<path d="M228.826 190.21C228.566 191.46 226.774 191.244 224.774 190.74C222.775 190.236 223.246 190.822 220.398 190.49C217.549 190.159 216.693 189.085 216.608 188.661C216.533 188.286 217.943 188.161 219.455 187.998C219.645 187.978 219.83 187.956 220.028 187.933C221.735 187.732 222.992 186.639 224.548 185.746C226.022 184.9 228.237 181.426 228.237 181.426L232.144 181.764C232.144 181.764 230.071 184.866 229.268 186.215C228.796 187.009 228.813 188.063 228.866 188.877C228.911 189.321 228.898 189.769 228.826 190.21Z" fill="#FFB27D"/>
<path d="M224.771 190.74C222.77 190.24 223.242 190.822 220.394 190.49C217.546 190.159 216.689 189.085 216.604 188.661C216.529 188.286 217.94 188.161 219.451 187.998L219.465 188.027C220.681 188.819 222.089 189.268 223.539 189.325C225.473 189.385 227.525 188.846 228.862 188.877C228.908 189.322 228.894 189.772 228.822 190.214C228.562 191.467 226.77 191.244 224.771 190.74Z" fill="#233862"/>
<path d="M243.982 165.316L247.568 175.176L252.248 188.056C253.1 188.125 253.957 188.053 254.785 187.842C255.93 187.52 257.246 186.665 257.246 186.665C257.246 186.665 256.018 172.868 253.603 164.935C252.977 162.899 252.285 161.25 251.508 160.32C247.707 155.761 243.982 165.316 243.982 165.316Z" fill="#233862"/>
<path d="M247.808 149.722C250.209 148.971 257.031 150.006 263.882 151.397L265.335 149.038L280.163 147.986C280.163 147.986 284.975 158.865 282.25 165.754C281.849 166.767 280.874 167.189 279.539 167.201C279.539 167.201 270.694 167.355 267.831 167.335C260.461 167.282 252.271 162.16 251.208 161.938C249.467 161.578 248.747 165.057 246.979 168.703C245.211 172.349 230.49 184.787 230.49 184.787C230.49 184.787 228.239 184.793 227.315 184.439C226.315 184.057 225.956 183.564 225.956 183.564C225.956 183.564 242.396 151.423 247.808 149.722Z" fill="#2B478B"/>
<path d="M265.567 128.632C270.818 131.574 281.486 137.673 281.541 137.635C281.541 137.635 285.466 139.146 287.708 137.679C291.446 135.234 293.488 128.6 286.725 122.829C283.349 119.953 280.945 119.239 280.611 114.679C280.43 112.205 277.11 104.022 271.483 104.737C271.014 104.804 270.54 104.831 270.067 104.819C269.067 104.781 268.077 105.029 267.213 105.533C264.025 107.409 257.664 127.451 265.567 128.632Z" fill="#233862"/>
<path d="M270.007 126.19C269.983 126.204 272.596 127.117 274.353 126.354C276.006 125.637 277.274 122.935 277.249 122.933C276.499 122.894 275.682 122.233 275.078 117.931L274.758 118.044L269.382 119.937C269.382 119.937 269.757 121.662 269.998 123.303C270.197 124.677 270.301 125.998 270.007 126.19Z" fill="#FFB27D"/>
<path d="M269.378 119.933C269.378 119.933 269.608 121.142 269.925 122.869C273.013 122.336 274.313 119.703 274.758 118.04L269.378 119.933Z" fill="#ED975D"/>
<path d="M268.566 121.637C268.566 121.637 275.916 120.703 275.265 116.136C274.613 111.568 275.122 108.37 270.402 108.773C265.682 109.176 265.025 111.049 264.868 112.627C264.71 114.205 266.638 121.762 268.566 121.637Z" fill="#FFB27D"/>
<path d="M265.153 110.127C265.153 110.127 269.824 114.211 273.019 114.56C276.214 114.909 277.432 113.891 277.432 113.891C276.164 112.741 275.147 111.344 274.442 109.785C274.282 109.418 274.026 109.101 273.702 108.865C273.378 108.63 272.997 108.486 272.599 108.447C270.317 108.229 265.989 108.108 265.153 110.127Z" fill="#233862"/>
<path d="M268.089 109.785C268.089 109.785 266.506 111.294 266.002 112.418C265.517 113.503 265.355 116.106 265.728 117.142C265.728 117.142 263.312 112.361 264.715 110.056C266.213 107.611 268.089 109.785 268.089 109.785Z" fill="#233862"/>
<path d="M263.747 136.962C263.865 151.827 263.725 148.716 265.341 150.143C265.73 150.484 266.831 150.694 268.28 150.801C272.835 151.136 280.852 150.442 281.159 149.602C282.231 146.694 281.496 145.784 282.41 141.328C282.505 140.854 282.621 140.341 282.758 139.782C283.509 136.724 284.23 135.686 281.671 130.744C279.349 126.268 276.93 122.631 276.71 122.76C270.476 126.401 269.998 123.3 269.998 123.3C269.998 123.3 263.69 129.711 263.747 136.962Z" fill="#F9DDBF"/>
<path d="M247.568 175.181L252.248 188.061C253.1 188.13 253.957 188.058 254.785 187.847C255.93 187.525 257.246 186.67 257.246 186.67C257.246 186.67 256.018 172.873 253.603 164.94L247.568 175.181Z" fill="#2B478B"/>
<path d="M269.994 123.299C269.994 123.299 263.6 124.337 262.831 127.082L257.533 145.963C257.533 145.963 260.776 146.569 262.284 145.08C263.792 143.591 267.602 131.201 267.602 131.201L269.994 123.299Z" fill="#F9DDBF"/>
<path d="M268.28 150.798C272.835 151.133 280.852 150.439 281.159 149.599C282.231 146.692 281.496 145.782 282.41 141.325L280.255 135.119C280.255 135.119 280.57 142.015 278.525 143.815C276.479 145.614 270.177 147.256 269.178 148.763C268.694 149.489 268.375 150.217 268.28 150.798Z" fill="#F2CCAA"/>
<path d="M273.522 147.939C273.522 147.939 269.033 146.906 268.304 147.3C267.575 147.693 265.793 149.134 265.567 149.638C265.34 150.142 267.185 149.263 267.784 149.11C268.171 149.009 269.188 149.37 269.69 149.542C271.807 150.264 273.11 149.909 273.11 149.909L273.522 147.939Z" fill="#FFB27D"/>
<path d="M276.716 122.756C276.716 122.756 282.751 123.172 284.82 126.101C287.734 130.228 293.448 147.755 290.085 150.063C286.3 152.664 272.936 150.629 272.936 150.629C272.936 150.629 272.506 148.546 273.133 147.543C273.759 146.541 283.835 144.986 284.303 144.525C284.77 144.064 278.561 135.426 278.57 134.031C278.578 132.637 276.716 122.756 276.716 122.756Z" fill="#F9DDBF"/>
<path d="M268.077 148.548C268.077 148.548 267.127 149.755 266.817 149.899C266.661 149.982 266.484 150.019 266.308 150.004L266.951 148.865L268.077 148.548Z" fill="#FFB27D"/>
<path d="M268.304 147.297L265.553 148.608C265.553 148.608 265.668 148.8 266.005 148.786C266.343 148.773 267.196 148.469 267.196 148.469L268.304 147.297Z" fill="#FFB27D"/>
<path d="M267.403 151.862L245.735 151.71L239.332 135.456L260.966 135.608L267.403 151.862Z" fill="#F99746"/>
<path d="M245.486 151.076L274.098 151.278L274.094 151.91L245.735 151.71L245.486 151.076Z" fill="#ED7D2B"/>
<path d="M251.262 143.645C251.103 143.073 251.436 142.614 252.012 142.618C252.588 142.622 253.172 143.088 253.331 143.658C253.49 144.229 253.159 144.689 252.588 144.685C252.018 144.681 251.422 144.215 251.262 143.645Z" fill="white"/>
<path d="M135.718 203.005L135.716 216.093L201.55 216.105L201.552 203.017L135.718 203.005Z" fill="#C65447"/>
<path d="M135.72 216.099L126.042 211.958L120.415 209.551L126.175 207.089L135.722 203.011C135.722 203.011 136.995 206.197 137.015 209.194C137.045 213.897 135.72 216.099 135.72 216.099Z" fill="#FCECDB"/>
<path d="M209.209 207.366V211.503C209.209 212.109 209.09 212.708 208.858 213.267C208.627 213.826 208.287 214.334 207.859 214.762C207.431 215.19 206.923 215.529 206.364 215.761C205.805 215.992 205.205 216.111 204.6 216.111H201.554V203.024H204.865C206.017 203.024 207.121 203.482 207.936 204.296C208.75 205.11 209.208 206.214 209.209 207.366Z" fill="#FCECDB"/>
<path d="M126.177 207.089C126.416 208.412 126.624 210.438 126.044 211.959L120.417 209.551L126.177 207.089Z" fill="#2B478B"/>
<path d="M149.875 134.868C149.875 134.868 151.054 139.985 154.491 139.985C157.437 139.985 161.48 133.324 161.48 133.324L149.875 134.868Z" fill="#F99746"/>
<path d="M189.339 210.443L187.131 211.962C187.131 211.962 176.502 200.641 173.945 189.789C173.487 187.852 173.302 185.94 173.499 184.128C173.499 184.128 173.344 183.637 173.072 182.768C173.06 182.729 173.048 182.69 173.036 182.651C172.917 182.276 172.775 181.821 172.616 181.313C172.102 179.674 171.394 177.43 170.588 174.875C168.732 168.998 164.486 155.736 162.672 150.222L175.712 145.504C175.712 145.504 177.192 148.88 179.32 158.061C179.648 159.259 179.977 160.584 180.283 162.027C180.631 163.663 180.956 165.451 181.226 167.381C181.732 171.024 181.993 174.696 182.008 178.374C182.015 180.015 181.975 181.718 181.883 183.477C181.811 184.764 182.008 186.478 182.362 188.436C184 197.365 189.339 210.443 189.339 210.443Z" fill="#2B478B"/>
<path d="M196.285 215.897H185.744C185.744 215.897 185.35 214.217 186.042 213.071C186.654 212.06 186.417 211.483 185.965 210.646C186.525 210.888 187.131 211.002 187.741 210.979C188.266 210.949 188.821 210.712 189.309 210.428C189.763 210.946 191.706 213.148 192.31 213.584C193.001 214.079 196.074 213.903 196.285 215.897Z" fill="#233862"/>
<path d="M181.226 167.38L173.036 182.65C172.917 182.275 172.775 181.82 172.616 181.312C172.102 179.673 171.394 177.428 170.588 174.874C168.732 168.997 164.486 155.735 162.672 150.221L175.712 145.503C175.712 145.503 177.192 148.879 179.32 158.059C179.648 159.257 179.977 160.583 180.283 162.026C180.631 163.661 180.956 165.449 181.226 167.38Z" fill="#233862"/>
<path d="M162.46 212.597C162.46 212.597 161.73 214.388 162.417 215.897H168.152C168.152 215.897 168.277 214.536 166.19 212.958C164.613 211.762 162.46 212.597 162.46 212.597Z" fill="#233862"/>
<path d="M168.699 96.0376C168.699 95.7525 168.85 92.6753 173.526 92.4014C173.526 92.4014 171.232 92.7315 170.858 93.7531C170.858 93.7531 172.396 92.4652 173.681 92.8366C174.967 93.2079 175.771 95.4249 175.796 96.1602C175.821 96.8954 175.17 99.2862 174.364 99.505C174.042 99.5785 173.709 99.587 173.384 99.53C173.623 99.886 173.842 100.255 174.039 100.637C175.998 104.425 174.308 108.889 172.717 108.514C171.697 108.273 171.077 110.042 171.077 110.042L161.263 101.603C161.263 101.603 164.701 94.0295 168.699 96.0376Z" fill="#2C3A64"/>
<path d="M162.531 121.68C163.619 122.43 164.983 123.055 166.696 123.453C173.116 124.936 175.574 119.51 176.5 115.785C175.829 115.414 175.088 115.187 174.325 115.118C173.861 115.063 173.374 115.026 172.97 115.006C172.248 114.454 171.174 112.194 170.936 108.686L170.634 108.767L165.575 110.152C165.575 110.152 165.807 111.76 165.92 113.278C166.009 114.469 166.022 115.605 165.795 115.883C165.401 115.969 165.17 116.025 165.17 116.025C164.112 117.822 163.228 119.715 162.531 121.68Z" fill="#FFB27D"/>
<path d="M165.575 110.152C165.575 110.152 165.807 111.759 165.92 113.278C168.787 112.992 170.116 110.262 170.635 108.766L165.575 110.152Z" fill="#ED985F"/>
<path d="M165.516 112.567C165.516 112.567 172.116 110.87 170.996 106.776C169.877 102.682 169.975 99.7076 165.713 100.617C161.452 101.526 161.064 103.311 161.106 104.769C161.147 106.227 163.77 112.902 165.516 112.567Z" fill="#FFB27D"/>
<path d="M160.678 102.44C161.354 100.93 162.197 100.989 162.729 101.242C165.777 98.2809 168.893 100.564 168.893 100.564C170.144 103.38 172.718 104.48 172.718 104.48C172.718 104.48 171.718 105.55 168.768 105.597C167.865 105.612 166.948 105.222 166.109 104.668C167.163 105.658 168.348 106.5 169.631 107.169C165.915 106.55 163.331 102.327 163.066 101.878C162.764 102.348 162.191 103.348 162.157 104.182C162.116 105.313 162.559 107.499 161.907 107.598C161.912 107.595 159.66 104.704 160.678 102.44Z" fill="#2C3A64"/>
<path d="M163.618 115.685C163.618 115.685 174.701 112.994 179.521 116.97L177.112 150.559L155.435 145.323C155.435 145.323 156.045 143.197 160.202 137.545C164.358 131.893 162.554 123.603 163.618 115.685Z" fill="#FFB27D"/>
<path d="M170.079 146.821C170.079 146.821 170.066 146.934 170.044 147.152C170.034 147.245 170.021 147.357 170.007 147.49C169.915 148.365 169.737 150.03 169.507 152.202C168.913 157.899 167.979 167.049 167.343 174.271C166.843 179.918 166.53 184.387 166.7 185.105C167.214 187.264 166.7 213.078 166.7 213.078C164.858 213.962 162.065 213.078 162.065 213.078C162.065 213.078 157.157 189.82 157.845 186.583C158.532 183.345 157.384 180.589 157.384 180.589C153.574 162.845 153.992 153.009 154.749 148.301C154.894 147.328 155.112 146.366 155.4 145.425C155.472 145.184 155.559 144.948 155.661 144.719C164.068 142.458 170.079 146.821 170.079 146.821Z" fill="#2B478B"/>
<path d="M181.015 126.55C180.481 130.592 178.34 135.536 177.575 138.198C177.575 138.198 178.853 147.44 177.634 149.977C177.495 150.266 177.324 150.468 177.113 150.559C172.593 152.529 154.99 150.617 154.247 144.939C153.977 142.876 160.952 135.618 161.358 134.737C161.527 134.373 161.707 133.192 160.889 130.745C159.73 134.319 153.332 133.291 153.332 133.291C154.082 132.007 155.958 123.118 158.043 119.105C159.613 116.089 163.807 115.653 163.807 115.653C163.807 115.653 165.557 118.42 169.772 118.029C173.987 117.637 174.764 115.053 174.764 115.053C174.764 115.053 178.508 115.553 179.661 116.481C179.861 116.641 181.718 121.256 181.015 126.55Z" fill="#F99746"/>
<path d="M177.575 138.198C177.575 138.198 178.853 147.44 177.634 149.977C174.34 148.324 171.744 143.85 172.344 138.871C172.787 135.189 173.445 134.349 175.415 132.243C176.862 130.695 180.21 130.608 179.947 131.344C179.165 133.543 177.979 136.794 177.575 138.198Z" fill="#ED7D2B"/>
<path d="M163.829 127.27L171.377 139.378H158.534L151.344 127.532L163.829 127.27Z" fill="#1C468A"/>
<path d="M170.984 138.771L171.114 138.348L163.972 126.889L163.829 127.27L170.984 138.771Z" fill="#EFDECE"/>
<path d="M163.972 126.889L151.874 127.233L151.344 127.532L163.829 127.27L163.972 126.889Z" fill="#FCECDB"/>
<path d="M151.344 127.532L144.556 123.858L152.468 136.282L158.534 139.378L151.344 127.532Z" fill="#163560"/>
<path d="M187.258 136.017C186.532 136.35 184.665 138.547 184 138.768C180.999 139.768 168.261 137.104 168.261 137.104L168.655 134.872C168.655 134.872 181.159 135.203 182.534 134.835C182.793 134.765 184.145 132.652 184.66 132.348L187.258 136.017Z" fill="#FFB27D"/>
<path d="M168.656 134.873C168.656 134.873 167.146 133.645 166.127 133.924C165.108 134.203 163.609 135.491 163.053 135.8C162.496 136.108 160.982 137.196 161.748 137.856C162.515 138.517 164.903 137.949 165.849 137.444C166.794 136.939 168.261 137.11 168.261 137.11L168.656 134.873Z" fill="#FFB27D"/>
<path d="M166.416 133.884C166.416 133.884 164.583 133.665 164.083 133.675C163.583 133.685 163.718 133.8 163.994 134.183C164.271 134.565 165.226 134.72 165.27 134.855C165.313 134.991 166.416 133.884 166.416 133.884Z" fill="#FFB27D"/>
<path d="M174.764 115.051C174.764 115.051 180.201 115.697 181.697 118.027C183.591 120.976 188.057 132.715 187.913 135.673C187.913 135.673 184.647 141.231 173.449 140.341C173.449 140.341 172.283 136.226 174.639 134.868C174.639 134.868 180.391 133.845 181.054 133.261L176.364 124.738L174.764 115.051Z" fill="#F99746"/>
<path d="M153.082 131.958C152.913 131.273 151.42 131.701 150.916 132.095C150.768 132.226 150.639 132.377 150.533 132.545C150.518 132.431 150.505 132.321 150.497 132.235C150.468 131.913 150.095 131.337 149.997 131.768C149.899 132.2 149.747 134.019 149.747 134.019C149.729 135.479 150.667 136.082 151.271 135.607C151.875 135.132 153.251 132.643 153.082 131.958Z" fill="#FFB27D"/>
<path d="M352.628 215.894H10.212C9.96823 215.894 9.77061 216.091 9.77061 216.335V216.624C9.77061 216.868 9.96823 217.065 10.212 217.065H352.628C352.872 217.065 353.069 216.868 353.069 216.624V216.335C353.069 216.091 352.872 215.894 352.628 215.894Z" fill="#2E3552"/>
</svg>
