<svg width="334" height="285" viewBox="0 0 334 285" fill="none" xmlns="http://www.w3.org/2000/svg">
<path d="M98.7259 188.638C95.5023 189.716 91.5433 190.318 87.1617 187.724C82.4672 184.943 79.3375 179.685 76.6773 174.849C73.1407 168.497 69.8859 163.129 63.7282 159.801C59.2997 157.387 54.5739 156.043 50.3566 152.09C45.4509 147.496 43.1271 141.019 42.3681 135.629C41.4918 129.379 42.4229 123.652 40.2947 116.956C38.9825 112.828 36.6083 109.116 33.4094 106.19C30.9761 103.925 28.3628 102.042 25.9451 99.7605C18.1209 92.3853 15.6562 82.0804 19.6857 77.3693C22.2286 71.8223 29.3643 70.7051 37.2511 76.213C43.5652 80.6194 47.0783 87.6118 51.585 93.901C56.4517 100.706 61.7017 103.448 67.8672 105.847C72.061 107.487 76.5286 109.073 80.5894 112.636C84.6502 116.198 87.1695 121.058 89.196 125.746C91.6763 131.472 93.8906 138.176 99.0937 142.652C101.903 145.051 104.985 146.465 107.779 148.981C109.686 150.738 111.351 152.74 112.731 154.934C120.196 166.716 117.183 177.036 111.292 182.067C107.779 185.083 103.264 187.114 98.7259 188.638Z" fill="#CEDCFD"/>
<path d="M32.1184 84.7211C38.795 94.2838 45.5082 103.818 52.2579 113.323L39.5436 106.69C38.7611 106.269 38.19 107.589 38.9959 108.011L53.6506 115.644C53.7517 115.697 53.8648 115.724 53.9792 115.722C59.6596 123.686 65.3687 131.629 71.1064 139.551L48.2363 132.043C47.3756 131.761 46.8279 133.074 47.6964 133.355L72.1079 141.371C72.2206 141.402 72.3395 141.402 72.4522 141.371C77.7675 148.71 83.1166 156.028 88.4997 163.325L69.7216 156.356C68.8687 156.043 68.321 157.356 69.1817 157.676L90.0254 165.403C93.6245 170.294 97.2341 175.177 100.854 180.052L82.0134 172.848C81.1527 172.528 80.6129 173.841 81.4657 174.169L100.518 181.521C100.604 181.556 100.696 181.573 100.789 181.571C100.882 181.569 100.973 181.547 101.057 181.507C101.142 181.468 101.216 181.411 101.277 181.34C101.338 181.27 101.383 181.188 101.41 181.099C101.473 181.131 101.542 181.152 101.613 181.161C105.786 186.776 109.977 192.38 114.187 197.974C114.742 198.709 115.861 197.834 115.305 197.099C111.049 191.443 106.811 185.773 102.591 180.091C104.117 173.441 105.236 166.704 105.94 159.918C105.963 159.731 105.91 159.542 105.793 159.393C105.677 159.245 105.506 159.148 105.318 159.125C105.13 159.103 104.941 159.155 104.792 159.272C104.643 159.388 104.546 159.559 104.524 159.747C103.864 166.075 102.845 172.362 101.472 178.575C98.0974 174.028 94.733 169.479 91.379 164.926C91.3871 164.789 91.3492 164.653 91.2713 164.54C91.1934 164.427 91.0798 164.343 90.9486 164.301H90.9095L90.4401 163.661C91.2068 156.801 91.9762 149.939 92.7482 143.074C92.771 142.887 92.7183 142.698 92.6017 142.549C92.485 142.4 92.314 142.304 92.1262 142.281C91.9384 142.258 91.7492 142.311 91.6003 142.428C91.4514 142.544 91.3549 142.715 91.332 142.902L89.196 161.958C83.886 154.687 78.5968 147.434 73.3285 140.199L75.5819 117.956C75.5932 117.863 75.5861 117.769 75.5609 117.679C75.5358 117.589 75.4931 117.505 75.4353 117.431C75.3776 117.358 75.3059 117.296 75.2243 117.25C75.1427 117.204 75.0529 117.175 74.9599 117.163C74.8669 117.152 74.7726 117.159 74.6823 117.184C74.5921 117.209 74.5077 117.252 74.434 117.31C74.3602 117.367 74.2986 117.439 74.2525 117.52C74.2065 117.602 74.177 117.692 74.1657 117.784C73.472 124.675 72.773 131.571 72.0688 138.473C66.2424 130.41 60.442 122.337 54.6678 114.253C54.752 114.153 54.8062 114.031 54.8243 113.902L56.0761 103.237C56.0826 103.059 56.022 102.885 55.9062 102.75C55.7905 102.614 55.628 102.527 55.451 102.506C55.2739 102.484 55.0952 102.53 54.9502 102.633C54.8052 102.737 54.7044 102.891 54.6678 103.065C54.287 106.269 53.9088 109.472 53.5333 112.675C46.7523 103.097 39.9895 93.4921 33.2451 83.8617C32.7209 83.0804 31.602 83.971 32.1184 84.7211Z" fill="#FAEDEC"/>
<path d="M71.5994 216.092C64.1664 213.834 56.616 211.56 48.784 211.24C40.9519 210.92 32.6583 212.803 27.064 217.787C21.4696 222.772 19.4432 231.366 23.7621 237.319C28.887 244.35 39.747 245.132 49.0656 245.39C62.093 245.765 76.7555 247.374 84.6971 256.749C88.7657 261.554 90.4557 267.82 94.8686 272.375C102.45 280.125 115.759 280.531 126.823 277.898C137.886 275.265 148.284 270.211 159.63 268.953C172.289 267.554 184.886 271 197.499 272.664C240.876 278.359 284.825 266.21 311.38 234.381C315.292 229.694 318.938 223.655 316.482 218.24C313.352 211.35 305.348 206.373 297.148 206.81C277.094 207.873 256.924 208.459 236.948 206.615C219.078 204.959 201.638 200.716 183.908 198.138C141.869 192.044 111.855 203.388 71.5759 216.107" fill="#CEDCFD"/>
<path d="M273.706 182.13C275.67 177.442 277.681 172.52 277.305 167.442C276.961 162.754 276.891 157.497 275.443 153.012C274.043 148.493 273.494 143.754 273.824 139.035C274.708 124.269 280.952 124.878 283.314 125.621C285.677 126.363 287.015 128.519 287.727 132.269C288.298 135.285 288.408 149.801 292.704 146.981C297.68 143.715 295.192 128.925 295.262 123.863C295.372 116.284 297.171 107.925 302.038 101.917C304.432 98.9558 308.242 96.448 311.881 97.5964C314.064 98.2761 315.683 100.136 316.747 102.151C319.932 108.237 318.743 115.253 317.146 121.605C316.473 124.261 309.682 137.121 316.599 134.887C318.25 134.355 330.682 121.128 333.812 132.363C334.923 136.316 331.05 141.144 324.681 147.426C320.706 151.332 305.457 162.34 306.975 166.669C308.493 170.997 316.575 162.458 316.779 170.927C316.888 175.677 311.302 179.966 307.39 182.364C305.543 183.505 303.477 184.271 301.717 185.489C299.62 186.982 297.265 190.177 299.417 192.599C300.356 193.654 301.913 194.013 302.82 195.099C303.241 195.684 303.497 196.371 303.561 197.088C303.626 197.805 303.497 198.527 303.188 199.177C302.552 200.472 301.626 201.603 300.481 202.482C293.439 208.435 283.839 210.709 274.661 210.295C265.483 209.881 256.524 207.076 247.902 203.81" fill="#A5B9F6"/>
<g opacity="0.25">
<path d="M308.681 106.034C308.681 106.034 306.811 156.082 281.969 190.935" stroke="white" stroke-linecap="round" stroke-linejoin="round"/>
<path d="M327.107 135.988C327.107 135.988 312.6 151.395 299.323 155.34" stroke="white" stroke-linecap="round" stroke-linejoin="round"/>
<path d="M281.75 132.058C282.07 139.832 284.692 161.27 293.533 170.442" stroke="white" stroke-linecap="round" stroke-linejoin="round"/>
<path d="M310.942 173.474C310.942 173.474 305.324 180.067 285.63 185.435" stroke="white" stroke-linecap="round" stroke-linejoin="round"/>
<path d="M299.112 197.146C299.112 197.146 289.042 200.56 279.003 196.576" stroke="white" stroke-linecap="round" stroke-linejoin="round"/>
</g>
<path d="M261.235 207.131H219.461C211.316 207.131 212.638 197.482 235.297 201.779C229.742 199.24 229.711 195.841 230.18 194.935C230.65 194.029 232.199 193.568 233.138 193.646C236.017 193.896 238.208 195.662 240.727 197.068C238.454 195.552 236.6 193.488 235.338 191.066C234.076 188.645 233.445 185.945 233.506 183.216C233.56 181.724 233.881 180.091 234.984 179.106C235.639 178.503 236.419 178.051 237.267 177.781C238.116 177.511 239.014 177.43 239.898 177.544C242.949 178.153 248.575 183.247 250.813 185.411C239.397 174.927 235.047 158.403 242.355 154.637C254.662 148.285 263.957 184.239 263.957 184.239C263.957 184.239 257.839 157.223 268.104 157.067C278.37 156.911 270.021 188.45 270.021 188.45" fill="#A5B9F6"/>
<path d="M56.8664 198.857C55.012 194.435 53.1186 189.794 53.4707 185.005C53.7915 180.575 53.8619 175.63 55.2311 171.395C56.5636 167.136 57.0942 162.667 56.796 158.215C55.9588 144.285 50.0671 144.863 47.8451 145.559C45.623 146.254 44.3555 148.293 43.6826 151.809C43.1427 154.653 43.041 168.348 38.988 165.684C34.2935 162.606 36.6408 148.66 36.5704 143.879C36.4687 136.73 34.7708 128.847 30.1858 123.183C27.9246 120.386 24.3333 118.042 20.8985 119.113C18.8407 119.745 17.3072 121.503 16.3135 123.41C13.3012 129.144 14.4278 135.762 15.9379 141.754C16.5639 144.254 22.9797 156.379 16.4543 154.293C14.8895 153.793 3.15315 141.316 0.219074 151.91C-0.82937 155.637 2.82454 160.2 8.82571 166.122C12.5735 169.817 26.9622 180.185 25.5226 184.271C24.0829 188.357 16.47 180.294 16.2822 188.286C16.1726 192.763 21.454 196.81 25.1079 199.068C26.8527 200.146 28.8009 200.873 30.4675 202.06C32.4392 203.467 34.6613 206.474 32.6348 208.756C31.7428 209.756 30.2875 210.099 29.4269 211.1C29.0279 211.65 28.7846 212.297 28.7226 212.973C28.6607 213.65 28.7823 214.33 29.0748 214.943C29.6725 216.17 30.5486 217.24 31.6333 218.068C38.2604 223.686 47.2817 225.834 56.0135 225.467C64.7454 225.1 73.1173 222.436 81.2466 219.35" fill="#A5B9F6"/>
<g opacity="0.25">
<path d="M23.8795 127.089C23.8795 127.089 25.6399 174.286 49.0735 207.162" stroke="white" stroke-linecap="round" stroke-linejoin="round"/>
<path d="M6.50192 155.34C6.50192 155.34 20.1786 169.872 32.7052 173.591" stroke="white" stroke-linecap="round" stroke-linejoin="round"/>
<path d="M49.2769 151.637C48.9796 158.965 46.4993 179.185 38.1665 187.833" stroke="white" stroke-linecap="round" stroke-linejoin="round"/>
<path d="M21.7435 190.693C21.7435 190.693 27.0405 196.943 45.623 201.974" stroke="white" stroke-linecap="round" stroke-linejoin="round"/>
<path d="M32.9008 212.982C32.9008 212.982 42.3994 216.201 51.8745 212.451" stroke="white" stroke-linecap="round" stroke-linejoin="round"/>
</g>
<path d="M68.6575 222.436H108.021C115.704 222.436 114.46 213.342 93.0925 217.389C98.3347 214.998 98.366 211.787 97.92 210.935C97.474 210.084 96.0109 209.646 95.1268 209.725C92.4118 209.951 90.3462 211.615 87.9676 212.943C90.1139 211.516 91.8635 209.57 93.0537 207.286C94.244 205.002 94.836 202.454 94.7747 199.88C94.8441 198.447 94.3467 197.044 93.3898 195.974C92.7739 195.403 92.0397 194.974 91.2393 194.717C90.4388 194.461 89.5917 194.383 88.7579 194.49C85.8707 195.06 80.5659 199.873 78.4534 201.912C89.2273 192.021 93.3194 176.435 86.4341 172.88C74.8229 166.895 66.0911 200.802 66.0911 200.802C66.0911 200.802 71.8654 175.325 62.179 175.177C52.4926 175.028 60.3716 204.771 60.3716 204.771" fill="#A5B9F6"/>
<path d="M150.772 139.215C148.746 134.379 146.68 129.316 147.064 124.089C147.416 119.245 147.494 113.855 148.981 109.245C150.424 104.595 150.989 99.7181 150.647 94.862C149.74 79.6506 143.308 80.2834 140.883 81.0413C138.457 81.7991 137.072 84.0257 136.337 87.8852C135.742 91.0103 135.632 105.94 131.212 103.034C126.087 99.6746 128.645 84.4476 128.575 79.2287C128.458 71.416 126.603 62.822 121.604 56.6344C119.139 53.5874 115.211 51.0248 111.432 52.1889C109.187 52.8843 107.52 54.7984 106.425 56.8766C103.139 63.1267 104.367 70.3613 106.018 76.9005C106.699 79.635 113.701 92.8697 106.581 90.5884C104.875 90.0415 92.1064 76.424 88.8515 87.9868C87.7092 92.065 91.6995 97.0417 98.2405 103.503C102.403 107.534 118.051 118.847 116.487 123.308C114.922 127.769 106.605 118.972 106.401 127.691C106.284 132.582 112.05 137.004 116.041 139.465C117.942 140.644 120.07 141.434 121.885 142.73C124.045 144.293 126.462 147.551 124.233 150.043C123.27 151.137 121.666 151.504 120.735 152.621C120.3 153.224 120.036 153.931 119.968 154.671C119.901 155.41 120.033 156.154 120.352 156.825C121.006 158.158 121.963 159.322 123.145 160.223C130.375 166.356 140.272 168.692 149.747 168.294C159.222 167.895 168.424 164.981 177.296 161.622" fill="#A5B9F6"/>
<g opacity="0.25">
<path d="M114.765 60.861C114.765 60.861 116.682 112.386 142.267 148.278" stroke="white" stroke-linecap="round" stroke-linejoin="round"/>
<path d="M95.7837 91.6744C95.7837 91.6744 110.72 107.534 124.397 111.597" stroke="white" stroke-linecap="round" stroke-linejoin="round"/>
<path d="M142.486 87.6586C142.158 95.6667 139.459 117.73 130.359 127.175" stroke="white" stroke-linecap="round" stroke-linejoin="round"/>
<path d="M112.434 130.3C112.434 130.3 118.216 137.09 138.496 142.613" stroke="white" stroke-linecap="round" stroke-linejoin="round"/>
<path d="M124.608 154.629C124.608 154.629 134.975 158.145 145.319 154.043" stroke="white" stroke-linecap="round" stroke-linejoin="round"/>
</g>
<path d="M163.643 164.95H206.622C215.009 164.95 213.663 155.02 190.316 159.442C196.043 156.825 196.075 153.332 195.589 152.41C195.104 151.489 193.508 151.004 192.546 151.082C189.58 151.34 187.327 153.153 184.722 154.606C187.064 153.048 188.975 150.924 190.276 148.431C191.577 145.938 192.226 143.158 192.162 140.348C192.108 138.785 191.779 137.152 190.645 136.113C189.972 135.488 189.17 135.018 188.295 134.737C187.42 134.456 186.494 134.371 185.582 134.488C182.453 135.113 176.647 140.363 174.339 142.59C186.075 131.793 190.574 114.784 183.047 110.901C170.38 104.37 160.811 141.371 160.811 141.371C160.811 141.371 167.07 113.558 156.539 113.394C146.007 113.23 154.559 145.707 154.559 145.707" fill="#A5B9F6"/>
<path d="M53.5489 77.9084C53.7045 77.9084 53.8538 77.8466 53.9639 77.7367C54.0739 77.6269 54.1357 77.4778 54.1357 77.3224C54.1357 77.167 54.0739 77.018 53.9639 76.9081C53.8538 76.7982 53.7045 76.7365 53.5489 76.7365C53.3933 76.7365 53.244 76.7982 53.134 76.9081C53.0239 77.018 52.9621 77.167 52.9621 77.3224C52.9621 77.4778 53.0239 77.6269 53.134 77.7367C53.244 77.8466 53.3933 77.9084 53.5489 77.9084Z" fill="#6287F6"/>
<path d="M58.8616 74.0489C59.0172 74.0489 59.1664 73.9872 59.2765 73.8773C59.3865 73.7674 59.4484 73.6183 59.4484 73.4629C59.4484 73.3075 59.3865 73.1585 59.2765 73.0486C59.1664 72.9387 59.0172 72.877 58.8616 72.877C58.7059 72.877 58.5567 72.9387 58.4466 73.0486C58.3366 73.1585 58.2747 73.3075 58.2747 73.4629C58.2747 73.6183 58.3366 73.7674 58.4466 73.8773C58.5567 73.9872 58.7059 74.0489 58.8616 74.0489Z" fill="#6287F6"/>
<path d="M156.977 113.136C157.133 113.136 157.282 113.074 157.392 112.964C157.502 112.854 157.564 112.705 157.564 112.55C157.564 112.395 157.502 112.246 157.392 112.136C157.282 112.026 157.133 111.964 156.977 111.964C156.821 111.964 156.672 112.026 156.562 112.136C156.452 112.246 156.39 112.395 156.39 112.55C156.39 112.705 156.452 112.854 156.562 112.964C156.672 113.074 156.821 113.136 156.977 113.136Z" fill="#6287F6"/>
<path d="M50.6461 69.2206C50.8018 69.2206 50.951 69.1589 51.0611 69.049C51.1711 68.9391 51.2329 68.7901 51.2329 68.6347C51.2329 68.4793 51.1711 68.3302 51.0611 68.2204C50.951 68.1105 50.8018 68.0487 50.6461 68.0487C50.4905 68.0487 50.3412 68.1105 50.2312 68.2204C50.1211 68.3302 50.0593 68.4793 50.0593 68.6347C50.0593 68.7901 50.1211 68.9391 50.2312 69.049C50.3412 69.1589 50.4905 69.2206 50.6461 69.2206Z" fill="#6287F6"/>
<path d="M279.731 179.255C279.887 179.255 280.036 179.193 280.146 179.083C280.256 178.973 280.318 178.824 280.318 178.669C280.318 178.514 280.256 178.365 280.146 178.255C280.036 178.145 279.887 178.083 279.731 178.083C279.575 178.083 279.426 178.145 279.316 178.255C279.206 178.365 279.144 178.514 279.144 178.669C279.144 178.824 279.206 178.973 279.316 179.083C279.426 179.193 279.575 179.255 279.731 179.255Z" fill="#6287F6"/>
<path d="M285.051 184.56C285.207 184.56 285.356 184.498 285.466 184.388C285.576 184.278 285.638 184.129 285.638 183.974C285.638 183.818 285.576 183.669 285.466 183.559C285.356 183.45 285.207 183.388 285.051 183.388C284.896 183.388 284.747 183.45 284.636 183.559C284.526 183.669 284.465 183.818 284.465 183.974C284.465 184.129 284.526 184.278 284.636 184.388C284.747 184.498 284.896 184.56 285.051 184.56Z" fill="#6287F6"/>
<path d="M273.448 189.388C273.604 189.388 273.753 189.326 273.863 189.216C273.973 189.106 274.035 188.957 274.035 188.802C274.035 188.647 273.973 188.498 273.863 188.388C273.753 188.278 273.604 188.216 273.448 188.216C273.292 188.216 273.143 188.278 273.033 188.388C272.923 188.498 272.861 188.647 272.861 188.802C272.861 188.957 272.923 189.106 273.033 189.216C273.143 189.326 273.292 189.388 273.448 189.388Z" fill="#6287F6"/>
<path d="M258.95 42.6809C259.105 42.6809 259.255 42.6191 259.365 42.5092C259.475 42.3993 259.537 42.2503 259.537 42.0949C259.537 41.9395 259.475 41.7905 259.365 41.6806C259.255 41.5707 259.105 41.5089 258.95 41.5089C258.794 41.5089 258.645 41.5707 258.535 41.6806C258.425 41.7905 258.363 41.9395 258.363 42.0949C258.363 42.2503 258.425 42.3993 258.535 42.5092C258.645 42.6191 258.794 42.6809 258.95 42.6809Z" fill="#6287F6"/>
<path d="M267.165 44.6106C267.321 44.6106 267.47 44.5489 267.58 44.439C267.69 44.3291 267.752 44.18 267.752 44.0246C267.752 43.8692 267.69 43.7202 267.58 43.6103C267.47 43.5004 267.321 43.4387 267.165 43.4387C267.01 43.4387 266.86 43.5004 266.75 43.6103C266.64 43.7202 266.578 43.8692 266.578 44.0246C266.578 44.18 266.64 44.3291 266.75 44.439C266.86 44.5489 267.01 44.6106 267.165 44.6106Z" fill="#6287F6"/>
<path d="M259.435 50.8842C259.591 50.8842 259.74 50.8225 259.85 50.7126C259.96 50.6027 260.022 50.4536 260.022 50.2982C260.022 50.1428 259.96 49.9938 259.85 49.8839C259.74 49.774 259.591 49.7123 259.435 49.7123C259.279 49.7123 259.13 49.774 259.02 49.8839C258.91 49.9938 258.848 50.1428 258.848 50.2982C258.848 50.4536 258.91 50.6027 259.02 50.7126C259.13 50.8225 259.279 50.8842 259.435 50.8842Z" fill="#6287F6"/>
<path d="M168.572 86.5961C168.728 86.5961 168.877 86.5344 168.987 86.4245C169.097 86.3146 169.159 86.1656 169.159 86.0102C169.159 85.8548 169.097 85.7057 168.987 85.5958C168.877 85.4859 168.728 85.4242 168.572 85.4242C168.417 85.4242 168.267 85.4859 168.157 85.5958C168.047 85.7057 167.986 85.8548 167.986 86.0102C167.986 86.1656 168.047 86.3146 168.157 86.4245C168.267 86.5344 168.417 86.5961 168.572 86.5961Z" fill="#6287F6"/>
<path d="M170.02 78.8693C170.176 78.8693 170.325 78.8076 170.435 78.6977C170.545 78.5878 170.607 78.4388 170.607 78.2834C170.607 78.128 170.545 77.9789 170.435 77.8691C170.325 77.7592 170.176 77.6974 170.02 77.6974C169.864 77.6974 169.715 77.7592 169.605 77.8691C169.495 77.9789 169.433 78.128 169.433 78.2834C169.433 78.4388 169.495 78.5878 169.605 78.6977C169.715 78.8076 169.864 78.8693 170.02 78.8693Z" fill="#6287F6"/>
<path d="M175.825 87.0727C175.981 87.0727 176.13 87.011 176.24 86.9011C176.35 86.7912 176.412 86.6421 176.412 86.4867C176.412 86.3313 176.35 86.1823 176.24 86.0724C176.13 85.9625 175.981 85.9008 175.825 85.9008C175.67 85.9008 175.521 85.9625 175.411 86.0724C175.3 86.1823 175.239 86.3313 175.239 86.4867C175.239 86.6421 175.3 86.7912 175.411 86.9011C175.521 87.011 175.67 87.0727 175.825 87.0727Z" fill="#6287F6"/>
<path d="M166.155 219.311C166.31 219.311 166.46 219.249 166.57 219.139C166.68 219.029 166.742 218.88 166.742 218.725C166.742 218.569 166.68 218.42 166.57 218.31C166.46 218.201 166.31 218.139 166.155 218.139C165.999 218.139 165.85 218.201 165.74 218.31C165.63 218.42 165.568 218.569 165.568 218.725C165.568 218.88 165.63 219.029 165.74 219.139C165.85 219.249 165.999 219.311 166.155 219.311Z" fill="#6287F6"/>
<path d="M170.474 225.584C170.629 225.584 170.779 225.523 170.889 225.413C170.999 225.303 171.061 225.154 171.061 224.998C171.061 224.843 170.999 224.694 170.889 224.584C170.779 224.474 170.629 224.412 170.474 224.412C170.318 224.412 170.169 224.474 170.059 224.584C169.949 224.694 169.887 224.843 169.887 224.998C169.887 225.154 169.949 225.303 170.059 225.413C170.169 225.523 170.318 225.584 170.474 225.584Z" fill="#6287F6"/>
<path d="M288.432 227.991C288.587 227.991 288.736 227.929 288.846 227.819C288.957 227.709 289.018 227.56 289.018 227.405C289.018 227.249 288.957 227.1 288.846 226.99C288.736 226.88 288.587 226.819 288.432 226.819C288.276 226.819 288.127 226.88 288.017 226.99C287.907 227.1 287.845 227.249 287.845 227.405C287.845 227.56 287.907 227.709 288.017 227.819C288.127 227.929 288.276 227.991 288.432 227.991Z" fill="#6287F6"/>
<path d="M272.486 99.6199C272.641 99.6199 272.791 99.5582 272.901 99.4483C273.011 99.3384 273.073 99.1894 273.073 99.034C273.073 98.8786 273.011 98.7295 272.901 98.6196C272.791 98.5097 272.641 98.448 272.486 98.448C272.33 98.448 272.181 98.5097 272.071 98.6196C271.961 98.7295 271.899 98.8786 271.899 99.034C271.899 99.1894 271.961 99.3384 272.071 99.4483C272.181 99.5582 272.33 99.6199 272.486 99.6199Z" fill="#6287F6"/>
<path d="M63.2118 52.3296C63.3674 52.3296 63.5167 52.2678 63.6268 52.1579C63.7368 52.0481 63.7986 51.899 63.7986 51.7436C63.7986 51.5882 63.7368 51.4392 63.6268 51.3293C63.5167 51.2194 63.3674 51.1576 63.2118 51.1576C63.0562 51.1576 62.9069 51.2194 62.7969 51.3293C62.6868 51.4392 62.625 51.5882 62.625 51.7436C62.625 51.899 62.6868 52.0481 62.7969 52.1579C62.9069 52.2678 63.0562 52.3296 63.2118 52.3296Z" fill="#6287F6"/>
<path d="M123.145 19.0161C123.301 19.0161 123.45 18.9544 123.56 18.8445C123.67 18.7346 123.732 18.5856 123.732 18.4302C123.732 18.2748 123.67 18.1258 123.56 18.0159C123.45 17.906 123.301 17.8442 123.145 17.8442C122.989 17.8442 122.84 17.906 122.73 18.0159C122.62 18.1258 122.558 18.2748 122.558 18.4302C122.558 18.5856 122.62 18.7346 122.73 18.8445C122.84 18.9544 122.989 19.0161 123.145 19.0161Z" fill="#6287F6"/>
<path d="M166.155 1.17191C166.31 1.17191 166.46 1.11017 166.57 1.00028C166.68 0.890395 166.742 0.741358 166.742 0.585954C166.742 0.430549 166.68 0.281506 166.57 0.171618C166.46 0.0617308 166.31 0 166.155 0C165.999 0 165.85 0.0617308 165.74 0.171618C165.63 0.281506 165.568 0.430549 165.568 0.585954C165.568 0.741358 165.63 0.890395 165.74 1.00028C165.85 1.11017 165.999 1.17191 166.155 1.17191Z" fill="#6287F6"/>
<path d="M181.623 12.766C181.779 12.766 181.928 12.7042 182.038 12.5943C182.148 12.4845 182.21 12.3354 182.21 12.18C182.21 12.0246 182.148 11.8756 182.038 11.7657C181.928 11.6558 181.779 11.5941 181.623 11.5941C181.468 11.5941 181.318 11.6558 181.208 11.7657C181.098 11.8756 181.036 12.0246 181.036 12.18C181.036 12.3354 181.098 12.4845 181.208 12.5943C181.318 12.7042 181.468 12.766 181.623 12.766Z" fill="#6287F6"/>
<path d="M55.458 222.201C55.6136 222.201 55.7629 222.14 55.873 222.03C55.983 221.92 56.0448 221.771 56.0448 221.615C56.0448 221.46 55.983 221.311 55.873 221.201C55.7629 221.091 55.6136 221.029 55.458 221.029C55.3024 221.029 55.1531 221.091 55.0431 221.201C54.933 221.311 54.8712 221.46 54.8712 221.615C54.8712 221.771 54.933 221.92 55.0431 222.03C55.1531 222.14 55.3024 222.201 55.458 222.201Z" fill="#6287F6"/>
<path d="M33.2451 205.795C33.4007 205.795 33.55 205.733 33.66 205.623C33.7701 205.513 33.8319 205.364 33.8319 205.209C33.8319 205.053 33.7701 204.904 33.66 204.794C33.55 204.685 33.4007 204.623 33.2451 204.623C33.0894 204.623 32.9402 204.685 32.8301 204.794C32.7201 204.904 32.6583 205.053 32.6583 205.209C32.6583 205.364 32.7201 205.513 32.8301 205.623C32.9402 205.733 33.0894 205.795 33.2451 205.795Z" fill="#6287F6"/>
<path d="M35.1777 209.17C35.3333 209.17 35.4826 209.108 35.5926 208.998C35.7027 208.888 35.7645 208.739 35.7645 208.584C35.7645 208.428 35.7027 208.279 35.5926 208.17C35.4826 208.06 35.3333 207.998 35.1777 207.998C35.022 207.998 34.8728 208.06 34.7627 208.17C34.6527 208.279 34.5909 208.428 34.5909 208.584C34.5909 208.739 34.6527 208.888 34.7627 208.998C34.8728 209.108 35.022 209.17 35.1777 209.17Z" fill="#6287F6"/>
<path d="M31.3125 211.584C31.4681 211.584 31.6174 211.522 31.7274 211.412C31.8375 211.302 31.8993 211.153 31.8993 210.998C31.8993 210.843 31.8375 210.694 31.7274 210.584C31.6174 210.474 31.4681 210.412 31.3125 210.412C31.1569 210.412 31.0076 210.474 30.8976 210.584C30.7875 210.694 30.7257 210.843 30.7257 210.998C30.7257 211.153 30.7875 211.302 30.8976 211.412C31.0076 211.522 31.1569 211.584 31.3125 211.584Z" fill="#6287F6"/>
<path d="M256.055 251.155C256.211 251.155 256.36 251.094 256.47 250.984C256.58 250.874 256.642 250.725 256.642 250.569C256.642 250.414 256.58 250.265 256.47 250.155C256.36 250.045 256.211 249.983 256.055 249.983C255.899 249.983 255.75 250.045 255.64 250.155C255.53 250.265 255.468 250.414 255.468 250.569C255.468 250.725 255.53 250.874 255.64 250.984C255.75 251.094 255.899 251.155 256.055 251.155Z" fill="#6287F6"/>
<path d="M53.5489 169.598C53.7045 169.598 53.8538 169.537 53.9639 169.427C54.0739 169.317 54.1357 169.168 54.1357 169.012C54.1357 168.857 54.0739 168.708 53.9639 168.598C53.8538 168.488 53.7045 168.426 53.5489 168.426C53.3933 168.426 53.244 168.488 53.134 168.598C53.0239 168.708 52.9621 168.857 52.9621 169.012C52.9621 169.168 53.0239 169.317 53.134 169.427C53.244 169.537 53.3933 169.598 53.5489 169.598Z" fill="#6287F6"/>
<path d="M45.3335 262.773C45.4891 262.773 45.6384 262.711 45.7484 262.601C45.8585 262.491 45.9203 262.342 45.9203 262.187C45.9203 262.031 45.8585 261.882 45.7484 261.773C45.6384 261.663 45.4891 261.601 45.3335 261.601C45.1779 261.601 45.0286 261.663 44.9186 261.773C44.8085 261.882 44.7467 262.031 44.7467 262.187C44.7467 262.342 44.8085 262.491 44.9186 262.601C45.0286 262.711 45.1779 262.773 45.3335 262.773Z" fill="#6287F6"/>
<path d="M154.559 256.468C154.715 256.468 154.864 256.406 154.974 256.296C155.084 256.186 155.146 256.037 155.146 255.882C155.146 255.727 155.084 255.578 154.974 255.468C154.864 255.358 154.715 255.296 154.559 255.296C154.404 255.296 154.254 255.358 154.144 255.468C154.034 255.578 153.972 255.727 153.972 255.882C153.972 256.037 154.034 256.186 154.144 256.296C154.254 256.406 154.404 256.468 154.559 256.468Z" fill="#6287F6"/>
<path d="M301.482 262.773C301.638 262.773 301.787 262.711 301.897 262.601C302.007 262.491 302.069 262.342 302.069 262.187C302.069 262.031 302.007 261.882 301.897 261.773C301.787 261.663 301.638 261.601 301.482 261.601C301.327 261.601 301.177 261.663 301.067 261.773C300.957 261.882 300.895 262.031 300.895 262.187C300.895 262.342 300.957 262.491 301.067 262.601C301.177 262.711 301.327 262.773 301.482 262.773Z" fill="#6287F6"/>
<path d="M181.138 2.60945C181.294 2.60945 181.443 2.54771 181.553 2.43782C181.663 2.32793 181.725 2.1789 181.725 2.02349C181.725 1.86809 181.663 1.71905 181.553 1.60916C181.443 1.49927 181.294 1.43754 181.138 1.43754C180.982 1.43754 180.833 1.49927 180.723 1.60916C180.613 1.71905 180.551 1.86809 180.551 2.02349C180.551 2.1789 180.613 2.32793 180.723 2.43782C180.833 2.54771 180.982 2.60945 181.138 2.60945Z" fill="#6287F6"/>
<path d="M223.185 70.666C223.341 70.666 223.49 70.6043 223.6 70.4944C223.71 70.3845 223.772 70.2354 223.772 70.08C223.772 69.9246 223.71 69.7756 223.6 69.6657C223.49 69.5558 223.341 69.4941 223.185 69.4941C223.03 69.4941 222.881 69.5558 222.77 69.6657C222.66 69.7756 222.599 69.9246 222.599 70.08C222.599 70.2354 222.66 70.3845 222.77 70.4944C222.881 70.6043 223.03 70.666 223.185 70.666Z" fill="#6287F6"/>
<path d="M237.684 60.5329C237.839 60.5329 237.989 60.4712 238.099 60.3613C238.209 60.2514 238.27 60.1024 238.27 59.9469C238.27 59.7915 238.209 59.6425 238.099 59.5326C237.989 59.4227 237.839 59.361 237.684 59.361C237.528 59.361 237.379 59.4227 237.269 59.5326C237.159 59.6425 237.097 59.7915 237.097 59.9469C237.097 60.1024 237.159 60.2514 237.269 60.3613C237.379 60.4712 237.528 60.5329 237.684 60.5329Z" fill="#6287F6"/>
<path d="M19.4666 97.6902C19.6223 97.6902 19.7715 97.6284 19.8816 97.5185C19.9916 97.4087 20.0535 97.2596 20.0535 97.1042C20.0535 96.9488 19.9916 96.7998 19.8816 96.6899C19.7715 96.58 19.6223 96.5183 19.4666 96.5183C19.311 96.5183 19.1617 96.58 19.0517 96.6899C18.9416 96.7998 18.8798 96.9488 18.8798 97.1042C18.8798 97.2596 18.9416 97.4087 19.0517 97.5185C19.1617 97.6284 19.311 97.6902 19.4666 97.6902Z" fill="#6287F6"/>
<path d="M306.318 84.182C306.473 84.182 306.623 84.1203 306.733 84.0104C306.843 83.9005 306.904 83.7515 306.904 83.596C306.904 83.4406 306.843 83.2916 306.733 83.1817C306.623 83.0718 306.473 83.0101 306.318 83.0101C306.162 83.0101 306.013 83.0718 305.903 83.1817C305.793 83.2916 305.731 83.4406 305.731 83.596C305.731 83.7515 305.793 83.9005 305.903 84.0104C306.013 84.1203 306.162 84.182 306.318 84.182Z" fill="#6287F6"/>
<path d="M170.286 67.9862C188.021 78.3784 203.207 92.5952 214.735 109.598C226.263 126.601 233.841 145.96 236.917 166.262C237.097 167.512 234.484 166.169 234.241 166.083C214.498 158.812 197.555 145.507 185.825 128.063C174.095 110.618 168.175 89.923 168.909 68.9238C168.909 68.2362 169.597 67.58 170.286 67.9862Z" fill="#CEDCFD"/>
<path d="M173.815 79.549L222.325 147.449L200.057 134.332C199.275 133.886 198.492 135.019 199.275 135.465C207.589 140.381 215.911 145.29 224.242 150.192C229.207 157.161 234.181 164.127 239.162 171.091C239.671 171.809 240.727 170.911 240.203 170.2L225.556 149.66C225.549 149.563 225.517 149.469 225.464 149.387C225.411 149.305 225.337 149.238 225.251 149.192H225.196L174.855 78.6584C174.339 77.9396 173.306 78.8381 173.815 79.549Z" fill="#FAEDEC"/>
<path d="M183.485 108.667C183.335 108.563 183.149 108.524 182.97 108.557C182.79 108.59 182.631 108.693 182.527 108.843C182.423 108.993 182.383 109.178 182.416 109.358C182.449 109.537 182.552 109.696 182.703 109.8L203.234 123.324C203.384 123.427 203.57 123.467 203.749 123.434C203.929 123.401 204.088 123.298 204.192 123.148C204.296 122.998 204.336 122.812 204.303 122.633C204.27 122.453 204.167 122.294 204.016 122.191L183.485 108.667Z" fill="#FAEDEC"/>
<path d="M188.908 86.1273L190.95 100.971L173.447 87.854C172.743 87.3227 171.976 88.4634 172.664 88.9946L191.161 102.886C191.834 103.393 192.546 102.386 191.998 101.839C192.118 101.771 192.215 101.668 192.275 101.543C192.335 101.419 192.356 101.28 192.335 101.143L190.238 85.8617C190.136 84.9867 188.79 85.2523 188.908 86.1273Z" fill="#FAEDEC"/>
<path d="M204.728 103.784L203.985 120.933C203.989 121.105 204.057 121.269 204.177 121.393C204.296 121.517 204.458 121.592 204.63 121.603C204.802 121.614 204.972 121.56 205.106 121.452C205.24 121.344 205.328 121.189 205.354 121.019L206.097 103.87C206.093 103.698 206.025 103.534 205.905 103.41C205.786 103.286 205.624 103.211 205.452 103.2C205.28 103.189 205.11 103.243 204.976 103.351C204.842 103.46 204.754 103.614 204.728 103.784Z" fill="#FAEDEC"/>
<path d="M221.042 131.199C222.191 136.324 222.68 141.575 222.497 146.824C222.485 147.005 222.546 147.182 222.666 147.318C222.785 147.453 222.954 147.536 223.135 147.547C223.315 147.558 223.493 147.498 223.628 147.378C223.764 147.259 223.847 147.091 223.858 146.91C224.055 141.549 223.56 136.184 222.387 130.949C222.192 130.082 220.846 130.339 221.042 131.199Z" fill="#FAEDEC"/>
<path d="M196.896 174.067C194.134 170.591 191.63 165.981 192.867 159.442C194.205 152.41 199.314 146.277 204.079 140.809C210.338 133.636 215.479 127.246 216.856 118.191C217.857 111.667 217.411 105.261 220.408 98.3152C223.89 90.229 230.837 84.4945 237.144 81.1272C244.506 77.2209 251.932 75.8536 259.239 70.2519C263.754 66.7968 267.278 62.2162 269.458 56.9703C271.163 52.9702 272.314 48.9232 274.058 44.9309C279.668 32.0478 291.272 24.3991 298.877 27.2586C306.85 27.9148 311.396 36.1885 308.133 48.3529C305.512 58.0797 298.454 65.5409 292.704 73.8536C286.444 82.8695 285.45 90.5415 285.231 99.198C285.083 105.089 285.122 111.284 282.532 117.87C279.942 124.457 275.083 129.707 270.209 134.277C264.247 139.879 256.908 145.551 253.778 153.989C252.08 158.512 251.712 162.934 249.866 167.481C248.548 170.611 246.816 173.551 244.718 176.224C233.529 190.654 219.453 191.552 210.628 186.552C205.315 183.614 200.8 178.974 196.896 174.067Z" fill="#CEDCFD"/>
<path d="M295.348 45.8684C286.528 58.3271 277.765 70.8275 269.059 83.3695C269.899 77.1714 270.733 70.9759 271.563 64.783C271.727 63.5877 269.857 63.5252 269.7 64.7049L266.813 86.1117C266.793 86.2624 266.812 86.4156 266.868 86.5571C259.565 97.0782 252.312 107.633 245.109 118.222C244.806 107.737 244.496 97.2527 244.178 86.768C244.178 85.5727 242.277 85.4867 242.316 86.6821C242.644 97.8751 242.975 109.073 243.309 120.277C243.315 120.43 243.358 120.581 243.434 120.714C236.753 130.522 230.112 140.355 223.514 150.215C223.592 141.486 223.665 132.756 223.733 124.027C223.733 122.831 221.879 122.753 221.871 123.949C221.793 133.636 221.712 143.327 221.628 153.02C217.2 159.624 212.787 166.239 208.39 172.864L208.875 146.488C208.867 146.253 208.771 146.029 208.605 145.861C208.439 145.693 208.216 145.594 207.98 145.583C207.744 145.572 207.512 145.65 207.332 145.802C207.151 145.954 207.034 146.168 207.005 146.402C206.848 155.299 206.687 164.192 206.52 173.083C206.517 173.203 206.538 173.323 206.583 173.435C206.628 173.547 206.695 173.649 206.781 173.734C206.867 173.819 206.969 173.885 207.082 173.929C207.194 173.973 207.315 173.993 207.435 173.989C207.424 174.083 207.424 174.177 207.435 174.27C202.376 181.901 197.332 189.552 192.303 197.224C191.646 198.224 193.234 199.216 193.868 198.209C198.938 190.453 204.04 182.716 209.172 174.997C218.05 173.908 226.853 172.28 235.532 170.122C235.756 170.05 235.945 169.897 236.062 169.692C236.178 169.487 236.213 169.247 236.16 169.018C236.107 168.788 235.969 168.588 235.774 168.455C235.58 168.322 235.343 168.268 235.11 168.301C227.015 170.313 218.813 171.86 210.541 172.934C214.641 166.773 218.752 160.611 222.872 154.45C223.04 154.398 223.186 154.294 223.29 154.154C223.394 154.013 223.451 153.843 223.451 153.668V153.621L224.038 152.754L250.484 146.363C250.708 146.291 250.897 146.138 251.014 145.933C251.13 145.729 251.165 145.488 251.112 145.259C251.059 145.03 250.921 144.829 250.727 144.696C250.532 144.564 250.295 144.509 250.062 144.543L225.619 150.41C232.149 140.671 238.714 130.944 245.312 121.23L273.753 114.113C273.872 114.085 273.985 114.034 274.085 113.963C274.184 113.892 274.269 113.802 274.333 113.698C274.398 113.594 274.441 113.479 274.461 113.358C274.481 113.238 274.477 113.114 274.45 112.995C274.422 112.876 274.371 112.764 274.3 112.665C274.228 112.565 274.138 112.481 274.034 112.416C273.931 112.352 273.815 112.308 273.694 112.288C273.573 112.268 273.45 112.272 273.331 112.3L246.885 118.933C254.224 108.183 261.6 97.4532 269.012 86.7446C269.175 86.7932 269.349 86.7932 269.513 86.7446L283.228 83.5335C283.469 83.4776 283.678 83.3285 283.808 83.1189C283.939 82.9094 283.981 82.6567 283.925 82.4163C283.869 82.176 283.719 81.9677 283.51 81.8373C283.3 81.7069 283.047 81.665 282.806 81.721L270.444 84.6429C279.217 72.002 288.046 59.4053 296.929 46.8528C297.625 45.8763 296.044 44.8918 295.348 45.8684Z" fill="#FAEDEC"/>
<path d="M282.376 202.154L195.809 252.515L194.87 233.311L281.5 184.247L282.376 202.154Z" fill="#BF4D17"/>
<path d="M194.87 233.311L105.181 205.646L201.161 163.77L281.5 184.247L194.87 233.311Z" fill="#FF6822"/>
<path d="M106.112 224.631L195.801 252.296L194.87 233.311L105.181 205.646L106.112 224.631Z" fill="white"/>
<path d="M105.275 207.592L194.964 235.256L194.87 233.311L105.181 205.646L105.275 207.592Z" fill="#BF4D17"/>
<path d="M106.12 224.85L195.809 252.515L195.715 250.569L106.026 222.905L106.12 224.85Z" fill="#BF4D17"/>
<path d="M189.377 248.671L195.715 250.569L194.964 235.256L188.618 233.295L189.377 248.671Z" fill="#8F3B14"/>
<path d="M113.928 221.217L116.956 219.475L120.266 223.115L120 217.779L113.655 215.826L113.928 221.217Z" fill="#8F3B14"/>
<path d="M270.381 177.81L194.447 221.905L193.641 205.318L269.654 162.903L270.381 177.81Z" fill="white"/>
<path d="M269.724 164.348L193.72 207.045L193.641 205.318L269.654 162.903L269.724 164.348Z" fill="#4C7ED6"/>
<path d="M270.436 178.88L194.463 222.131L194.377 220.412L270.366 177.435L270.436 178.88Z" fill="#4C7ED6"/>
<g style="mix-blend-mode:multiply">
<path d="M270.561 181.419L195.011 224.928L194.463 222.17L267.51 180.528L270.561 181.419Z" fill="#E2D6D6"/>
</g>
<path d="M269.654 162.903L199.071 145.27L115.861 181.536L119.484 186.411L119.304 182.685L193.641 205.318L269.654 162.903Z" fill="#6CA0FA"/>
<path d="M118.834 198.779L194.017 221.967C194.063 221.983 194.111 221.988 194.159 221.982C194.207 221.975 194.253 221.958 194.292 221.93C194.332 221.903 194.365 221.866 194.388 221.824C194.411 221.781 194.423 221.734 194.424 221.686L193.641 205.709L120.094 183.052C119.676 182.905 119.23 182.86 118.791 182.92C118.353 182.981 117.935 183.144 117.572 183.398C117.21 183.651 116.913 183.988 116.707 184.378C116.5 184.769 116.39 185.204 116.385 185.646L116.917 196.451C116.962 196.987 117.169 197.498 117.512 197.914C117.854 198.33 118.315 198.631 118.834 198.779Z" fill="white"/>
<path d="M182.601 215.217L185.215 213.709L188.071 216.858L187.844 207.904L182.367 206.217L182.601 215.217Z" fill="#4C7ED6"/>
<path d="M122.918 199.959L116.675 198.044L115.861 181.536L122.112 183.45L122.918 199.959Z" fill="#4C7ED6"/>
<path d="M118.013 198.49L116.675 198.044L115.861 181.536L117.207 181.982L118.013 198.49Z" fill="#4C7ED6"/>
<path d="M115.947 183.216L193.72 206.998L193.641 205.318L115.861 181.536L115.947 183.216Z" fill="#4C7ED6"/>
<path d="M116.651 198.076L194.502 222.108L194.416 220.436L116.557 196.49L116.651 198.076Z" fill="#4C7ED6"/>
<g style="mix-blend-mode:multiply">
<path d="M116.964 200.591L195.011 224.928L194.408 222.108L120.094 199.123L116.964 200.591Z" fill="#E2D6D6"/>
</g>
<path d="M163.62 170.161C166.304 173.809 163.244 183.646 155.796 194.537C147.693 206.222 137.163 216.026 124.921 223.28C97.0672 239.53 69.5807 238.842 64.362 231.506L38.3699 193.466L139.24 134.644C139.24 134.644 163.432 169.895 163.62 170.161Z" fill="#3D3A3A"/>
<path d="M161.484 120.456L106.394 194.951L103.444 190.63L158.691 116.37L161.484 120.456Z" fill="#333030"/>
<path d="M158.699 116.37L128.56 156.879L103.444 190.63L20.8124 209.193L17.2993 209.756L75.9731 136.222L158.699 116.37Z" fill="#3D3A3A"/>
<path d="M19.9517 213.639L106.401 194.966L103.444 190.63L17.2993 209.756L19.9517 213.639Z" fill="#333030"/>
<g style="mix-blend-mode:multiply">
<path d="M158.691 116.37L128.552 156.887L126.909 159.114C131.799 127.183 75.9731 136.222 75.9731 136.222L158.691 116.37Z" fill="#E2D6D6"/>
</g>
<g style="mix-blend-mode:multiply">
<path d="M163.62 170.161C166.304 173.809 163.244 183.646 155.796 194.537C155.796 194.537 158.143 179.591 151.829 170.372C143.457 158.114 132.386 159.973 132.386 159.973L144.904 142.973C144.904 142.973 163.432 169.895 163.62 170.161Z" fill="#EEE1E1"/>
</g>
<path d="M93.7106 158.403C93.8582 158.655 93.9399 158.941 93.9481 159.233C93.9563 159.525 93.8908 159.814 93.7575 160.075C93.026 161.52 91.857 162.698 90.4166 163.442C87.7642 165.005 84.9396 165.255 84.0868 164.02C83.4687 163.114 84.0868 161.676 85.5265 160.34C86.0952 159.826 86.7168 159.373 87.3808 158.989C90.0332 157.434 92.8734 157.176 93.7106 158.403Z" fill="#FF6822"/>
<path d="M88.8987 161.208L61.9365 196.701C61.9365 196.701 56.5456 201.779 52.2892 214.764" stroke="#FF6822" stroke-width="2.24" stroke-miterlimit="10"/>
<path d="M93.7106 158.403C93.8582 158.655 93.9399 158.941 93.9481 159.233C93.9563 159.525 93.8908 159.814 93.7575 160.075C92.4823 159.396 91.0509 159.063 89.6065 159.109C88.162 159.156 86.7551 159.58 85.5265 160.34C86.0952 159.826 86.7168 159.373 87.3808 158.989C90.0332 157.434 92.8734 157.176 93.7106 158.403Z" fill="#BF4D17"/>
<path d="M59.8865 229.834C62.0382 238.585 62.1164 246.022 60.0743 246.444C58.0322 246.866 54.5973 240.132 52.4848 231.381C50.3723 222.631 50.2471 215.193 52.2892 214.772C52.8604 214.647 53.5411 215.084 54.2531 215.959C56.1309 218.24 58.3295 223.514 59.8865 229.834Z" fill="#FF6822"/>
<path d="M59.8865 229.834C62.0382 238.585 62.1164 246.022 60.0743 246.444C60.176 227.069 52.344 217.608 52.344 217.608L54.2531 215.959C56.1309 218.24 58.3295 223.514 59.8865 229.834Z" fill="#BF4D17"/>
<path d="M56.1309 214.568C56.2802 215.195 56.2452 215.851 56.03 216.458C55.8149 217.065 55.4288 217.597 54.9181 217.99C54.4218 218.39 53.8351 218.662 53.2092 218.784C52.5833 218.905 51.9372 218.872 51.3271 218.687C50.7169 218.502 50.1613 218.171 49.7085 217.723C49.2557 217.275 48.9195 216.723 48.7292 216.115C48.5907 215.508 48.6234 214.874 48.8237 214.283C49.0239 213.693 49.3839 213.17 49.8637 212.771C50.3615 212.354 50.9558 212.066 51.5929 211.936C52.543 211.712 53.5427 211.86 54.3867 212.35C55.2308 212.84 55.8549 213.633 56.1309 214.568Z" fill="#FF6822"/>
<path d="M56.1309 214.568C56.2802 215.195 56.2452 215.851 56.03 216.458C55.8149 217.065 55.4288 217.597 54.9181 217.99C54.8542 217.849 54.8018 217.703 54.7617 217.553C53.4941 212.99 50.5914 212.74 49.8637 212.748C50.3615 212.33 50.9558 212.043 51.5929 211.912C52.5461 211.69 53.5485 211.841 54.3931 212.335C55.2376 212.83 55.8597 213.629 56.1309 214.568Z" fill="#BF4D17"/>
<path d="M259.835 116.04L248.156 119.612L276.14 210.838L287.818 207.266L259.835 116.04Z" fill="#EBC827"/>
<path d="M252.909 117.776L251.614 118.172L279.706 209.749L281 209.353L252.909 117.776Z" fill="#3D3A3A"/>
<path d="M256.153 116.779L254.859 117.175L282.952 208.759L284.247 208.363L256.153 116.779Z" fill="#3D3A3A"/>
<path d="M287.708 206.91L275.753 210.567L276.466 212.89L288.421 209.233L287.708 206.91Z" fill="#3D3A3A"/>
<path d="M276.465 212.889L288.435 209.228L288.802 210.424C289.039 211.198 288.959 212.035 288.578 212.751C288.198 213.466 287.548 214.002 286.772 214.239L280.66 216.108C280.276 216.226 279.873 216.267 279.473 216.228C279.073 216.19 278.684 216.074 278.329 215.886C277.975 215.697 277.66 215.441 277.405 215.132C277.149 214.823 276.957 214.466 276.839 214.082L276.473 212.887L276.465 212.889Z" fill="#FF6822"/>
<path d="M259.842 116.019L248.161 119.589L250.234 111.425L251.149 107.808L253.825 110.331L259.842 116.019Z" fill="#FBE5C6"/>
<path d="M253.825 110.331L250.234 111.425L251.149 107.808L253.825 110.331Z" fill="#3D3A3A"/>
<path d="M76.826 62.947C76.9696 62.7168 77.0664 62.4605 77.1107 62.1929C77.155 61.9252 77.146 61.6515 77.0842 61.3873C77.0225 61.1232 76.9091 60.8738 76.7507 60.6534C76.5922 60.4331 76.3918 60.2461 76.1609 60.1032L64.1116 52.6108C63.881 52.4674 63.6244 52.3707 63.3563 52.3265C63.0883 52.2822 62.8142 52.2912 62.5496 52.3529C62.2851 52.4146 62.0353 52.5278 61.8146 52.686C61.594 52.8442 61.4067 53.0443 61.2636 53.2749L60.1526 55.0328L59.2684 56.4469L41.6796 84.7054C41.5345 84.9349 41.4365 85.1908 41.391 85.4583C41.3455 85.7258 41.3536 85.9997 41.4147 86.2641C41.4758 86.5285 41.5888 86.7782 41.747 86.9988C41.9053 87.2194 42.1057 87.4065 42.3368 87.5493L84.1885 113.55C84.4191 113.693 84.6758 113.79 84.9438 113.834C85.2118 113.879 85.486 113.87 85.7505 113.808C86.0151 113.746 86.2648 113.633 86.4855 113.475C86.7062 113.317 86.8934 113.116 87.0365 112.886L104.438 84.9633C104.583 84.7338 104.681 84.4779 104.726 84.2104C104.772 83.9429 104.764 83.669 104.702 83.4046C104.641 83.1402 104.528 82.8905 104.37 82.6699C104.212 82.4493 104.011 82.2622 103.78 82.1194L77.491 65.783C77.0268 65.4945 76.6961 65.0339 76.5714 64.5023C76.4468 63.9707 76.5383 63.4114 76.826 62.947Z" fill="#D1B223"/>
<path d="M84.1885 113.55L42.3368 87.5493C42.1057 87.4065 41.9053 87.2194 41.747 86.9988C41.5888 86.7782 41.4758 86.5285 41.4147 86.2641C41.3536 85.9997 41.3455 85.7258 41.391 85.4583C41.4365 85.1908 41.5345 84.9349 41.6796 84.7054L62.1712 58.7047C62.3143 58.4742 62.5016 58.274 62.7222 58.1158C62.9429 57.9576 63.1927 57.8444 63.4572 57.7827C63.7218 57.721 63.9959 57.7121 64.264 57.7563C64.532 57.8006 64.7886 57.8972 65.0192 58.0406L106.871 84.0492C107.102 84.1921 107.302 84.379 107.461 84.5994C107.619 84.8198 107.732 85.0692 107.794 85.3333C107.856 85.5975 107.865 85.8712 107.821 86.1388C107.776 86.4065 107.68 86.6628 107.536 86.893L87.0365 112.894C86.8928 113.124 86.7051 113.323 86.4841 113.48C86.2631 113.638 86.0133 113.75 85.7488 113.811C85.4843 113.872 85.2103 113.881 84.9426 113.836C84.6749 113.791 84.4186 113.694 84.1885 113.55Z" fill="#EBC827"/>
<g style="mix-blend-mode:multiply">
<path d="M181.756 161.7C179.886 160.223 176.866 162.114 176.6 164.481C176.334 166.848 177.962 169.02 179.855 170.466C185.481 174.747 193.219 174.489 200.276 174.044L213.069 173.263C216.363 173.059 220.111 172.606 222.012 169.903C224.203 166.778 222.403 162.09 219.062 160.254C215.721 158.418 211.52 159.012 208.069 160.614C205.033 162.028 202.24 164.208 198.907 164.52C192.984 165.13 184.824 159.051 179.347 161.395" fill="#F2E5E5"/>
</g>
<path d="M230.447 77.1662C229.265 77.4396 225.056 77.5021 221.136 77.8224C220.353 75.6349 219.18 70.8535 217.474 64.7908C216.716 62.9312 215.302 61.4135 213.499 60.5251C212.31 59.9938 210.526 60.9704 211.035 63.283C211.569 65.7713 212.283 68.2179 213.171 70.6035C215.244 76.4943 216.746 79.3147 217.685 80.7131C217.805 80.9577 217.969 81.1777 218.17 81.3616C218.267 81.4739 218.383 81.5667 218.515 81.635C218.896 81.8715 219.341 81.986 219.79 81.9632C223.405 81.8304 223.162 81.7054 227.802 80.3303C231.026 79.3694 230.501 80.0725 231.143 79.2444C231.667 78.5646 231.393 76.9474 230.447 77.1662Z" fill="#BF4D17"/>
<path d="M200.339 70.9082C201.074 73.9331 201.553 77.0143 201.771 80.1194C201.947 82.4073 201.781 84.7087 201.278 86.9477C200.996 88.2993 200.636 89.6274 200.237 90.9478C200.081 91.4478 198.805 95.4713 198.727 95.9089L217.451 97.1823C217.521 93.5104 214.133 81.721 217.451 74.463C219.798 69.4394 217.169 69.1034 215.706 64.6893C215.338 63.6033 212.725 61.4392 211.676 61.0954C211.113 60.9293 210.537 60.8092 209.955 60.736C206.825 60.2594 200.198 58.4782 199.189 62.9314C198.915 64.1424 199.384 68.0018 199.823 69.3066C200.042 69.8378 200.206 70.3691 200.339 70.9082Z" fill="#FF6822"/>
<path d="M216.637 134.152C216.675 133.802 216.691 133.45 216.684 133.097C216.761 132.475 216.795 131.849 216.785 131.222C216.785 128.386 217.122 116.316 217.318 109.097C217.566 105.13 217.611 101.153 217.451 97.1824L198.727 95.9089C198.108 98.1381 197.73 100.427 197.601 102.737C197.092 105.565 194.291 125.925 193.54 129.66C193.501 129.855 193.469 130.035 193.438 130.222C189.377 136.301 186.326 159.418 185.567 163.419C185.465 163.95 185.762 163.919 186.083 163.879C187.014 163.762 186.686 162.872 188 163.044C188.697 163.129 188.83 164.098 188.83 164.098C190.653 158.739 196.748 139.879 199.525 134.222C199.895 133.487 200.138 132.695 200.245 131.879C202.475 125.628 206.019 114.925 207.021 110.292C207.553 115.589 208.805 127.558 209.892 133.152C207.436 140.73 209.994 156.707 209.603 165.786C210.675 164.223 211.614 163.934 212.036 163.997C212.245 164.033 212.444 164.111 212.622 164.227C212.799 164.342 212.951 164.493 213.069 164.669C213.789 152.512 215.964 140.426 216.637 134.152Z" fill="#072C6E"/>
<path d="M213.327 164.676C213.958 165.615 214.828 166.37 215.847 166.864C217.216 167.591 220.197 168.098 218.491 168.536C216.959 168.813 215.383 168.727 213.891 168.286C212.873 168.072 211.839 167.938 210.8 167.887C209.235 167.77 209.235 167.676 209.587 165.965C210.033 163.614 212.725 163.286 213.327 164.676Z" fill="#21103F"/>
<path d="M188.837 163.747C189.025 164.176 189.111 166.208 190.48 166.934C191.85 167.661 194.839 168.161 193.133 168.606C191.601 168.88 190.026 168.794 188.532 168.356C187.554 168.13 187.476 167.044 186.31 166.958C184.784 166.848 184.745 166.747 185.097 165.036C185.543 162.684 188.243 162.364 188.837 163.747Z" fill="#21103F"/>
<path d="M203.171 68.5487L203.954 69.0019L202.428 73.6895C202.639 72.1426 202.898 70.4472 203.171 68.5487Z" fill="#FF4D2C"/>
<path d="M204.979 52.4702C204.94 52.6733 204.321 56.9703 204.04 60.2829C203.899 61.9001 204.971 63.5252 206.137 63.6424H206.191C207.334 63.7205 208.789 62.3689 208.797 60.7673C208.797 57.8688 209.149 54.9312 209.157 54.8843L204.979 52.4702Z" fill="#D68952"/>
<path d="M202.937 49.1888C203.054 52.9077 203.109 53.728 204.619 55.3453C206.084 56.8459 208.043 57.7672 210.135 57.9391C212.028 58.0641 213.57 56.1656 214.102 54.6343C215.014 51.5842 215.377 48.3967 215.174 45.22C215.048 43.1574 212.686 40.5324 210.072 40.3214C207.459 40.1105 202.655 40.1105 202.937 49.1888Z" fill="#EB975A"/>
<path d="M215.174 43.1106C214.528 41.9938 213.575 41.0855 212.427 40.4933C211.458 39.8485 210.349 39.4416 209.192 39.3058C208.035 39.17 206.862 39.3092 205.769 39.712C205.112 39.4542 204.431 39.2276 203.742 39.0323L203.789 38.9464C203.75 38.9464 199.807 36.7901 196.622 38.1651C194.854 38.9464 193.649 40.6574 193.039 43.2512H193.133C192.682 44.6443 192.707 46.1472 193.203 47.5247C193.712 48.8998 194.666 50.0717 195.167 51.4311C195.734 52.8222 195.75 54.3763 195.213 55.779C194.675 57.1816 193.624 58.328 192.272 58.986C193.274 59.8376 194.839 59.5798 195.942 58.8688C197.045 58.1578 197.757 56.5953 198.758 55.7437C200.448 54.3374 200.323 50.1654 202.53 50.3295L205.863 48.0638C208.539 47.4779 211.864 46.7122 213.687 45.22C214.361 45.5883 214.893 46.1713 215.197 46.8763C215.518 48.0716 215.925 44.7043 215.174 43.1106ZM196.145 39.4464C194.996 40.1249 194.079 41.1355 193.516 42.3449C193.732 41.4962 194.127 40.7038 194.677 40.0217C195.226 39.3395 195.917 38.7835 196.701 38.3917C199.173 37.2979 202.178 38.3917 203.242 38.9073C200.801 38.2979 198.281 38.2198 196.145 39.4464Z" fill="#0F0F0F"/>
<path d="M204.032 49.3139C204.47 50.6264 204.267 51.8686 203.578 52.0952C202.89 52.3217 202.013 51.4467 201.544 50.1342C201.074 48.8217 201.317 47.5794 202.006 47.3529C202.694 47.1263 203.602 48.0013 204.032 49.3139Z" fill="#EB975A"/>
<path d="M229.492 84.2289L218.53 86.5883V71.9707L229.492 69.6113V84.2289Z" fill="#E0D4D4"/>
<path d="M214.634 79.2522C215.457 78.5415 216.439 78.0379 217.497 77.7834C218.28 77.6974 216.926 78.7834 216.3 79.3459C215.674 79.9084 213.898 79.8381 214.634 79.2522Z" fill="#EB975A"/>
<path d="M215.854 79.2365C218.139 78.8694 219.297 78.299 220.345 78.6975C221.394 79.0959 219.884 80.5569 219.109 80.8069C218.335 81.0569 215.604 82.1116 214.79 81.5882C213.977 81.0647 214.164 79.5022 215.854 79.2365Z" fill="#EB975A"/>
<path d="M214.36 79.174C213.163 79.4006 205.965 79.174 201.794 79.2365C202.06 76.7052 202.788 72.2051 203.563 66.6268C203.597 64.6286 202.904 62.6858 201.614 61.1579C200.73 60.2048 198.704 60.3766 198.258 62.7205C197.754 65.2147 197.432 67.7423 197.295 70.2832C196.779 77.5724 197.209 80.7053 197.569 82.0804C197.653 82.3852 197.848 82.6474 198.117 82.8148C198.333 83.0391 198.592 83.2181 198.878 83.3415C199.164 83.4649 199.472 83.5302 199.783 83.5335C203.547 83.5335 204.932 83.5335 209.822 82.2913C213.218 81.4553 214.274 82.2366 214.986 81.4007C215.557 80.6741 215.354 78.9787 214.36 79.174Z" fill="#BF4D17"/>
<path d="M229.367 78.1271C229.349 77.2695 229.471 76.4146 229.727 75.5958C229.907 75.088 230.509 74.713 230.9 75.1739C231.292 75.6349 231.902 77.1818 231.628 77.9631C231.379 78.6273 230.883 79.1702 230.243 79.4787C229.672 79.7366 229.367 79.174 229.367 78.1271Z" fill="#EB975A"/>
<path d="M264.99 72.3301L259.443 67.4237L291.71 58.4938L280.467 85.7133L271.422 77.6193L267.658 81.0804L264.99 72.3301Z" fill="#6CA0FA"/>
<g style="mix-blend-mode:multiply">
<path d="M291.71 58.4938L271.422 77.6193L267.658 81.0804L264.99 72.3301L291.71 58.4938Z" fill="#A9B3D1"/>
</g>
<path d="M97.075 13.2113L100.549 6.67206L67.1865 9.59401L87.2634 31.1571L92.8969 20.4146L97.6384 22.3365L97.075 13.2113Z" fill="#FF6822"/>
<g style="mix-blend-mode:multiply">
<path d="M67.1865 9.59401L92.8969 20.4146L97.6384 22.3365L97.075 13.2113L67.1865 9.59401Z" fill="#A9B3D1"/>
</g>
<path d="M263.582 84.307L262.221 85.0883" stroke="#A5B9F6" stroke-width="0.75" stroke-linecap="round" stroke-linejoin="round"/>
<path d="M254.631 89.7446C251.449 91.8103 248.507 94.2237 245.86 96.9402C240.845 102.214 237.316 109.347 238.036 116.573C238.466 120.949 240.383 125.003 241.948 129.074C243.513 133.144 244.874 137.582 244.053 141.895C243.599 144.237 242.413 146.376 240.665 148.004" stroke="#A5B9F6" stroke-width="0.75" stroke-linecap="round" stroke-linejoin="round" stroke-dasharray="3.79 11.36"/>
<path d="M236.831 150.09C236.317 150.198 235.792 150.25 235.266 150.246" stroke="#A5B9F6" stroke-width="0.75" stroke-linecap="round" stroke-linejoin="round"/>
<path d="M103.084 26.5163L104.046 27.7508" stroke="#A5B9F6" stroke-width="0.75" stroke-linecap="round" stroke-linejoin="round"/>
<path d="M109.054 35.4228C109.92 37.1539 110.549 38.9934 110.924 40.8917C111.964 46.306 109.946 52.6968 104.946 55.0406C98.2721 58.1657 90.9252 53.0093 84.7597 48.9545C76.4957 43.5143 67.2758 39.6839 57.5862 37.6651C50.654 36.2276 43.2288 35.7744 36.6721 38.4464C29.1139 41.5246 23.6448 48.4466 20.5151 55.9781C17.3854 63.5095 16.337 71.7051 15.2416 79.7912C14.6939 83.9398 14.154 88.1508 14.8034 92.2916C15.4528 96.4323 17.4558 100.534 21.0002 102.753C26.2033 106.019 32.9165 104.448 39.0506 104.792C45.9357 105.167 52.4348 108.087 57.2837 112.982C62.1326 117.877 64.9847 124.398 65.2852 131.277" stroke="#A5B9F6" stroke-width="0.75" stroke-linecap="round" stroke-linejoin="round" stroke-dasharray="3.92 11.76"/>
<path d="M65.1287 135.847C65.074 136.363 64.9957 136.879 64.9018 137.41" stroke="#A5B9F6" stroke-width="0.75" stroke-linecap="round" stroke-linejoin="round"/>
<path d="M115.47 257.835C115.382 257.318 115.382 256.79 115.47 256.273" stroke="#A5B9F6" stroke-width="0.75" stroke-linecap="round" stroke-linejoin="round"/>
<path d="M122.261 250.804C125.571 250.749 128.7 252.663 130.977 255.101C133.372 257.679 135.038 260.827 137.018 263.734C140.734 269.216 145.55 273.867 151.162 277.392C156.774 280.917 163.058 283.239 169.616 284.21C176.174 285.181 182.862 284.78 189.257 283.034C195.652 281.287 201.613 278.232 206.763 274.062C215.221 267.218 221.081 257.726 228.741 249.991C234.891 243.741 243.114 238.553 251.588 238.116" stroke="#A5B9F6" stroke-width="0.75" stroke-linecap="round" stroke-linejoin="round" stroke-dasharray="4.02 12.05"/>
<path d="M256.29 238.374C256.798 238.46 257.307 238.569 257.855 238.694" stroke="#A5B9F6" stroke-width="0.75" stroke-linecap="round" stroke-linejoin="round"/>
<path d="M195.738 5.92204C199.862 4.98451 203.711 8.49242 205.652 12.2503C207.592 16.0082 208.547 20.3287 211.309 23.5241C216.003 28.993 224.234 29.3758 231.456 29.1961C238.678 29.0164 246.799 29.0399 251.924 34.1337" stroke="#A5B9F6" stroke-width="0.75" stroke-linecap="round" stroke-linejoin="round" stroke-dasharray="4 12"/>
<path d="M144.374 55.6752L142.898 55.0505L134.98 73.7111L136.457 74.3359L144.374 55.6752Z" fill="#3D3A3A"/>
<path d="M128.028 92.4088C127.534 92.2006 127.087 91.8975 126.711 91.5166C126.335 91.1358 126.038 90.6847 125.837 90.1891C125.635 89.6936 125.534 89.1633 125.538 88.6286C125.542 88.0938 125.652 87.5651 125.86 87.0727L133.215 69.7441C133.423 69.2515 133.727 68.8049 134.109 68.4298C134.49 68.0547 134.942 67.7584 135.439 67.5581C135.935 67.3578 136.466 67.2573 137.002 67.2624C137.537 67.2675 138.066 67.378 138.559 67.5878C139.054 67.7936 139.504 68.0952 139.882 68.4753C140.26 68.8554 140.559 69.3063 140.762 69.8023C140.965 70.2983 141.068 70.8294 141.064 71.3651C141.061 71.9009 140.951 72.4306 140.742 72.9239L133.387 90.2525C133.179 90.7469 132.875 91.1953 132.492 91.5718C132.109 91.9482 131.656 92.2452 131.157 92.4457C130.659 92.6462 130.126 92.7461 129.589 92.7398C129.052 92.7334 128.521 92.6209 128.028 92.4088Z" fill="#6CA0FA"/>
<path d="M171.299 42.9569C174.552 32.0341 168.321 20.5464 157.382 17.2985C146.443 14.0506 134.939 20.2723 131.686 31.1951C128.433 42.118 134.664 53.6056 145.603 56.8536C156.542 60.1015 168.047 53.8798 171.299 42.9569Z" stroke="#4C7ED6" stroke-width="7" stroke-miterlimit="10"/>
<path d="M161.946 51.0014C169.844 45.3029 171.62 34.2899 165.913 26.4033C160.207 18.5166 149.177 16.7427 141.279 22.4413C133.381 28.1398 131.604 39.1527 137.311 47.0394C143.018 54.926 154.047 56.6999 161.946 51.0014Z" fill="#D0EAFF"/>
<path opacity="0.35" d="M149.137 34.8135C152.975 34.8135 156.085 32.246 156.085 29.0789C156.085 25.9118 152.975 23.3444 149.137 23.3444C145.3 23.3444 142.189 25.9118 142.189 29.0789C142.189 32.246 145.3 34.8135 149.137 34.8135Z" fill="white"/>
</svg>
