<?xml version="1.0" standalone="no"?>
<!DOCTYPE svg PUBLIC "-//W3C//DTD SVG 20010904//EN"
 "http://www.w3.org/TR/2001/REC-SVG-20010904/DTD/svg10.dtd">
<svg version="1.0" xmlns="http://www.w3.org/2000/svg"
 width="192.000000pt" height="192.000000pt" viewBox="0 0 192.000000 192.000000"
 preserveAspectRatio="xMidYMid meet">
<metadata>
Created by potrace 1.14, written by Peter Selinger 2001-2017
</metadata>
<g transform="translate(0.000000,192.000000) scale(0.100000,-0.100000)"
fill="#000000" stroke="none">
<path d="M655 1901 c-6 -5 -28 -11 -50 -12 -22 -2 -46 -8 -54 -13 -12 -9 -13
-8 -6 4 7 12 6 13 -6 4 -8 -7 -30 -14 -49 -17 -19 -3 -45 -8 -57 -11 -13 -3
-33 -8 -45 -11 -23 -5 -78 -18 -88 -20 -3 -1 -18 -5 -35 -10 -16 -4 -36 -12
-42 -18 -7 -5 -13 -7 -13 -4 0 3 -15 1 -32 -4 -18 -6 -40 -12 -48 -14 -8 -2
-33 -10 -55 -18 -38 -13 -40 -16 -47 -68 -3 -29 -4 -57 -2 -61 3 -5 1 -8 -3
-8 -5 0 -9 -115 -9 -255 1 -140 4 -255 8 -255 5 0 8 -20 8 -44 0 -25 5 -48 10
-51 6 -4 10 -12 9 -18 -5 -25 14 -127 22 -127 5 0 9 -8 9 -18 0 -20 33 -118
43 -129 4 -3 7 -15 7 -25 0 -10 4 -18 10 -18 5 0 7 -7 4 -15 -4 -8 -2 -15 2
-15 5 0 25 -32 43 -70 19 -39 39 -70 44 -70 4 0 5 -4 2 -10 -3 -5 -1 -10 4
-10 6 0 11 -5 11 -11 0 -7 9 -20 21 -30 12 -10 18 -23 13 -30 -4 -8 -3 -9 4
-5 7 4 12 3 12 -1 0 -5 18 -28 40 -52 22 -23 40 -47 40 -52 0 -6 4 -8 9 -4 5
3 12 -4 16 -15 3 -11 11 -20 16 -20 6 0 24 -12 40 -27 16 -16 41 -38 54 -51
14 -13 25 -20 25 -17 0 5 12 -3 45 -32 7 -7 18 -13 24 -13 6 0 11 -4 11 -10 0
-5 7 -10 15 -10 8 0 15 -5 15 -10 0 -6 3 -9 8 -9 12 3 72 -25 72 -33 0 -4 9
-8 19 -8 11 0 22 -4 25 -9 6 -9 70 -25 96 -24 31 1 80 16 80 24 0 5 9 9 19 9
11 0 23 5 26 10 4 6 11 8 16 5 5 -4 9 -1 9 4 0 6 7 11 15 11 8 0 15 5 15 11 0
6 6 9 14 6 8 -3 16 -3 18 1 4 9 75 62 83 62 4 0 12 6 20 13 7 6 28 23 47 37
75 57 184 176 246 270 20 30 40 57 44 58 5 2 6 8 3 13 -4 5 3 18 14 30 11 12
18 26 15 31 -3 4 0 8 5 8 6 0 11 6 11 14 0 7 7 27 15 42 8 16 15 38 15 48 0
11 3 16 7 12 8 -8 34 74 27 86 -3 4 0 8 5 8 6 0 11 8 11 18 0 10 3 22 7 26 4
3 8 14 9 24 1 9 7 42 14 72 7 30 14 73 17 95 6 60 8 69 14 80 2 6 4 45 4 87 0
43 4 78 9 78 5 0 3 6 -3 13 -6 8 -8 16 -5 20 10 9 12 57 3 63 -5 3 -5 13 0 23
5 9 6 23 2 29 -4 7 -7 41 -7 77 1 36 -1 65 -4 65 -3 0 -5 12 -6 28 -3 77 -8
111 -16 106 -4 -3 -8 -1 -8 5 0 8 -96 44 -150 56 -8 2 -30 8 -48 14 -18 5 -35
10 -37 10 -3 1 -6 1 -7 2 -2 0 -10 2 -18 4 -8 2 -44 11 -80 20 -36 10 -76 19
-90 20 -40 6 -54 10 -69 19 -10 7 -12 6 -6 -4 6 -10 4 -11 -6 -4 -15 9 -19 10
-94 20 -73 10 -356 12 -382 3 -13 -5 -23 -4 -25 2 -2 6 -7 6 -13 0z m226 -85
c17 -1 33 2 35 6 3 5 11 5 18 -1 6 -5 40 -11 74 -12 36 -1 62 -7 62 -13 0 -6
5 -4 10 4 6 10 10 11 10 3 0 -8 15 -13 40 -13 22 0 40 -4 40 -8 0 -4 12 -7 28
-6 15 0 43 -5 64 -12 20 -7 39 -10 42 -7 3 4 6 2 6 -3 0 -5 8 -10 18 -10 36
-2 87 -15 101 -27 12 -10 13 -9 6 3 -6 12 -5 13 6 3 7 -7 21 -13 31 -13 10 0
18 -5 18 -11 0 -5 4 -8 9 -5 15 10 102 -28 113 -48 8 -14 7 -17 -3 -11 -8 6
-10 4 -3 -6 21 -35 32 -294 17 -457 -3 -42 -7 -92 -7 -109 -1 -18 -5 -33 -9
-33 -5 0 -7 -6 -4 -12 2 -7 -1 -31 -8 -53 -6 -23 -11 -49 -9 -58 1 -9 -2 -15
-7 -11 -5 3 -9 -8 -9 -25 0 -16 -4 -32 -9 -36 -6 -3 -8 -14 -6 -25 2 -11 0
-20 -6 -20 -5 0 -9 -9 -9 -20 0 -11 -4 -20 -10 -20 -5 0 -9 -3 -7 -8 3 -11
-36 -102 -45 -102 -4 0 -7 -3 -6 -7 6 -32 -111 -194 -212 -291 -55 -53 -157
-132 -170 -132 -6 0 -10 -5 -10 -11 0 -5 -4 -7 -10 -4 -5 3 -10 1 -10 -4 0 -6
-7 -11 -15 -11 -8 0 -15 -5 -15 -11 0 -6 -7 -8 -15 -5 -9 3 -18 -1 -21 -9 -4
-8 -10 -13 -14 -10 -5 3 -11 1 -15 -5 -3 -5 -15 -10 -26 -10 -10 0 -19 -4 -19
-8 0 -5 -7 -9 -15 -10 -48 -6 -78 -4 -83 4 -4 5 -14 10 -22 12 -19 3 -56 21
-101 49 -20 12 -40 19 -45 15 -4 -4 -4 -2 -1 4 4 7 -2 14 -16 18 -12 3 -34 17
-49 31 -15 14 -32 25 -38 25 -5 0 -10 5 -10 11 0 5 -6 7 -12 3 -7 -4 -10 -4
-6 1 4 4 -6 18 -22 30 -16 12 -27 25 -23 28 3 4 -1 7 -10 7 -9 0 -19 5 -23 12
-5 7 -2 9 7 4 8 -4 5 -1 -5 6 -10 7 -28 24 -40 37 -12 14 -29 33 -38 43 -10
10 -18 23 -18 28 0 6 -5 10 -11 10 -5 0 -7 5 -4 10 3 6 2 10 -3 10 -12 0 -62
78 -62 96 0 9 -4 12 -10 9 -5 -3 -10 3 -10 14 0 11 -7 27 -16 35 -8 9 -13 20
-10 25 3 5 -1 14 -9 21 -7 6 -11 19 -8 27 4 11 2 14 -5 9 -8 -5 -12 1 -12 18
0 14 -4 26 -8 26 -5 0 -9 6 -10 13 -1 26 -12 60 -22 71 -5 7 -8 15 -5 18 3 2
-1 25 -9 51 -7 25 -12 48 -9 51 3 2 1 11 -3 18 -10 16 -11 19 -12 86 -2 40 -5
51 -14 46 -9 -5 -9 -2 1 9 8 11 9 17 2 17 -7 0 -8 8 -1 25 5 13 6 26 2 29 -8
5 -8 277 0 292 4 8 8 47 12 114 2 24 44 54 93 65 30 7 137 37 153 43 8 3 20 6
25 7 6 1 19 4 30 8 29 9 76 18 110 22 17 1 37 5 45 9 8 3 26 8 40 10 14 3 25
5 25 6 0 1 10 3 23 4 12 2 22 -2 22 -8 0 -7 3 -6 8 1 4 7 36 13 75 15 37 2 67
7 67 11 0 5 5 5 11 2 6 -4 24 -8 40 -9z"/>
<path d="M816 1793 c-1 -1 -26 -3 -54 -4 -29 -1 -55 -6 -58 -11 -3 -4 -9 -6
-14 -3 -11 7 -160 -17 -155 -24 2 -4 -14 -6 -36 -5 -21 0 -39 -3 -39 -8 0 -4
-13 -8 -28 -8 -15 0 -34 -6 -41 -12 -11 -11 -12 -10 -6 2 7 12 6 13 -6 3 -8
-7 -30 -15 -49 -18 -19 -3 -40 -11 -47 -17 -7 -6 -13 -8 -13 -5 0 4 -19 -1
-42 -9 -23 -8 -48 -12 -56 -9 -7 2 -10 0 -7 -5 3 -6 -1 -10 -9 -10 -9 0 -16
-8 -17 -17 -1 -10 -3 -31 -4 -48 -2 -16 -5 -46 -6 -65 -1 -19 -7 -38 -13 -42
-8 -5 -7 -8 1 -8 12 0 11 -26 -1 -88 -3 -13 -1 -20 5 -17 5 4 9 2 9 -4 0 -5
-6 -12 -12 -14 -10 -4 -10 -6 0 -6 10 -1 10 -6 2 -21 -6 -11 -7 -20 -1 -20 12
0 9 -33 -4 -42 -7 -5 -7 -8 0 -8 6 0 11 -21 11 -47 3 -123 51 -360 88 -430 9
-18 14 -33 11 -33 -3 0 2 -11 11 -25 9 -14 13 -25 9 -25 -5 0 -2 -8 6 -17 8
-10 24 -36 34 -58 11 -22 28 -48 38 -59 9 -11 17 -23 17 -26 0 -6 13 -24 50
-67 6 -7 9 -13 6 -13 -2 0 32 -35 75 -77 44 -43 82 -77 84 -75 3 1 13 -6 23
-15 38 -36 60 -51 66 -46 3 4 6 2 6 -4 0 -6 8 -13 18 -17 9 -3 41 -19 71 -36
30 -16 58 -27 62 -25 4 3 9 -1 11 -7 5 -15 96 -16 106 -2 4 5 12 9 17 9 15 1
89 39 97 50 4 6 8 6 8 2 0 -4 10 1 22 13 12 11 27 20 33 20 7 0 20 9 30 20 10
11 22 17 26 14 5 -3 9 2 9 10 0 9 6 16 13 16 11 0 97 75 97 85 0 2 18 22 40
45 22 23 47 54 57 71 9 16 21 29 25 29 4 0 8 7 8 15 0 7 8 19 18 24 9 6 13 11
9 11 -10 0 31 71 47 82 6 4 7 8 2 8 -5 0 -3 7 4 15 7 8 9 15 5 15 -4 0 -2 6 4
14 7 8 14 24 16 37 3 12 8 25 13 28 4 3 7 13 7 21 -1 8 2 20 6 25 3 6 10 24
14 40 5 17 9 32 10 35 1 3 5 24 10 48 4 23 11 42 16 42 5 0 9 5 9 11 0 5 -5 7
-12 3 -7 -4 -8 -3 -4 4 19 31 29 143 29 327 0 88 -3 179 -7 203 -5 28 -3 42 4
42 7 0 5 6 -3 15 -9 8 -13 23 -11 32 4 14 -8 22 -58 38 -35 11 -66 19 -70 17
-5 -1 -8 2 -8 6 0 5 -6 9 -12 10 -31 2 -84 15 -100 23 -9 5 -27 9 -41 9 -13 0
-27 3 -31 7 -3 4 -14 8 -24 9 -9 1 -35 6 -57 10 -22 3 -48 7 -57 7 -10 1 -18
4 -18 7 0 3 -10 5 -22 6 -13 0 -54 4 -93 8 -76 8 -174 13 -179 9z m-366 -375
c0 -8 3 -9 8 -3 4 6 22 11 41 12 25 1 31 -1 20 -9 -15 -11 -6 -9 34 7 13 5 17
2 17 -14 0 -12 5 -21 11 -21 6 0 9 -6 6 -12 -2 -7 2 -28 10 -45 7 -18 10 -33
7 -33 -4 0 -1 -7 6 -15 7 -9 10 -18 7 -22 -4 -3 -1 -15 5 -27 7 -11 13 -25 13
-31 1 -5 4 -17 7 -25 6 -14 17 -57 24 -87 8 -39 37 -113 44 -113 5 0 7 7 4 15
-4 8 -1 15 5 15 6 0 11 7 11 16 0 9 9 29 21 45 11 16 17 29 14 29 -4 0 1 7 9
16 9 8 16 22 16 30 0 8 5 14 10 14 6 0 10 6 10 13 0 14 32 81 49 101 6 7 8 16
4 19 -3 4 0 7 7 7 7 0 10 3 7 6 -4 4 2 19 12 33 10 14 19 31 20 36 0 6 7 17
15 27 8 9 13 18 11 20 -2 2 5 4 16 5 12 1 17 -3 13 -9 -5 -7 -2 -8 7 -2 21 13
39 14 39 1 0 -8 3 -8 8 -2 10 14 32 17 32 5 0 -5 5 -10 11 -10 5 0 7 5 3 12
-4 7 -3 8 4 4 19 -12 14 -26 -10 -26 -50 -1 -58 -19 -63 -144 -2 -64 -5 -119
-8 -123 -2 -5 -3 -41 -3 -80 1 -40 -2 -73 -7 -73 -10 0 -4 -23 8 -32 6 -5 5
-8 -2 -8 -9 0 -12 -30 -10 -110 2 -98 4 -112 24 -132 24 -24 79 -33 90 -15 9
14 10 19 12 51 1 19 5 22 25 19 45 -9 45 -58 0 -88 -26 -17 -122 -23 -133 -8
-3 4 -15 13 -26 19 -11 5 -30 30 -42 54 -21 40 -22 54 -19 194 3 83 8 160 12
170 6 15 4 17 -6 11 -9 -6 -11 -4 -4 6 4 8 10 52 11 99 2 47 5 90 7 96 2 6 -2
11 -10 11 -8 0 -12 -2 -9 -5 2 -2 -3 -19 -12 -36 -10 -17 -17 -35 -18 -39 0
-4 -6 -11 -13 -16 -8 -5 -14 -12 -14 -17 -2 -25 -11 -44 -21 -44 -6 0 -8 -3
-4 -6 3 -4 0 -19 -9 -35 -8 -16 -14 -32 -13 -35 0 -4 -4 -10 -9 -13 -9 -6 -42
-64 -43 -78 -1 -5 -10 -20 -20 -34 -10 -14 -16 -28 -13 -31 2 -3 -2 -11 -10
-17 -8 -7 -12 -20 -9 -28 4 -10 2 -14 -4 -10 -6 4 -13 -3 -16 -14 -7 -26 -27
-16 -27 14 0 12 -7 42 -16 67 -9 25 -16 53 -17 62 -1 10 -5 18 -9 18 -4 0 -7
3 -6 8 2 4 -13 64 -32 134 -34 126 -55 160 -58 96 -1 -18 -4 -44 -8 -58 -3
-14 -7 -41 -10 -60 -3 -19 -7 -46 -11 -60 -8 -35 -10 -48 -17 -105 -4 -27 -9
-57 -11 -66 -3 -9 0 -21 7 -26 14 -11 68 -27 81 -25 4 1 7 -2 7 -8 0 -6 -47
-10 -121 -10 -77 0 -118 4 -114 10 3 5 24 13 47 16 28 5 42 13 45 25 3 11 10
19 15 19 5 0 7 3 5 8 -3 4 -1 32 5 62 5 30 10 64 12 75 1 11 6 26 10 34 7 10
6 12 -4 6 -10 -6 -11 -4 -4 6 9 15 12 29 16 72 1 15 5 27 8 27 3 0 6 17 7 38
1 20 5 55 9 77 14 81 15 80 -43 80 -29 1 -53 -2 -53 -5 0 -3 -16 -7 -36 -8
-20 -2 -42 -8 -50 -15 -34 -28 -53 -51 -48 -58 2 -4 0 -10 -4 -13 -13 -8 -2
-53 17 -69 17 -15 81 -28 81 -17 0 4 6 7 13 7 8 0 14 -6 14 -14 0 -7 -4 -13
-9 -13 -5 0 -7 -4 -3 -9 3 -6 -4 -15 -15 -21 -11 -6 -20 -9 -20 -6 0 3 -14 1
-30 -4 -17 -5 -28 -5 -25 0 3 5 -5 10 -17 12 -43 6 -90 113 -58 133 6 4 8 11
5 16 -4 5 -1 9 4 9 6 0 11 6 11 13 0 18 96 70 112 61 7 -4 8 -3 4 4 -5 8 2 12
21 13 36 1 63 6 71 13 10 10 22 6 22 -6z m712 1 c11 -6 18 -7 15 -2 -7 11 215
9 233 -2 9 -5 11 -4 6 3 -4 7 -3 12 3 12 5 0 13 -5 16 -10 4 -6 12 -7 18 -3
20 12 37 12 37 0 0 -7 5 -5 10 3 7 11 10 -4 10 -50 0 -36 -5 -72 -10 -80 -9
-13 -10 -13 -11 0 -1 8 -1 19 0 23 3 17 -41 67 -58 67 -10 0 -21 3 -25 8 -4 4
-41 7 -83 8 -73 1 -75 1 -70 -22 2 -13 1 -24 -2 -24 -3 0 -7 -26 -9 -57 -2
-31 -8 -64 -15 -72 -8 -10 -8 -13 -1 -8 8 4 11 -2 10 -18 0 -14 -5 -25 -9 -25
-5 0 -6 -4 -3 -9 7 -11 146 -14 163 -3 6 4 15 23 20 42 5 19 13 35 18 35 8 0
8 -24 1 -145 -2 -23 -8 -35 -17 -35 -8 0 -14 7 -14 15 -1 49 -12 57 -85 56
-38 -1 -73 -5 -79 -11 -8 -9 -13 -40 -26 -191 -4 -48 5 -55 78 -63 4 -1 7 -5
7 -11 0 -6 -51 -10 -132 -10 -118 1 -130 2 -108 14 14 8 27 13 30 11 3 -2 15
4 28 13 21 17 30 61 32 160 0 18 4 31 8 28 5 -3 9 1 9 9 0 8 -4 12 -8 9 -4 -2
-7 4 -6 15 0 11 4 18 8 15 4 -2 6 9 6 24 0 15 3 61 7 102 17 157 17 154 -39
159 -8 0 -15 6 -15 12 0 6 7 8 16 5 8 -3 12 -2 9 4 -8 13 1 13 27 -1z"/>
</g>
</svg>
